<svg xmlns="http://www.w3.org/2000/svg" viewBox="0 0 2314.5 708.66"><defs><style>.cls-1{fill:#fff;}.cls-2{fill-rule:evenodd;}</style></defs><title>Asset 2</title><g id="Layer_2" data-name="Layer 2"><g id="Layer_1-2" data-name="Layer 1"><rect class="cls-1" width="2314.5" height="708.66" rx="91.93"/><path d="M1504.75,141.91h367.36v67.8H1726.38V566.43h-72.87V209.71H1504.75Zm-604.16,0v67.8H606.12V318.79H842.93V386.6H606.12v112H900.59v67.81H533.26V209.71h0v-67.8Zm183.43.18H988.66L1330.21,566.6h95.64l-170.8-212.11,170.52-212.08-95.36.15L1207.31,295.2Zm97.85,303.23L1134.12,386l-145.73,181H1084l97.85-121.61Z"/><path class="cls-2" d="M535.81,566.43l-342-424.7H102.73V566.25h72.86V232.47l268.69,334Z"/><path d="M1888.49,563.84a18.9,18.9,0,0,1-13.68-5.55,17.86,17.86,0,0,1-5.63-13.48,17.68,17.68,0,0,1,5.63-13.28,18.9,18.9,0,0,1,13.68-5.55,18.66,18.66,0,0,1,13.43,5.55,18,18,0,0,1,5.83,13.28,18.41,18.41,0,0,1-2.72,9.58,19.86,19.86,0,0,1-7.06,6.87A18.28,18.28,0,0,1,1888.49,563.84ZM2012.86,385h32.28V509.4c0,11.42-2.52,21.2-7.35,29.43a49,49,0,0,1-20.34,18.92c-8.64,4.38-18.76,6.62-30.27,6.62a69.51,69.51,0,0,1-28.34-5.6,45.56,45.56,0,0,1-19.94-16.54c-4.94-7.3-7.36-16.4-7.36-27.29h32.34a24.18,24.18,0,0,0,3.21,12.36,20.64,20.64,0,0,0,8.59,7.92,28,28,0,0,0,12.73,2.78,25.14,25.14,0,0,0,13.24-3.26,20.69,20.69,0,0,0,8.29-9.63,39.53,39.53,0,0,0,2.92-15.71V385ZM2178,433.65A23.47,23.47,0,0,0,2167.73,416q-9.12-6.35-23.55-6.33a45.62,45.62,0,0,0-17.43,3,26.18,26.18,0,0,0-11.16,8.22,20.08,20.08,0,0,0-4,11.82,17.31,17.31,0,0,0,2.62,9.58,21.38,21.38,0,0,0,7.06,6.86,46.45,46.45,0,0,0,9.88,4.72q5.48,1.9,11,3.22l16.84,4.13a115.18,115.18,0,0,1,19.6,6.33,69.36,69.36,0,0,1,16.93,10,44.67,44.67,0,0,1,11.85,14.59,43.33,43.33,0,0,1,4.4,20c0,10.36-2.67,19.45-8.05,27.34s-13.13,14-23.3,18.39-22.37,6.61-36.78,6.61c-13.93,0-26.07-2.14-36.29-6.42s-18.27-10.46-24-18.63-8.88-18.15-9.33-29.87h32a26.85,26.85,0,0,0,5.77,15.37,31.28,31.28,0,0,0,13.28,9.15,53.54,53.54,0,0,0,18.37,3,51.3,51.3,0,0,0,18.66-3.16,29.1,29.1,0,0,0,12.54-8.81,20.57,20.57,0,0,0,4.64-13.23,17,17,0,0,0-4.1-11.48,31.31,31.31,0,0,0-11.25-7.59,116.46,116.46,0,0,0-16.89-5.5l-20.43-5.16c-14.77-3.74-26.47-9.43-35-17.07s-12.84-17.76-12.84-30.46a44.87,44.87,0,0,1,8.65-27.38q8.58-11.76,23.5-18.25c10-4.38,21.23-6.52,33.76-6.52,12.74,0,23.9,2.14,33.53,6.52a54.73,54.73,0,0,1,22.66,18.05,45.68,45.68,0,0,1,8.49,26.47Z"/></g></g></svg>