<svg xmlns="http://www.w3.org/2000/svg" viewBox="0 0 315.93 323.22"><defs><style>.cls-1{fill:#15031b;}.cls-2{fill:#faddb8;}.cls-10,.cls-15,.cls-3{fill:#eeb48c;}.cls-27,.cls-3{opacity:0.5;}.cls-4{fill:#fffffd;}.cls-5{fill:#d8d8d6;}.cls-6{fill:#58304c;}.cls-7{fill:#441b21;}.cls-8{fill:#13031d;}.cls-9{fill:#f8ffff;}.cls-10,.cls-14,.cls-36{opacity:0.7;}.cls-11{fill:#2e0521;}.cls-12{fill:#d8403d;}.cls-13{fill:#e2514d;}.cls-16{fill:#6d1537;}.cls-17{fill:#abffb5;}.cls-18{fill:#93e59b;}.cls-19{fill:#230414;}.cls-20{fill:#4f0724;}.cls-21{fill:#15021a;}.cls-22{fill:#bcbcbc;}.cls-23{fill:#adadad;}.cls-24{fill:#d1d3d4;}.cls-25{fill:#969595;}.cls-26{fill:#eaeaea;}.cls-28{fill:#bebaba;}.cls-29{opacity:0.9;}.cls-30{fill:#a96f57;}.cls-31{fill:#fdf0f5;}.cls-32{fill:#350322;}.cls-33{fill:#260020;}.cls-34{fill:#f3fff4;}.cls-35{fill:#eedbe5;}.cls-36,.cls-37{fill:#663036;}.cls-38{fill:#280122;}.cls-39{fill:#20070d;}.cls-40{fill:#63c66a;}.cls-41{fill:#220a0b;}</style></defs><title>girlcar</title><g id="Layer_2" data-name="Layer 2"><g id="Layer_1-2" data-name="Layer 1"><path class="cls-1" d="M120.33,181a21,21,0,0,1,8.1,19.22l-1.87-.87a31,31,0,0,0,.36,15.53,39.93,39.93,0,0,1,1.31,4.91c.46,3.17-.35,6.48.51,9.56-5.31-7.68-5.77-17.69-9.8-26.11a7.94,7.94,0,0,1-.7-1.78c-.09-.41-.1-.84-.2-1.25a6.21,6.21,0,0,0-2.27-3,19,19,0,0,0-4.84-3.34,19.74,19.74,0,0,1-2.47-1,8.24,8.24,0,0,1-2.94-3.84,30.92,30.92,0,0,1-2-5.87c-.37-1.64-.47-3.67.88-4.67a24.65,24.65,0,0,0-10.79,3.48c-3.14,1.86-6,4.14-9,6.16a9.82,9.82,0,0,1-3.07,1.53c-2.23.55-4.55-.39-6.85-.29a59.75,59.75,0,0,1-11.44-14.29,23.81,23.81,0,0,1-3.33-9.3c-.36-3.84.79-7.66,1.92-11.35A3.48,3.48,0,0,1,62.5,153c.89-.95,2.46-.58,3.66-.07a56.83,56.83,0,0,1,10.77,6.74c3.29,2.43,6.58,4.85,9.68,7.5,2.46,2.1,4.92,4.41,8,5.25,2.36.64,4.86.36,7.3.48,4.74.24,9.25,2,13.67,3.74a10.49,10.49,0,0,1,2.3,1.14C119.12,178.68,119.13,180.06,120.33,181Z"/><path class="cls-2" d="M114.28,199.53a9.83,9.83,0,0,1-3.71,5.94c-5.3,4-16.26,2.18-25-3.64a30.87,30.87,0,0,1-8.76-8.62,25.9,25.9,0,0,1-2.37-4.54,6.16,6.16,0,0,1,4.23-3.22c1.33-2,5.18-8.36,3.83-16.27a20.29,20.29,0,0,0-2.06-6,49.84,49.84,0,0,0,30.41,12.3,24.24,24.24,0,0,0-2.4,5.23,23.91,23.91,0,0,0-.77,3.05,21,21,0,0,0-.35,2.87,9.27,9.27,0,0,0,1.62,5.15,5.29,5.29,0,0,1,2.19.55,5.69,5.69,0,0,1,2.51,2.71A7.43,7.43,0,0,1,114.28,199.53Z"/><path class="cls-3" d="M114.28,199.53a9.27,9.27,0,0,1-3.71,5.94c-5.3,4-16.26,2.18-25-3.64a40.43,40.43,0,0,0,2.88-4.15,41.31,41.31,0,0,0,2.2-4.16c.66-1.48.92-3.23,1.63-4.65a5.14,5.14,0,0,1,1.48-3c1-.71,2.29-.58,3.49-.53,2.29.1,4.62-.21,6.88.18a11.56,11.56,0,0,1,3.2,1.05,8.78,8.78,0,0,0,.37,2.6,9,9,0,0,0,1.25,2.55,5.28,5.28,0,0,1,1.67.31,5.82,5.82,0,0,1,3,2.95A7.24,7.24,0,0,1,114.28,199.53Z"/><path class="cls-4" d="M147.67,297.39l-79.22,9.73L64.29,186.35h7.37l5.61,4.21a51.12,51.12,0,0,0,18.66,13.59,22.47,22.47,0,0,0,4.7,1.5c2.69.52,7.68,1.48,11.05-1.2,3.07-2.44,4.06-7.33,2.74-12.17a18.17,18.17,0,0,1,3.67,2.56,17.89,17.89,0,0,1,2.12,2.27,27.39,27.39,0,0,1,2.76.62,26.11,26.11,0,0,1,8,3.86Z"/><path class="cls-5" d="M112,266.61c-14.52,0-27.41-6.07-37.9-15.7a42.91,42.91,0,0,1-8-9.94l2.28,66.15,79.22-9.73-6.84-39.28A55.34,55.34,0,0,1,112,266.61Z"/><path class="cls-6" d="M71.66,186.35c1.94,1.3,3.85,2.66,5.77,4h0l0,0a54.83,54.83,0,0,0,9.93,8.51,50,50,0,0,0,11.64,5.79,26.86,26.86,0,0,0,3.16.7,20.58,20.58,0,0,0,3.2.34,9.54,9.54,0,0,0,6-1.58,8.93,8.93,0,0,0,3.14-5.36,15.66,15.66,0,0,0-.1-6.5,14.67,14.67,0,0,1,.62,6.59,9.39,9.39,0,0,1-3.14,5.94,9.86,9.86,0,0,1-6.5,2,23.58,23.58,0,0,1-3.37-.3,30.22,30.22,0,0,1-3.3-.68,35.17,35.17,0,0,1-6.19-2.59,52,52,0,0,1-5.73-3.44,48.57,48.57,0,0,1-9.75-9l0,0C75.29,189.3,73.45,187.85,71.66,186.35Z"/><path class="cls-7" d="M74.15,115.83a13.65,13.65,0,0,0,1.53-4.36l1.5.08-3.39,5.21Q74,116.31,74.15,115.83Z"/><path class="cls-7" d="M186.85,195.09c.5,1.81,1.42,8.59-13.38,6.83h-.08l-.69-.09s.1.23.26.65l0,.08q0,.1.09.24l.06.17.16.47a1.27,1.27,0,0,1,.06.18c0,.15.11.31.16.48s.07.22.1.33c.1.34.21.71.32,1.1,0,.13.07.26.1.4.14.54.27,1.12.4,1.73.06.31.11.62.17.94a.08.08,0,0,1,0,0c.53,3.23.61,7.06-.93,10.24a9.27,9.27,0,0,1-.44.82,10.21,10.21,0,0,1-1.45,1.87,11.68,11.68,0,0,1-5.25,3c2-4.69,1.64-7.93,1-10-1.8-5.87-7.54-7.09-13.77-14.67a38.94,38.94,0,0,1-3.23-4.55l-.32-.53c-.72-1.21-1.29-2.32-1.74-3.27l-.21-.45a.43.43,0,0,1,0,0c0,.15.06.34.11.57a23.92,23.92,0,0,1,.34,3c0,.12,0,.24,0,.37v.11c0,.14,0,.28,0,.42a17.72,17.72,0,0,1-1.21,7.13,13.11,13.11,0,0,1-.93,1.83,12.87,12.87,0,0,1-.81,1.17c-.19.24-.41.51-.68.79s-.28.29-.44.45a13.09,13.09,0,0,1-1.14,1,15.58,15.58,0,0,1-2.12,1.34,22,22,0,0,0,1.14-3.9,22.41,22.41,0,0,0,.44-6.19v-.11a17.55,17.55,0,0,0-1-4.87,1.8,1.8,0,0,0-.08-.21,15.85,15.85,0,0,0-1.92-3.62l-.18-.26a16.49,16.49,0,0,0-1.78-2.06,14.25,14.25,0,0,0-1.24-1.12,19,19,0,0,0-5.94-3.23l-1.16-.37-4.32-1.4-5.85-1.88-.47-.15-2.52-.81-.06,0,.57-.15,1-.26.59-.15.18-.05c1.32.11,2.65.19,4,.22a41.28,41.28,0,0,0,9.26-.7,43.48,43.48,0,0,0,18-8.45c5-3.88,13.33-10.39,14.18-20.57a19.77,19.77,0,0,0,0-3.17,18.34,18.34,0,0,0-.26-2.12l-.09-.53c-.09-.43-.19-.83-.29-1.21s-.14-.55-.22-.8a38.65,38.65,0,0,1-1.26-13.48,68.43,68.43,0,0,1,2.31-13.36c.2-.73.4-1.41.58-2l.42-1.33c.11-.34.22-.66.32-1,0,0,0-.1,0-.14l.22-.62.09-.25c.24-.68.39-1,.39-1a53.53,53.53,0,0,0,3.14-17.27v0a74,74,0,0,0-2.11-19V61.09s0,.32-.12.88c0,.12,0,.26-.06.42s0,0,0,.07c-.1.59-.26,1.36-.49,2.26a41.37,41.37,0,0,1-10.83,18.71l-.1.11c-6.44,6.4-16.39,12.37-31.8,15q-2.06.36-4.26.63H85.27l-6.86,10.49a75.48,75.48,0,0,0-10-.21l-8.09.18a1.73,1.73,0,0,0-.75.14c-.61.31-.61,1.16-.53,1.84a1.82,1.82,0,0,0,.23.77,1.77,1.77,0,0,0,1.31.54,26,26,0,0,1,6.49,1.65c2.08.82,4.12,2,6.26,2.84l-2.41,3.69s-.44.81-1.1,2.33c-.19.44-.4,1-.62,1.51-.08.18-.15.36-.22.54s-.24.64-.37,1c-.06.18-.13.35-.19.53-.13.36-.26.74-.39,1.13l-.44,1.33-.35,1.18c-.26.89-.52,1.84-.77,2.84-.07.24-.13.49-.18.74v0q-.24,1-.48,2.13c-.08.42-.17.84-.25,1.28L65.33,139c-.08.46-.15.93-.22,1.4l-.21,1.42,0,.26c-.11.9-.21,1.82-.29,2.77,0,.28,0,.57-.07.87-.06.65-.1,1.31-.13,2,0,.3,0,.61,0,.92,0,1.23-.06,2.5,0,3.79,0,.76,0,1.52.07,2.3A74.89,74.89,0,0,0,74.11,188a2.15,2.15,0,0,0,.14.26,3.79,3.79,0,0,0,.2.34s0,0,0,0a0,0,0,0,0,0,0c.12.21.24.42.37.63a88.23,88.23,0,0,0,5,7.63l.35.48q.38.52.78,1a106.56,106.56,0,0,1-16.49-7.1c-1.58-.86-3.17-1.79-4.7-2.79-6.78-4.39-12.5-10-12.28-16.53,0-.28,0-.55.06-.83l.61-.95,1-1.56-1.67-2.33-3.32,1.33-3.75,1.5L36,178.09l-.49,1-.79,4.28-7,8.29-5.77,6.83S6.82,184,15.46,165.32A13.7,13.7,0,0,1,0,161.94a16.94,16.94,0,0,0,2.11.36l.17,0,.56.05c5.71.42,17.94-1.18,17.21-22.66L15,103.45S-1.27,1.07,100.48,1.07c0,0,42.75-4,57.15,23.94,0,0,20.77,5.21,22.94,37.5v.24c.08,1.16.13,2.35.15,3.59a1.22,1.22,0,0,1,0,.27c0,.28,0,.57,0,.86l.25.43,0,0c2.62,4.54,22.53,41.55,1,82.44,0,0-15,22.24-8.64,38.29,0,0,4.62,9.75,12.91,6.16h0l.4-.18a2.76,2.76,0,0,1,.12.38A.14.14,0,0,1,186.85,195.09Z"/><path class="cls-2" d="M166.54,107.93s-.15.37-.39,1l-.09.25-.22.62s0,.09,0,.14c-.1.29-.21.61-.32,1l-.42,1.33c-.18.62-.38,1.3-.58,2a68.43,68.43,0,0,0-2.31,13.36,38.65,38.65,0,0,0,1.26,13.48c.08.25.15.52.22.8s.2.78.29,1.21l.09.53a18.34,18.34,0,0,1,.26,2.12,19.77,19.77,0,0,1,0,3.17c-.85,10.18-9.21,16.69-14.18,20.57a43.48,43.48,0,0,1-18,8.45,41.28,41.28,0,0,1-9.26.7c-1.34,0-2.67-.11-4-.22l-.23,0a73.55,73.55,0,0,1-8.67-1.26c-.66-.13-1.31-.27-2-.42a105.14,105.14,0,0,1-26-10l-.11-.05h0c-3.1-1.66-5.56-3.15-7.25-4.17A58.58,58.58,0,0,1,69,158.72l-.65-.5a43.7,43.7,0,0,1-3.94-3.49c0-.78-.06-1.54-.07-2.3,0-1.29,0-2.56,0-3.79,0-.31,0-.62,0-.92,0-.68.07-1.34.13-2,0-.3,0-.59.07-.87.08-1,.18-1.87.29-2.77l0-.26.21-1.42c.07-.47.14-.94.22-1.4l.24-1.35c.08-.44.17-.86.25-1.28q.24-1.09.48-2.13v0c0-.25.11-.5.18-.74.25-1,.51-2,.77-2.84l.35-1.18.44-1.33c.13-.39.26-.77.39-1.13.06-.18.13-.35.19-.53.13-.35.25-.68.37-1s.14-.36.22-.54c.22-.56.43-1.07.62-1.51.66-1.52,1.1-2.33,1.1-2.33l2.41-3.69.44-.66,3.39-5.21,1.23-1.88,6.86-10.49h34.62c.88,0,2.48-.07,4.59-.31C131.82,98,145.32,95,156,83.54l.1-.11A47.67,47.67,0,0,0,165.16,69c0-.1.09-.2.13-.31A50.56,50.56,0,0,0,167.45,62l0-.11c-.08,2.12-.14,5.41.07,9.41,0,.12,0,.24,0,.37s0,.51,0,.76c.39,6.09,1.15,9.69,1.63,13.26a41.6,41.6,0,0,1,.44,5v0A44.52,44.52,0,0,1,166.54,107.93Z"/><path class="cls-8" d="M124.31,103c-1.7.92-4-.9-5.47-1.62-5.66-2.76-10.56,0-16.36.4-2.38.18-4.82-.18-7.13.4-2.71.68-5,2.58-7.65,3.33a4,4,0,0,1-2.19.11,1.89,1.89,0,0,1-1.41-1.54l4.23-4.17.78-.76h30.78q2.2-.27,4.26-.63C125.51,99.8,126.48,101.85,124.31,103Z"/><path class="cls-8" d="M146.22,100.89a4.16,4.16,0,0,1,1.64-3A10,10,0,0,1,151,96.26a21.41,21.41,0,0,1,8.7-1.29,11.89,11.89,0,0,1,7.83,3.66c-11.79,1.54-15.53,2.73-16.37,3.59a3.88,3.88,0,0,1-1.72,1.06C149.15,103.37,146.17,104.28,146.22,100.89Z"/><path class="cls-9" d="M164.28,149a20.89,20.89,0,0,1-2.36,8.43,30.78,30.78,0,0,1-5.3,7.07,61.77,61.77,0,0,1-6.68,5.75,46.24,46.24,0,0,1-7.5,4.7,39,39,0,0,1-17.09,4.16,67.55,67.55,0,0,1-17.41-2.31c2.88.54,5.76,1,8.67,1.24a68.69,68.69,0,0,0,8.72.3,39.8,39.8,0,0,0,8.57-1.21A42.59,42.59,0,0,0,142,174a45.88,45.88,0,0,0,7.39-4.53,74.62,74.62,0,0,0,6.69-5.58,30.68,30.68,0,0,0,5.42-6.75A21.92,21.92,0,0,0,164.28,149Z"/><path class="cls-10" d="M131.15,143.94a5,5,0,0,1,.25-3.15c.32-1.08,1-3.38,3.09-4.42a4.15,4.15,0,0,1,2.34-.5,6.07,6.07,0,0,1,2.29.79,8.69,8.69,0,0,1,4.28,6.25,3.36,3.36,0,0,1,0,1.05,2.69,2.69,0,0,1-.35.86,5.13,5.13,0,0,1-3.2,2.33,8,8,0,0,1-2.17.17,8.34,8.34,0,0,1-3.71-.6A5,5,0,0,1,131.15,143.94Z"/><path class="cls-10" d="M164.9,143.3c-.05-.24-.1-.49-.16-.73l-.8.58c-.3.21-.59.39-.84.55s-.72.45-1,.6c0,0-11.3,2.64-15.91-7.35a22.9,22.9,0,0,1-1.3-7.33h0V129a.45.45,0,0,1,0-.11,18.88,18.88,0,0,1,5.29-13,0,0,0,0,0,0,0c.31-.32.63-.63.95-.91a.07.07,0,0,1,.05,0c.4-.37.8-.7,1.21-1a3.43,3.43,0,0,1,.33-.24,19.43,19.43,0,0,1,2.25-1.44l.69-.36a27.31,27.31,0,0,0-6.72,2.68c-.81.46-1.55.93-2.22,1.4a28.39,28.39,0,0,0-3.29,2.7,15.26,15.26,0,0,0-5.56-2,16,16,0,0,0-10.28,2,7.42,7.42,0,0,0-.54-1.12c-2.14-3.54-6.4-4.53-9.33-5.15,0,0-2-.43-5.7-.85-2-.24-4.59-.47-7.6-.63h0l-1-.05h-.29a151.43,151.43,0,0,0-16.46.16c-2.31.14-4.73.34-7.24.6a2.4,2.4,0,0,0-.55.12c-.55-.07-1.12-.12-1.68-.17l-1.5-.08a13.65,13.65,0,0,1-1.53,4.36q-.16.48-.36.93c-.1.24-.21.47-.33.7a13,13,0,0,1-.93,1.62,15,15,0,0,0,3.83,1.15,2,2,0,0,0,1.26-.25c1,1.25,2.48,1,3.61,2.87.27.45.56,1.1.83,3.92.33,3.42.11,4.67.26,6.35A18.52,18.52,0,0,0,85,140.18c4.64,7.74,22,12.7,32.9,5.38a22.76,22.76,0,0,0,6.72-7.45,27.8,27.8,0,0,0,4-12.92,16.12,16.12,0,0,1,9.66-2.75,4.43,4.43,0,0,1,2.62.79,4.07,4.07,0,0,1,1.35,3.11s0,0,0,0a33.22,33.22,0,0,1-.06,3.42c0,.66,0,1.34,0,2,.25,5,3.19,10.91,7.86,13.64a15.74,15.74,0,0,0,13.38.74c.31-.12.62-.24.91-.38s.61-.28.9-.43C165.12,144.68,165,144,164.9,143.3Zm-49.8-28.25.84.29c4.88,1.77,8,2.94,9.45,6.14a8.44,8.44,0,0,1,.71,2.44,12,12,0,0,1-.51,5.12,39.68,39.68,0,0,1-1.82,5.39,37,37,0,0,1-2.59,5c-4,6.14-21.88,9.35-31,1.26a18.25,18.25,0,0,1-4.08-5.32,16.36,16.36,0,0,1-1.65-7.12c0-.63,0-1.25,0-1.87,0-.86.07-1.72.13-2.6.27-4.41.44-7.09,2.45-8.94,1.62-1.49,3.66-1.72,6.42-1.84C101.35,112.65,107.29,112.38,115.1,115.05Z"/><path class="cls-10" d="M166.55,109.87c-.46,0-.94,0-1.43,0a32.08,32.08,0,0,0-6.66.87,20.07,20.07,0,0,0-2.76,1.15,33.43,33.43,0,0,1,9.06-1q.75,0,1.44.06c1.45.07,2.71.21,3.73.32,1.19.13,2.6.33,4.19.66C172.49,110.74,169.85,110,166.55,109.87Z"/><path class="cls-10" d="M124.43,111.53c-1.33-7.84-24.54-14.76-35.33-6.07A15.28,15.28,0,0,0,85.93,109c3.32.58,6.71-.24,10.08-.39,1.45-.06,2.64,0,4,.05,8.34.3,15.64,2.3,23.27,4.44l1.08.3A4.65,4.65,0,0,0,124.43,111.53Z"/><path class="cls-10" d="M145.64,108.66a14.58,14.58,0,0,1,21.58,1.93c-1.72-1.12-4-.8-5.91,0s-3.62,2-5.57,2.62c-1.67.53-3.45.63-5.12,1.18s-6,3.33-7.45,1C141.84,113.23,144.2,110,145.64,108.66Z"/><path class="cls-11" d="M133,146a1.73,1.73,0,0,1-.07-.89,1.38,1.38,0,0,1,.27-.61,1.75,1.75,0,0,1,2.16,0,2,2,0,0,1,.57.7,2.66,2.66,0,0,1,.28.82,1,1,0,0,1-.3.77.89.89,0,0,1-.58.15C134.86,146.93,133.41,146.91,133,146Z"/><path class="cls-12" d="M142.17,157.92a11.36,11.36,0,0,1-1.84.29h-.15l-.63-.06a6.85,6.85,0,0,0-2.55.05,7.64,7.64,0,0,0-.8.29,3.51,3.51,0,0,1-1.06.31,5.54,5.54,0,0,1-2-.36,10.46,10.46,0,0,0-1.31-.35,10.18,10.18,0,0,0-3.65,0l-.8.17c-.35.08-.7.16-1,.21a13.5,13.5,0,0,1-1.92.09c-.37,0-.75,0-1.12,0l.15,0,.15,0a14.05,14.05,0,0,0,2.78-.93c2.5-1.15,5.72-3.55,7.34-3l.49.18a16.26,16.26,0,0,0,2,.67c1,.15,1.1-.54,2.26-.52a3.36,3.36,0,0,1,2.14.85c.11.1.42.54,1.06,1.42Z"/><path class="cls-13" d="M139.82,159.17l-2,4c-.17.33-.47.73-.84.65a5.57,5.57,0,0,1-3.54,1.45A8.74,8.74,0,0,1,129,165a6.62,6.62,0,0,1-1.75-1.08,7.37,7.37,0,0,1-1.38-1.41c-.42-.58-.73-1.23-1.15-1.8a2.64,2.64,0,0,0-1.73-1.16c-.07-.06-.08-.1-.08-.13a12.77,12.77,0,0,0,1.52.11,14.35,14.35,0,0,0,2.06-.1c.38-.05.76-.14,1.13-.22s.51-.12.76-.16a8.93,8.93,0,0,1,3.3,0,11.63,11.63,0,0,1,1.19.31,7,7,0,0,0,2.1.42h.25a4.54,4.54,0,0,0,1.37-.38,5.69,5.69,0,0,1,.69-.25,6.16,6.16,0,0,1,2.19,0Z"/><g class="cls-14"><path class="cls-15" d="M125.81,163.27c.4.39,3.88,3.66,8.23,2.76a8.1,8.1,0,0,0,3.31-1.56,4.14,4.14,0,0,1-1.13,1.88c-1.92,1.77-5.3.93-7.15,0A8.56,8.56,0,0,1,125.81,163.27Z"/></g><path class="cls-11" d="M142.1,140a4.1,4.1,0,0,1,1.14,2.16,4.59,4.59,0,0,1-.19,2.53,4,4,0,0,1-1.62,2,3.65,3.65,0,0,1-2.41.56A7.36,7.36,0,0,0,141.2,145,7.68,7.68,0,0,0,142.1,140Z"/><path class="cls-16" d="M143.61,158.05c-.26.88-2.1,1.23-3.34,1.16l-.45,0-.37,0a6.16,6.16,0,0,0-2.19,0,5.69,5.69,0,0,0-.69.25,4.54,4.54,0,0,1-1.37.38H135a7,7,0,0,1-2.1-.42,11.63,11.63,0,0,0-1.19-.31,8.93,8.93,0,0,0-3.3,0c-.25,0-.51.1-.76.16s-.75.17-1.13.22a14.35,14.35,0,0,1-2.06.1,12.77,12.77,0,0,1-1.52-.11l-.94-.1c-1.58-.19-2-.29-2.26-.66a1.21,1.21,0,0,1-.22-.84s.09-.58.46-.71a.6.6,0,0,1,.68.17,2.66,2.66,0,0,0,1.59,1.07,6.39,6.39,0,0,0,1.08.16h0c.37,0,.75,0,1.12,0a13.5,13.5,0,0,0,1.92-.09c.35-.05.7-.13,1-.21l.8-.17a10.18,10.18,0,0,1,3.65,0,10.46,10.46,0,0,1,1.31.35,5.54,5.54,0,0,0,2,.36,3.51,3.51,0,0,0,1.06-.31,7.64,7.64,0,0,1,.8-.29,6.85,6.85,0,0,1,2.55-.05c.53.05.54.07.78.07a3,3,0,0,0,1.68-.45c.28-.19.31-.32.6-.42.06,0,.6-.23.87,0A.71.71,0,0,1,143.61,158.05Z"/><path class="cls-17" d="M186.57,266.83,182.18,295l-1.59.09-42.13,2.4-2.83-26.3-.79-4.94-4.71-29.52-4.32-18.65c-3.41-8.79-3.32-15.25-2.52-19.65.42-2.33.88-3.73.68-6-.56-6.41-6-11.19-10.8-14.31a70.21,70.21,0,0,1,8.29,2.07c8.24,2.59,14.61,4.59,18.35,10,1.07,1.53,4.12,6.47,2.77,15.26.35.93.71,1.85,1.06,2.77a12.13,12.13,0,0,0,2.18-2.44c4.5,7.17,21.94,35.63,21.94,45.64,0,0,7.16,1.5,8,6.66C175.75,258,185.08,262,186.57,266.83Z"/><path class="cls-18" d="M180.59,295.06l-42.13,2.4-2.83-26.3-.79-4.94a17.47,17.47,0,0,0,8.35-3,16.26,16.26,0,0,0,6.49-12.82c2.16,5.19,4.63,10.75,9.5,13.56a6.83,6.83,0,0,0,4.37,9.17c-2.14,1.21-2.72,4.28-1.66,6.51a8.77,8.77,0,0,0,5.73,4.31,14.07,14.07,0,0,0,11.88-2.14A58.81,58.81,0,0,1,180.59,295.06Z"/><path class="cls-1" d="M160.38,295.83c-4.18-1.12-6.06-2.33-7.25-3.4-1.8-1.62-1.78-6.09-1.74-15,0-2.37.15-5.59.52-9.38.15-1.54.35-3.06.65-4.57s.67-3.05.94-4.65a25.06,25.06,0,0,0-.43-9.73,49.65,49.65,0,0,0-3.21-9c-1.28-2.9-2.68-5.7-3.89-8.58a40.2,40.2,0,0,1-2.8-8.94,34.81,34.81,0,0,0,1.89,9.28c1,3,2.23,5.93,3.37,8.84a54.76,54.76,0,0,1,2.79,8.83,23.4,23.4,0,0,1,.3,9c-.23,1.5-.58,3-.88,4.6-.37,2-.46,3.37-.62,4.78-.22,2-.5,4-1.07,8.08,0,0-1.59,5.61-1.28,21.45a.73.73,0,0,0,.16.53.68.68,0,0,0,.44.11c5,.08,10-1.51,15-1.17A11,11,0,0,0,160.38,295.83Z"/><path class="cls-16" d="M139.67,158.82l.6.38a9.6,9.6,0,0,1-1.85,4.05,10.23,10.23,0,0,1-1.57,1.57A7.74,7.74,0,0,1,135,166a6.58,6.58,0,0,1-4.48-.11,8.47,8.47,0,0,1-3.61-2.28,8.89,8.89,0,0,0,3.84,1.54,8,8,0,0,0,5.57-1.12,7.88,7.88,0,0,0,2.62-3A8.57,8.57,0,0,0,139.67,158.82Z"/><path class="cls-3" d="M107.94,176.77c-15.63-3.57-28.16-11.13-33.35-14.26A58.58,58.58,0,0,1,69,158.72c-.22-.16-.43-.32-.65-.5a43.7,43.7,0,0,1-3.94-3.49,73.57,73.57,0,0,1,1.93-20.48c4,10.6,9,18.91,13.89,24.27A77.32,77.32,0,0,0,92.41,169.1,66.41,66.41,0,0,0,107.94,176.77Z"/><path class="cls-19" d="M115.88,124.89c0,6.35-4.74,11.49-10.58,11.49a8.51,8.51,0,0,1-1.14-.07c-5.32-.61-9.45-5.49-9.45-11.42s4.13-10.81,9.45-11.42a8.51,8.51,0,0,1,1.14-.07C111.14,113.4,115.88,118.54,115.88,124.89Z"/><path class="cls-1" d="M181,67.82a69.75,69.75,0,0,1,4.83,9.62,89.1,89.1,0,0,1,3.57,10.19A90.07,90.07,0,0,1,192.69,109a83.44,83.44,0,0,1-5.35,32,83,83,0,0,1-4.45,9.91l0,0,0,.06a74,74,0,0,0-6.45,12.44,49.27,49.27,0,0,0-3.55,13.48,29.49,29.49,0,0,0,0,6.9c.08.57.2,1.14.29,1.7s.27,1.12.43,1.66l.27.81.13.4c0,.08,0,.11.07.16l.1.19a14.26,14.26,0,0,0,.87,1.45,14.85,14.85,0,0,0,2.2,2.6,10.85,10.85,0,0,0,2.79,1.83,8.23,8.23,0,0,0,6.5-.31L187,194l.15.45a5.76,5.76,0,0,1-.41,4.85,6.79,6.79,0,0,1-4,2.58,18.39,18.39,0,0,1-4.67.42,42.3,42.3,0,0,1-4.64-.41,42.3,42.3,0,0,0,4.64.13,18.68,18.68,0,0,0,4.54-.62,6.17,6.17,0,0,0,3.55-2.47,5,5,0,0,0,.17-4.13l.62.23a9,9,0,0,1-7.31.54,11.62,11.62,0,0,1-3.19-2,16.16,16.16,0,0,1-2.47-2.76,15.89,15.89,0,0,1-1-1.56l-.12-.21a2.35,2.35,0,0,1-.11-.24l-.16-.44-.32-.88c-.19-.59-.34-1.18-.51-1.77s-.26-1.2-.36-1.8a29.68,29.68,0,0,1-.22-7.29,51.34,51.34,0,0,1,3.54-14,76.1,76.1,0,0,1,6.53-12.85l-.05.09a90.3,90.3,0,0,0,7.55-19.83A84.52,84.52,0,0,0,191.09,109,94.44,94.44,0,0,0,181,67.82Z"/><path class="cls-1" d="M2,162.29a17.59,17.59,0,0,0,8.27-1.06,13.47,13.47,0,0,0,6.24-5.33L17,155l.43-1a12.37,12.37,0,0,0,.78-1.93l.6-2,.38-2.06c.06-.34.14-.68.18-1l.08-1,.17-2.09c0-1.4,0-2.8,0-4.19v0l-3.51-23.69-1.73-11.84a102.83,102.83,0,0,1-1.06-12,121.53,121.53,0,0,1,1.43-24,95.17,95.17,0,0,1,6.63-23.17,74.25,74.25,0,0,1,13-20.35A66.38,66.38,0,0,1,53.62,10.06,88.15,88.15,0,0,1,76.5,2.37l6-1,6-.6c1-.09,2-.21,3-.28l3-.09,6-.18h-.08a91.09,91.09,0,0,1,16.52.45A76.9,76.9,0,0,1,133,4.28a62.33,62.33,0,0,1,7.61,3.28,49.61,49.61,0,0,1,7,4.5,41.22,41.22,0,0,1,6,5.78,40.17,40.17,0,0,1,4.56,6.92l-.35-.28a27.61,27.61,0,0,1,10.85,6.93A37.23,37.23,0,0,1,175.87,42l1.28,2.93,1,3,.5,1.52L179,51l.69,3.12c.36,2.1.56,4.22.83,6.32l.26,6.37-.44-6.35c-.32-2.09-.6-4.2-1-6.27l-.75-3.09-.38-1.54-.51-1.49-1.05-3-1.32-2.88A36.7,36.7,0,0,0,168,32a27.48,27.48,0,0,0-10.51-6.49l-.24-.08-.11-.21a39.49,39.49,0,0,0-4.51-6.65,39.64,39.64,0,0,0-5.84-5.52A48.1,48.1,0,0,0,140,8.82a59.1,59.1,0,0,0-7.45-3.1,78,78,0,0,0-15.81-3.39A88.13,88.13,0,0,0,100.57,2h-.09l-5.94.2-3,.1c-1,.07-2,.2-3,.29l-5.91.62-5.84,1a86.26,86.26,0,0,0-22.33,7.6A66.26,66.26,0,0,0,35.82,26,72,72,0,0,0,23.1,45.78,93.17,93.17,0,0,0,16.49,68.5a126.88,126.88,0,0,0-1.65,23.69,101.72,101.72,0,0,0,.9,11.85l1.58,11.87,3.12,23.75v0h0c0,1.42,0,2.84-.09,4.26l-.21,2.12L20,147.14c-.05.35-.14.7-.21,1.05l-.43,2.09-.66,2a12.15,12.15,0,0,1-.84,2l-.46,1-.59.89a13.6,13.6,0,0,1-6.52,5.32A17.87,17.87,0,0,1,2,162.29Z"/><path class="cls-1" d="M167.39,62.39a34.5,34.5,0,0,1-2,7.82,38.06,38.06,0,0,1-3.67,7.26,42.55,42.55,0,0,1-11.21,11.8A55.44,55.44,0,0,1,135.9,96.6c-1.3.42-2.59.87-3.9,1.23l-4,.92a39.1,39.1,0,0,1-4,.75l-4,.6h-.12l-8.65-.11-8.66-.18c-2.88-.07-5.77-.16-8.65-.27s-5.77-.2-8.66-.36c2.89-.15,5.77-.24,8.66-.35s5.77-.2,8.65-.27l8.66-.18,8.65-.11h-.11a86.47,86.47,0,0,0,15.48-3.55,58.33,58.33,0,0,0,14.2-6.9l3.16-2.37c1-.88,2-1.73,2.95-2.63a46.81,46.81,0,0,0,5.15-6A41.22,41.22,0,0,0,167.39,62.39Z"/><path class="cls-1" d="M148.4,191.7a20.86,20.86,0,0,1-.29,10.14,13.05,13.05,0,0,1-6.5,7.78l-.87.46.35-1A23.56,23.56,0,0,0,142.35,198a16.19,16.19,0,0,0-1.7-5.31,15.89,15.89,0,0,0-3.36-4.41,17.35,17.35,0,0,0-4.64-3,19.54,19.54,0,0,0-2.63-1l-2.76-.86-11.05-3.47-2.83-.88,2.87-.77,2.33-.62.13,0h.16l4.25.21c1.42,0,2.83,0,4.22-.11a35.51,35.51,0,0,0,8.24-1.57,44.83,44.83,0,0,0,14.74-8,59.61,59.61,0,0,0,6.31-5.63,27.4,27.4,0,0,0,4.8-6.75,20,20,0,0,0,2-7.91,21,21,0,0,0-.75-6.11c-.19-.67-.36-1.42-.53-2.13a36.92,36.92,0,0,1-.92-8.75,55,55,0,0,1,.74-8.7,73.87,73.87,0,0,1,1.94-8.48c.39-1.4.85-2.77,1.32-4.15.24-.67.51-1.37.76-2l.7-2a54.35,54.35,0,0,0,1.92-8.28,67.12,67.12,0,0,0,.63-8.51,73.93,73.93,0,0,0-1.83-17v0l.19-8.9.19,8.9v0a74.56,74.56,0,0,1,2.41,17.1,62.88,62.88,0,0,1-.44,8.67,55.42,55.42,0,0,1-1.8,8.52l-.68,2.08-.7,2c-.44,1.35-.86,2.71-1.22,4.09a74.31,74.31,0,0,0-1.72,8.34,54.45,54.45,0,0,0-.66,8.44,35.26,35.26,0,0,0,.93,8.34c.18.68.31,1.33.52,2.05a19.73,19.73,0,0,1,.51,2.18,21.13,21.13,0,0,1-1.76,13.16c-2.61,5.43-7.05,9.6-11.62,13.09a46.6,46.6,0,0,1-15.4,8.24,37,37,0,0,1-8.66,1.59c-1.47.1-2.93.12-4.38.08l-4.36-.24.29,0-2.33.6,0-1.65c3.67,1.18,7.34,2.4,11,3.63l2.75.91a21.56,21.56,0,0,1,2.77,1.1,18.58,18.58,0,0,1,4.93,3.39,17.6,17.6,0,0,1,5.24,10.53,23.56,23.56,0,0,1-1.64,11.6l-.52-.48a12.46,12.46,0,0,0,6.45-7.25A21.25,21.25,0,0,0,148.4,191.7Z"/><path class="cls-1" d="M173,202.48a31.3,31.3,0,0,1,1.88,6.3,20.63,20.63,0,0,1,.24,6.61,11.48,11.48,0,0,1-2.65,6.13,11.16,11.16,0,0,1-2.64,2.15,14.94,14.94,0,0,1-3.11,1.33l-.93.29.38-.91a14.64,14.64,0,0,0,1-9.68,10.53,10.53,0,0,0-2.49-4.18,39.62,39.62,0,0,0-3.8-3.34,45.22,45.22,0,0,1-7.33-7.24,38.11,38.11,0,0,1-5.19-8.86,43,43,0,0,0,5.62,8.51,42,42,0,0,0,3.52,3.66c1.25,1.15,2.59,2.19,3.92,3.26a40.14,40.14,0,0,1,3.93,3.38,11.6,11.6,0,0,1,2.75,4.53,12.07,12.07,0,0,1,.39,5.27,19.68,19.68,0,0,1-1.43,5l-.56-.62a14.43,14.43,0,0,0,2.93-1.2A10.52,10.52,0,0,0,171.8,221a10.92,10.92,0,0,0,2.64-5.67,21.79,21.79,0,0,0,0-6.45A35.16,35.16,0,0,0,173,202.48Z"/><path class="cls-20" d="M105.3,135.28a9.57,9.57,0,0,1-1.11-.07c-4.91-.56-8.64-5-8.64-10.32h4.5a5.65,5.65,0,0,0,4.7,5.85,3.74,3.74,0,0,0,.55,0c2.89,0,5.25-2.64,5.25-5.89a6.23,6.23,0,0,0-1.13-3.64l3.69-2.59a10.77,10.77,0,0,1,1.94,6.23C115.05,130.62,110.67,135.28,105.3,135.28Z"/><path class="cls-1" d="M273.67,300.15l-1.77,2.72,7,.39a15.47,15.47,0,0,1-6.63,5.23c-5.29,2.17-11.29,1.24-17,1.94-7.71,1-15.31,5-22.87,3.22-19-4.44-38.24,7.05-57.6,4.81-11.69-1.36-23.37,1.59-35,3.24s-23.79,2.7-35-.91c-13.53-4.36-28.32.65-42.53.34-7.83-.17-15.82-.37-23.17-3.08-4.48-1.65-8.58-4.18-12.93-6.16S17,308.48,12.3,309.24c-.92-1.16,0-3,1.29-3.66A10,10,0,0,1,18,305c5.47-.08,10.68-2.39,16.12-2.92,4.46-.44,9,.32,13.44,0a46.29,46.29,0,0,0,8.42-1.5c5.7-1.39,18.61-2.8,48.32-3.41-.26-2.34,1.55-4.1,3.1-4s3.08,1.83,2.78,4.06c0-6.71,4.13-12.41,9.54-13.89,7-1.92,15.57,3.29,17.1,12.32,53.76-1.32,85.27-2.71,97.86-4.23a59.77,59.77,0,0,1,16.23.06c7.14,1,13.85,3.87,20.46,6.73C273.06,298.93,273.31,298.3,273.67,300.15Z"/><path class="cls-21" d="M77.15,303.29l96.59-14.53-17.61,23.69Z"/><path class="cls-22" d="M77.15,304.29l96.59-14.53-17.61,23.69Z"/><path class="cls-1" d="M315.54,211.34l-.05.15-32.7,77.37-1.37,3.22c-.4,1.93-3.43,11-25.15,13.68l-97.36,11.9L154.47,310l1.66-4.16h0l3.9-9.76,30.89-77.19c.35-1.2,3.89-12.08,13.88-12.08H205l101-4.88a12.76,12.76,0,0,1,2.38-.21c2.8,0,4.95.86,6.23,2.48S316.28,208.29,315.54,211.34Z"/><path class="cls-23" d="M314.08,211l-32.67,77.3L280,291.65s-1.28,9.79-23.9,12.62l-96.37,11.78-3-5.09-.63-1.09,36.21-90.49s3.23-11.23,12.64-11.09l101.2-4.89S316.46,201.25,314.08,211Z"/><path class="cls-24" d="M158.13,311.88c2.75-7.65,5.64-15.25,8.46-22.86s5.75-15.2,8.66-22.79l8.81-22.72L193,220.84l-.05.14a22,22,0,0,1,3.77-7.07,13.83,13.83,0,0,1,6.79-4.66l1-.22.52-.11.52,0,2-.11,3.72-.17,7.45-.34c9.93-.48,19.86-.89,29.79-1.29s19.87-.75,29.81-1.08,19.87-.58,29.82-.82h-.08a5.84,5.84,0,0,1,3.05,0,3.37,3.37,0,0,1,2.18,2.06,5.62,5.62,0,0,1,.33,1.46,14.38,14.38,0,0,1,0,1.47c-.08.49-.1,1-.22,1.45l-.33,1.42.24-1.44a13.75,13.75,0,0,0,.12-1.44,13.56,13.56,0,0,0-.06-1.43,5.54,5.54,0,0,0-.4-1.35,3,3,0,0,0-2-1.69,5.19,5.19,0,0,0-2.71.09h-.08c-9.92.72-19.85,1.44-29.78,2.06s-19.86,1.25-29.8,1.8-19.87,1.11-29.81,1.59l-7.45.38-3.73.19-1.73.1-.41,0-.39.09-.79.16c-4.14,1.13-7.15,5.41-8.56,9.66l0,.11v0l-9.18,22.57L177.22,267c-3.13,7.49-6.25,15-9.45,22.46S161.41,304.44,158.13,311.88Z"/><path class="cls-25" d="M281.41,288.28,280,291.65s-1.28,9.79-23.9,12.62l-96.37,11.78-3-5.09a10.81,10.81,0,0,1,2.89-.26c5.48.11,11,.39,16.42-.41,10.42-1.52,20.28-5.32,30.68-6.89,9.92-1.49,14.18-2.26,23.92-3.62A321.23,321.23,0,0,0,281.41,288.28Z"/><path class="cls-23" d="M78.32,304.24l77.81,5.64,3.58,6.17L82,310.15s-4.62.1-5.36-3.15C76.64,307,75.59,303.69,78.32,304.24Z"/><ellipse class="cls-26" cx="242.04" cy="256.02" rx="10.6" ry="7.3" transform="matrix(0.58, -0.82, 0.82, 0.58, -106.82, 305.28)"/><polygon class="cls-21" points="160.04 296.06 156.14 305.82 156.13 305.83 112.59 302.96 160.04 296.06"/><g class="cls-27"><rect class="cls-28" x="132.43" y="297.02" width="1.26" height="8.65" rx="0.63" transform="translate(422.12 143.36) rotate(85.17)"/><rect class="cls-28" x="144.2" y="297.05" width="1.26" height="6.12" rx="0.63" transform="translate(431.67 130.5) rotate(85.17)"/><rect class="cls-28" x="144.27" y="296.62" width="1.26" height="8.65" rx="0.63" transform="translate(432.57 131.2) rotate(85.17)"/><rect class="cls-28" x="146.32" y="302.57" width="1.26" height="2.07" rx="0.63" transform="translate(437.09 131.59) rotate(85.17)"/><rect class="cls-28" x="153.7" y="300.22" width="1.26" height="5.62" rx="0.63" transform="translate(443.28 123.71) rotate(85.17)"/><rect class="cls-28" x="150.06" y="297.25" width="1.26" height="3.67" rx="0.63" transform="translate(436.01 123.72) rotate(85.17)"/><rect class="cls-28" x="155.04" y="296.2" width="1.26" height="4.92" rx="0.63" transform="translate(440.15 118.38) rotate(85.17)"/></g><g class="cls-29"><path class="cls-30" d="M105.3,134.62a8.57,8.57,0,0,1-1-.06,9.29,9.29,0,0,1-7.7-6.83l3.85-1.1a5.29,5.29,0,0,0,4.35,4l.54,0a5.19,5.19,0,0,0,4.88-4l3.85,1.1A9.17,9.17,0,0,1,105.3,134.62Z"/></g><path class="cls-31" d="M104.16,136.31a13.24,13.24,0,0,1-1.42.07c-7.27,0-13.15-5.14-13.15-11.49s5.88-11.49,13.15-11.49a13.24,13.24,0,0,1,1.42.07,10.6,10.6,0,0,0-8.2,6h3.36a1.8,1.8,0,0,1,0,3.59H94.85a12.32,12.32,0,0,0-.14,1.83C94.71,130.82,98.84,135.7,104.16,136.31Z"/><ellipse class="cls-31" cx="152.84" cy="125.23" rx="10.4" ry="8.09" transform="translate(-3.52 246.04) rotate(-77.02)"/><ellipse class="cls-31" cx="105.3" cy="124.46" rx="3.94" ry="4.71"/><path class="cls-32" d="M84.06,128.48a7.41,7.41,0,0,1,2-.87,2.54,2.54,0,0,1,2,.31,4.62,4.62,0,0,1,1.16,1.61,11.57,11.57,0,0,0,5.51,5c-4.51-4.27-5.78-10.41-3.44-14.85,2.77-5.29,9.37-5.75,10.53-5.8,6.35-.29,12.58,4,15.9,10.93-.15-2.86-.93-9.91-6-13.55-4-2.87-6.59-.63-19.45-1.64a8.84,8.84,0,0,0-4.53.76A7.79,7.79,0,0,0,83.86,115a14.5,14.5,0,0,0-.51,6.08c.2,2,.65,4,1,6.07A2.54,2.54,0,0,1,84.06,128.48Z"/><ellipse class="cls-33" cx="151.55" cy="124.81" rx="10.28" ry="6.75" transform="translate(-4.1 244.46) rotate(-77.02)"/><path class="cls-20" d="M151,133.59a4.64,4.64,0,0,1-2.43-.39c-2.26-1.06-3.53-4.06-3.27-7.62l4,.14c-.06,1.8.62,3.08,1.28,3.23.83.19,2.42-1.14,3-3.67a6.94,6.94,0,0,0,.18-1.27l2.54-4.28a10.1,10.1,0,0,1,1.18,6.45C156.93,129.52,154.37,133.27,151,133.59Z"/><path class="cls-30" d="M151,132.76a4.44,4.44,0,0,1-1-.12,5.35,5.35,0,0,1-3.8-4.07l3.38-.91c.23.86.68,1.45,1.21,1.57,1,.23,2.43-1.12,2.92-3.25l3.41.78C156.28,130.32,153.72,132.76,151,132.76Z"/><path class="cls-17" d="M93.57,304.64a6.54,6.54,0,0,1-3.93,1.3H84.87l1.32-1h5.45A7.37,7.37,0,0,0,93.57,304.64Z"/><path class="cls-17" d="M84.19,305.94h.68l-2.41,1.83-.55-.1Z"/><path class="cls-17" d="M111,278.25l-8.8,17.41-.34.67-4.29,2.78-1.57,1a6.28,6.28,0,0,1-6.31,5.81H84.19l-3.73,2.83S61.68,305,48,307.46c0,0-32.31-1.1-25.47-47l5.44-36.29.3-2,.19-3.51a12.53,12.53,0,0,1-1.27-1.42c-3.21-4.08-10.2-16.67,7.57-33.88,0,0-4.41-12.74,8.51-16.24l4,2.55,22.93,14.64c.25,8.64,2.42,8.77,9.26,12.65,12.58,7.15,22.23,23,22.23,37.34a86.51,86.51,0,0,1,8.7,24.19A57.57,57.57,0,0,1,111,278.25Z"/><path class="cls-18" d="M97.52,299.11l-1.57,1a6.28,6.28,0,0,1-6.31,5.81H84.19l-3.73,2.83S61.68,305,48,307.46c0,0-32.31-1.1-25.47-47l5.44-36.29.3-2,.19-3.51a12.53,12.53,0,0,1-1.27-1.42c-3.21-4.08-10.2-16.67,7.57-33.88,0,0-4.41-12.74,8.51-16.24l4,2.55c.24,6.82,5.46,13,10.33,17.18C62,190.65,68,192.94,63.82,199c-3.25,4.72-9.58,6.05-11.09,12.32-.9,3.73.51,7.92-1.17,11.38-2.11,4.34-8.5,6.21-8.87,11-.36,4.63,5.45,8.92,3.33,13.05-.88,1.71-2.83,2.54-4.16,3.92-2.84,3-2.33,7.74-1.09,11.64s3,7.94,2.16,11.95c-.77,3.53-3.56,6.54-3.56,10.16,0,5.39,6.42,8.74,11.78,8.17s10.08-3.64,15.13-5.51c2.71-1,6.31-1.44,8,.9.85,1.16.95,2.69,1.4,4.06,1.34,4,5.75,6.36,10,6.95C89.59,299.6,93.57,299,97.52,299.11Z"/><path class="cls-34" d="M81.91,307.67l-1.45,1.1S61.68,305,48,307.46c0,0-32.31-1.1-25.47-47l5.44-36.29.3-2,.19-3.51a12.53,12.53,0,0,1-1.27-1.42c-3.21-4.08-10.2-16.67,7.57-33.88,0,0-3.93-11.34,6.48-15.56-7.87,4.77-4.48,14.56-4.48,14.56-17.77,17.21-10.78,29.8-7.57,33.88a12.53,12.53,0,0,0,1.27,1.42l-.19,3.51-.3,2-5.44,36.29c-6.84,45.89,25.47,47,25.47,47C62.3,304.27,78.73,307.08,81.91,307.67Z"/><ellipse class="cls-35" cx="148.68" cy="123.55" rx="1.86" ry="1.55" transform="translate(-5.11 240.68) rotate(-77.02)"/><path class="cls-32" d="M169.77,117.17a8.83,8.83,0,0,1-2.5-.72c-2.2-1-2.64-2.32-4.16-3.39-2.46-1.74-5.62-1.41-7.2-1a21.23,21.23,0,0,0-6.74,3.17,9.59,9.59,0,0,1,7.79,1.51,8.59,8.59,0,0,1,2.69,3.66c1.36,3.39.28,6.61-.4,8.65a18,18,0,0,1-3.51,6.08,18.14,18.14,0,0,0,3.29-2.75c2.86-3,3.29-5.59,5.4-9A25.89,25.89,0,0,1,169.77,117.17Z"/><path class="cls-8" d="M169.93,109.3c-.86-.1-1.9-.21-3.08-.28l-.7,0-.36,0-.34,0A30.54,30.54,0,0,0,149,112.56a26.8,26.8,0,0,0-4.9,3.54l-.61.57a15.25,15.25,0,0,0-5.56-2,16.05,16.05,0,0,0-10.28,2,6.54,6.54,0,0,0-.54-1.12,8.57,8.57,0,0,0-2.62-2.7,18.84,18.84,0,0,0-6.7-2.45,99.77,99.77,0,0,0-14.57-1.54c-2.57-.12-5.44-.18-8.58-.14h0c-2.61,0-5.41.13-8.37.33q-3.27.19-6.81.57a2.24,2.24,0,0,0-.54.12l-.46,0-1.23,1.88-3.39,5.21-.44.66.11,0a12.81,12.81,0,0,0,2.9.77,2,2,0,0,0,1.26-.25c1,1.25,2.48,1,3.61,2.87.27.45.56,1.1.83,3.92.33,3.42.11,4.67.27,6.35A18.26,18.26,0,0,0,85,138.18c4.64,7.75,22,12.7,32.89,5.38a22.76,22.76,0,0,0,6.72-7.45,27.68,27.68,0,0,0,4-12.92,16.12,16.12,0,0,1,9.66-2.75,4.43,4.43,0,0,1,2.62.79c1.39,1.1,1.44,3,1.35,5.11,0,0,0,0,0,0,0,1.11-.12,2.28-.06,3.42.24,5,3.18,10.92,7.85,13.64,4.12,2.4,9.08,2,13.15.58a9.4,9.4,0,0,0,.88-.34,8.47,8.47,0,0,0,.87-.38,17.58,17.58,0,0,0,2.51-1.39,15.68,15.68,0,0,0,5.26-5.52c.61-1.11,1.32-4,2.71-9.65.75-3.08,1.33-5.52,3.49-7.09a6.86,6.86,0,0,1,1.68-.88c.07-2.3.14-4.61.2-6.91A45.4,45.4,0,0,0,169.93,109.3ZM126.1,123.92a23.63,23.63,0,0,1-8.1,15.66c-8.54,6.64-21.36,4.89-27.85-.86a18.44,18.44,0,0,1-4.09-5.32,17,17,0,0,1-1.65-7c0-1.52,0-3,.14-4.6.27-4.41.43-7.09,2.44-8.94,1.63-1.49,3.66-1.72,6.42-1.84,3.51-.17,6.63-.31,9.7-.19h.29l1,.05h0a40.4,40.4,0,0,1,8.59,1.5c.93.27,1.9.58,2.89.94,4.88,1.77,8,2.94,9.45,6.14A8.61,8.61,0,0,1,126.1,123.92Zm38.41,17.72a5.81,5.81,0,0,1-.86.3c-.28.09-.58.17-.88.24l-.64.12s-11.3,2.64-15.91-7.35a27,27,0,0,1-1.11-4.6.08.08,0,0,1,0,0q-.09-.54-.15-1.11v0l0-.25a21.82,21.82,0,0,1,.09-5.75s0,0,0-.06a11.46,11.46,0,0,1,5-8.1,12.14,12.14,0,0,1,1.79-1c.31-.13.62-.26,1-.37a17.46,17.46,0,0,1,4.07-.91c.51-.06,1-.1,1.58-.13l3.62-.2,2.29-.13.74,0,.76,0,2.19-.12s6.58-.93,6.74,5.11C174.75,117.21,175.57,137.28,164.51,141.64Z"/><path class="cls-7" d="M77.18,111.55l-3.39,5.21q.19-.45.36-.93a13.65,13.65,0,0,0,1.53-4.36Z"/><path class="cls-7" d="M78.41,109.67l-1.23,1.88-1.5-.08a13.65,13.65,0,0,1-1.53,4.36q-.16.48-.36.93l-.44.66c-2.14-.81-4.18-2-6.26-2.84a26,26,0,0,0-6.49-1.65,1.77,1.77,0,0,1-1.31-.54,1.82,1.82,0,0,1-.23-.77c-.08-.68-.08-1.53.53-1.84a1.73,1.73,0,0,1,.75-.14l8.09-.18A75.48,75.48,0,0,1,78.41,109.67Z"/><path class="cls-36" d="M136.94,19.22C117,11.08,97.43,22.87,91.24,26.6A67.8,67.8,0,0,0,66.67,52.88,99.59,99.59,0,0,1,82.92,39.31,79.39,79.39,0,0,0,63.29,75.82,76.37,76.37,0,0,0,61.48,96,79.22,79.22,0,0,1,82.77,62.62,77.23,77.23,0,0,1,100.5,50.37,117.12,117.12,0,0,0,69.55,95.25a84.11,84.11,0,0,1,14-12.12c2.44-1.68,4.83-3.12,7.1-4.37L72.83,99a75,75,0,0,0,42.45-11.66l-6.92,7.2c2.74-.46,5.63-1,8.65-1.73s5.63-1.42,8.2-2.19l-4.92,4.56c6.58-.65,18.22-2.89,28.65-11.56,8.53-7.09,22-23.21,16.66-37a22,22,0,0,0-8.94-10.34C153.93,32,147.76,23.63,136.94,19.22Z"/><path class="cls-1" d="M70.13,184.31a30.82,30.82,0,0,0,.46,3.86A9.06,9.06,0,0,0,72,191.69a9.47,9.47,0,0,0,2.9,2.38c1.11.64,2.27,1.22,3.43,1.83a42.26,42.26,0,0,1,12.39,9.63,49.34,49.34,0,0,1,8.44,13.31,40.2,40.2,0,0,1,3.43,15.46l-.13-.48a84.32,84.32,0,0,1,4.83,10.51,88.32,88.32,0,0,1,3.35,11,65.9,65.9,0,0,1,1.67,11.44,56,56,0,0,1-.54,11.57l0,.13-.06.12c-3.12,6-6.24,12-9.41,17.94l-.07.14-.11.07-5.95,3.66.17-.28A7.22,7.22,0,0,1,95,303.47a5.81,5.81,0,0,1-2.76,2.14,8.21,8.21,0,0,1-3.42.45l-3.42-.12,3.41-.11a8.16,8.16,0,0,0,3.27-.6,5.3,5.3,0,0,0,2.45-2.08,6.73,6.73,0,0,0,1-3l0-.18.15-.11,5.78-3.93-.19.21q4.39-9.14,8.87-18.22l-.07.25a56.68,56.68,0,0,0,.34-11.2,71.23,71.23,0,0,0-1.74-11.12A88.69,88.69,0,0,0,105.42,245a81.69,81.69,0,0,0-4.64-10.25l-.12-.23v-.26a39.81,39.81,0,0,0-.83-7.52,42.51,42.51,0,0,0-2.27-7.27,50,50,0,0,0-7.89-13.07,43.49,43.49,0,0,0-11.73-9.82c-1.12-.65-2.26-1.29-3.36-2A10.16,10.16,0,0,1,71.62,192a9,9,0,0,1-1.27-3.74A29.9,29.9,0,0,1,70.13,184.31Z"/><path class="cls-3" d="M110.88,175.44a24.24,24.24,0,0,0-2.4,5.23,23.91,23.91,0,0,0-.77,3.05,19.72,19.72,0,0,1-4.35-1.34c-4.65-1.87-9.33-3.93-13.09-7.24-1.49-1.31-2.81-2.8-4.36-4a14.84,14.84,0,0,0-3.25-1.89l-.13,0a31.9,31.9,0,0,0-2.06-6,49.84,49.84,0,0,0,30.41,12.3Z"/><path class="cls-37" d="M175.8,65.72a77.11,77.11,0,0,1,11.7,25.66,74.84,74.84,0,0,1,.5,34.24,70.66,70.66,0,0,1-9.67,22.5A115.33,115.33,0,0,0,184,112.66a137,137,0,0,0-3.26-28.14A170.43,170.43,0,0,0,175.8,65.72Z"/><path class="cls-37" d="M158.59,32.77a35.68,35.68,0,0,1,14.89,14,36.06,36.06,0,0,1,4,24.46,59.29,59.29,0,0,0-18.88-38.43Z"/><path class="cls-37" d="M175.18,154.93c-5.49,7.49-10.62,14.49-11.79,24.26-1.38,11.38,3.32,20.62,5.9,24.86a43.63,43.63,0,0,1-2-9.36,42.2,42.2,0,0,1-.07-7.67,44.14,44.14,0,0,0,6.1,9.79,39.5,39.5,0,0,1-2.88-7.24,45,45,0,0,1-1.29-15.95c1.76-15.21,13.49-26.06,13-26.45C181.91,147,178.81,150,175.18,154.93Z"/><g class="cls-14"><path class="cls-37" d="M65.64,132.49a76.43,76.43,0,0,0,10.17,62.56c-2.58-2-15.51-12.75-17.63-31.57A47.66,47.66,0,0,1,65.64,132.49Z"/></g><path class="cls-37" d="M15.12,88.47a110.81,110.81,0,0,1,3-19.57c.8-3.21,1.68-6.4,2.74-9.54s2.33-6.2,3.69-9.21A146.22,146.22,0,0,1,34,32.71a71.87,71.87,0,0,1,5.91-8,51.6,51.6,0,0,1,7.3-6.86l-.06,0A61.52,61.52,0,0,1,57.9,11,72,72,0,0,1,69.7,6.28,74.42,74.42,0,0,1,82.1,3.63c2.09-.32,4.2-.41,6.3-.57,1-.09,2.11,0,3.16-.05l3.15,0v.2A113.6,113.6,0,0,0,82.32,5a91.71,91.71,0,0,0-12,3.2,89.23,89.23,0,0,0-11.44,4.75,62.59,62.59,0,0,0-10.54,6.37l0,0A59.86,59.86,0,0,0,34.63,33.15a71.82,71.82,0,0,0-9,17.45c-1.15,3.06-2.12,6.19-3.1,9.31s-1.93,6.25-2.79,9.41c-1.7,6.32-3.22,12.71-4.47,19.17Z"/><path class="cls-37" d="M20.43,160.53a57.69,57.69,0,0,0,1,34.14,24.38,24.38,0,0,1-4.9-6.84,25.11,25.11,0,0,1,3.91-27.3Z"/><path class="cls-37" d="M24.44,143.25c.64,5.27.43,11.85-3.67,16.1-4.69,4.86-11.85,5.64-12.1,5s4.87-1.88,9.18-6.37S23.79,147.89,24.44,143.25Z"/><path class="cls-8" d="M170.06,92.93a54.8,54.8,0,0,1-2,12.56c-.33,1-.64,2.05-1,3-.16.45-.32.9-.47,1.35s-.24.74-.35,1.11c-.06.17-.11.33-.16.5-.61,2-1.12,4-1.57,6a66,66,0,0,0-1.53,12.34c0,1,0,2.06.05,3.09s.12,2.06.29,3.07a27.7,27.7,0,0,0,.56,3c.24,1,.5,1.95.79,3,0,.16.08.32.11.48a22.06,22.06,0,0,1,.45,2.8,23.51,23.51,0,0,1,.05,3.25,22.39,22.39,0,0,1-1.43,6.42,29.52,29.52,0,0,1-7.48,10.57c-1.56,1.47-3.22,2.83-4.89,4.12a50,50,0,0,1-5.27,3.67,44.54,44.54,0,0,1-11.83,5,41.23,41.23,0,0,1-12.79,1.09,68.66,68.66,0,0,1-12.62-1.71A102.09,102.09,0,0,1,85.17,169c-3.75-2-7.38-4.1-10.94-6.36a49.94,49.94,0,0,1-9.86-7.87,43.21,43.21,0,0,0,4.86,4,55.35,55.35,0,0,0,5.28,3.42c3.63,2.12,7.31,4.13,11.1,5.93a101.13,101.13,0,0,0,23.64,8.19,76,76,0,0,0,12.37,1.49,39.34,39.34,0,0,0,12.26-1.12,42.88,42.88,0,0,0,11.3-4.87,48.65,48.65,0,0,0,5-3.58c1.65-1.29,3.24-2.62,4.73-4a27.7,27.7,0,0,0,7.08-9.81,20.66,20.66,0,0,0,1.34-5.84,18.11,18.11,0,0,0,0-2.33,17.27,17.27,0,0,0-.28-2.48c-.06-.4-.15-.79-.24-1.18-.24-1-.52-2-.77-3.07a29.18,29.18,0,0,1-.56-3.19c-.18-1.07-.19-2.14-.28-3.21s0-2.15,0-3.22A60.36,60.36,0,0,1,163,117.19c.5-2.07,1.06-4.11,1.73-6.13l0-.14.36-1.06c.21-.6.42-1.21.66-1.81.38-1,.69-2,1-2.93a54.59,54.59,0,0,0,2.27-12.25A73.09,73.09,0,0,0,166.54,68c.61,2,1.28,4,1.73,6.08s.84,4.13,1.14,6.22A69.52,69.52,0,0,1,170.06,92.93Z"/><path class="cls-2" d="M139.82,292a.51.51,0,0,1-.5-.44l-.32-3a.5.5,0,0,1,.44-.55.49.49,0,0,1,.55.45l.33,3a.5.5,0,0,1-.45.55Zm-.64-6a.5.5,0,0,1-.5-.45l-.32-3a.5.5,0,0,1,1-.11l.32,3a.5.5,0,0,1-.44.56Zm-.65-6a.5.5,0,0,1-.49-.44l-.32-3a.5.5,0,0,1,.44-.55.5.5,0,0,1,.55.45l.32,3a.5.5,0,0,1-.44.55Zm-.64-6a.49.49,0,0,1-.49-.45l-.35-3a.5.5,0,1,1,1-.16l.08.54.27,2.46a.5.5,0,0,1-.44.55Zm-.82-5.94a.5.5,0,0,1-.49-.43l-.47-3a.5.5,0,0,1,1-.16l.48,3a.51.51,0,0,1-.42.57Zm-.94-5.93a.51.51,0,0,1-.5-.42l-.47-3a.5.5,0,1,1,1-.16l.47,3a.49.49,0,0,1-.41.57Zm-.95-5.93a.49.49,0,0,1-.49-.42l-.47-3a.49.49,0,0,1,.41-.57.51.51,0,0,1,.58.41l.47,3a.51.51,0,0,1-.42.57Zm-.94-5.92a.5.5,0,0,1-.5-.42l-.47-3a.51.51,0,0,1,.42-.58.5.5,0,0,1,.57.42l.47,3a.49.49,0,0,1-.41.57Zm-1-5.93a.49.49,0,0,1-.49-.42l-.47-3a.49.49,0,0,1,.41-.57.51.51,0,0,1,.58.41l.47,3a.5.5,0,0,1-.42.57Zm-.94-5.92a.5.5,0,0,1-.49-.42l-.22-1.34-.36-1.57a.49.49,0,0,1,.37-.6.5.5,0,0,1,.6.38l.37,1.6.22,1.37a.49.49,0,0,1-.41.57Zm-1.26-5.86a.5.5,0,0,1-.49-.39l-.68-2.92a.5.5,0,0,1,1-.23l.67,2.92a.49.49,0,0,1-.37.6Z"/><path class="cls-18" d="M111,278.25l-11.46,3.3-.09,0a7.42,7.42,0,0,0-1.93-4.19,4.2,4.2,0,0,0-2.14-1.1,22.83,22.83,0,0,0-2.61-.26,16.09,16.09,0,0,1-5.42-1.49,17,17,0,0,1-4.59-3.25,7.43,7.43,0,0,0-1.93-1.42,9.57,9.57,0,0,0-2.32-.76c-.82-.17-1.69-.28-2.56-.38s-1.73-.16-2.6-.19a39.82,39.82,0,0,0-5.23.25c-.87.1-1.74.23-2.6.4l-1.29.26-1.5.36.21,0c-.22.06-.45.11-.67.18-.33-.42-.65-.85-.94-1.29l1.19-.39.21,0h-.12l0,0,.17-.06.34-.11.66-.2c.44-.13.89-.25,1.34-.35.79-.19,1.59-.35,2.39-.47-.25-.21-.5-.42-.76-.62s-.62-.49-.94-.71-.86-.6-1.31-.88a5.08,5.08,0,0,0-.59-.35,8.2,8.2,0,0,0-.76-.43s0,0,0,0c-.29-.15-.59-.31-.89-.44s-.83-.4-1.26-.57a23.76,23.76,0,0,0-2.69-.93c-.18-.65-.33-1.31-.45-2,.31.08.62.18.92.28l.07,0c.32.11.64.22,1,.35a5.89,5.89,0,0,1,.58.24l.15.07.43.2.7.35c.34.17.67.36,1,.55l.48.3a4.22,4.22,0,0,1,.47.31c.19.12.39.26.58.4a2.93,2.93,0,0,1,.36.28c.18.13.35.27.52.41a1.5,1.5,0,0,1,.24.21,18.57,18.57,0,0,1,2.08,2.08c.22.26.44.53.65.8,0,0,0,0,0,0l1-.15h.11c.38-.05.76-.08,1.14-.11.1,0,.21,0,.31,0a8.5,8.5,0,0,0-.31-3.58,10.13,10.13,0,0,0-.44-1.2,10.86,10.86,0,0,0-.57-1.13,29.15,29.15,0,0,0-5.45-6.08l-1.51-1.45c-1-.91-1.9-1.84-2.84-2.78-.47-.47-1-.95-1.42-1.44.11-.43.22-.86.34-1.28l.24.21c2.12,1.84,4.18,3.74,6.22,5.65.39.37.79.75,1.18,1.14l.59.59a25.17,25.17,0,0,1,1.7,1.86c.17.22.35.44.52.67l.49.68c.15-1.61.29-3.2.39-4.8.13-2.21.22-4.42.2-6.64s-.11-4.42-.26-6.63c-.09-1.19-.2-2.38-.32-3.57a3.7,3.7,0,0,1,.86.53c2.24,1.74,3.77,5.84,6.11,8.47a38.28,38.28,0,0,0,34,12.61A57.57,57.57,0,0,1,111,278.25Z"/><path class="cls-38" d="M101.62,234.3c-2.46-2.26-4.78-4.64-7.21-6.89l-3.79-3.21c-1.28-1-2.46-2.22-3.84-3.14l0,0-.49-.34-.49-.36-2-1.44-.49-.36c-.16-.12-.32-.24-.49-.35a42.07,42.07,0,0,0-4.17-2.73l-2.1-1.31a17.39,17.39,0,0,0-2.13-1.24L70,210.63a76.23,76.23,0,0,0-18.66-6.15L49,204c-.81-.13-1.63-.17-2.45-.28s-1.63-.21-2.46-.24l-2.47-.11a47,47,0,0,0-9.9.64,47.45,47.45,0,0,1,20-1.11,67.13,67.13,0,0,1,19.27,5.89l4.48,2.35a20.66,20.66,0,0,1,2.17,1.29l2.12,1.37c1.11.68,2.18,1.41,3.22,2.18l.48.37.49.37c.65.5,1.3,1,2,1.54l.49.39.49.38c.32.27.64.52,1,.78a44.09,44.09,0,0,1,3.74,3.37l3.61,3.48c1.13,1.23,2.19,2.53,3.29,3.79S100.56,233,101.62,234.3Z"/><path class="cls-38" d="M28.22,222.17l.19-3.51a12.53,12.53,0,0,1-1.27-1.42q4.7-7.17,9.4-14.34l.87.49-9.49,20.79Z"/><path class="cls-2" d="M101.34,236.12a.51.51,0,0,1-.45-.27c-.43-.83-.69-1.29-.7-1.29a.52.52,0,0,1,.19-.69.5.5,0,0,1,.68.19s.27.46.72,1.33a.5.5,0,0,1-.44.73Z"/><path class="cls-2" d="M110.43,274.43h0a.49.49,0,0,1-.46-.53c.06-.93.09-1.88.1-2.81a.52.52,0,0,1,.51-.5.5.5,0,0,1,.49.51c0,.95,0,1.92-.11,2.87A.49.49,0,0,1,110.43,274.43Zm.06-5.68a.5.5,0,0,1-.5-.48c0-.92-.1-1.87-.18-2.82a.5.5,0,0,1,1-.09c.09,1,.15,1.94.19,2.87a.51.51,0,0,1-.48.52Zm-.5-5.67a.5.5,0,0,1-.49-.43c-.13-.95-.27-1.88-.43-2.8a.49.49,0,0,1,.41-.57.5.5,0,0,1,.58.4c.16.93.3,1.88.43,2.84a.5.5,0,0,1-.43.56Zm-1-5.6a.5.5,0,0,1-.49-.4c-.2-.93-.41-1.85-.64-2.75a.5.5,0,0,1,.36-.61.5.5,0,0,1,.61.37c.23.91.45,1.84.65,2.78a.5.5,0,0,1-.38.6ZM107.63,252a.49.49,0,0,1-.48-.36c-.27-.93-.55-1.83-.83-2.7a.49.49,0,0,1,.32-.63.49.49,0,0,1,.63.32q.44,1.32.84,2.73a.5.5,0,0,1-.34.62A.36.36,0,0,1,107.63,252Zm-1.76-5.41a.5.5,0,0,1-.47-.33c-.34-.93-.67-1.81-1-2.65a.5.5,0,1,1,.92-.37c.34.85.68,1.74,1,2.68a.5.5,0,0,1-.3.64Zm-2.1-5.29a.5.5,0,0,1-.46-.3c-.41-1-.8-1.82-1.16-2.58a.5.5,0,1,1,.9-.43c.36.77.76,1.65,1.18,2.61a.51.51,0,0,1-.26.66A.48.48,0,0,1,103.77,241.26Z"/><path class="cls-2" d="M110,278.76h-.08a.49.49,0,0,1-.41-.57c.07-.49.14-1,.2-1.47a.5.5,0,1,1,1,.12q-.09.75-.21,1.5A.5.5,0,0,1,110,278.76Z"/><path class="cls-38" d="M37.4,181.89c2,1.22,4,2.52,6.05,3.71s4.12,2.31,6.24,3.36,4.27,2,6.45,2.9,4.39,1.75,6.59,2.64a58.82,58.82,0,0,1,12.56,6.78,53.46,53.46,0,0,1,5.47,4.6,54.23,54.23,0,0,1,4.77,5.29,64.31,64.31,0,0,0-10.68-9.26,64.86,64.86,0,0,0-6.06-3.6c-2.08-1.08-4.25-2-6.44-2.89a142,142,0,0,1-13-5.78c-2.09-1.14-4.14-2.33-6.14-3.62S39.31,183.29,37.4,181.89Z"/><path class="cls-1" d="M46.08,208.09c.66.13,1.31.27,2,.43l1.93.57,1.88.75,1.84.86a29.74,29.74,0,0,1,6.6,4.69,29.43,29.43,0,0,1,5.09,6.31l1,1.78.86,1.83.69,1.9c.19.64.37,1.29.54,1.93-.27-.61-.54-1.22-.79-1.84l-.89-1.78-1-1.74-1.07-1.66a36,36,0,0,0-18.66-14Z"/><path class="cls-18" d="M148.93,239a10.85,10.85,0,0,1-2.2-3.61c-1.08-2.49-2-5.24-1.34-7.85.23-.85,1.67-4.67,2.78-4.14s.73,4,.65,5c-.13,1.83-.44,3.65-.53,5.49C148.23,235.07,148,238.05,148.93,239Z"/><path class="cls-1" d="M148.71,215.77a20.55,20.55,0,0,1,.2,5,29.38,29.38,0,0,1-.85,5,35.41,35.41,0,0,0-.95,4.8,11.06,11.06,0,0,0,.47,4.83,8.6,8.6,0,0,1-1.25-4.87,22.46,22.46,0,0,1,.76-5c.41-1.61.79-3.19,1-4.81S148.59,217.44,148.71,215.77Z"/><path class="cls-38" d="M142.92,200.69a17.91,17.91,0,0,1-2.13,5.72,28,28,0,0,1-3.15,5.1,22.9,22.9,0,0,0-1.91,2.55l-.46.72c-.31.49-.61,1-.88,1.53s-.49.89-.73,1.34c-.12.23-.24.46-.35.7L133,219c-.39.83-.76,1.67-1.07,2.53a24.11,24.11,0,0,0-1.3,5.63,25.57,25.57,0,0,0,1.52,11.49,23.79,23.79,0,0,1-1.9-5.61,22.8,22.8,0,0,1-.39-6,24.82,24.82,0,0,1,2.8-9.59c.12-.25.24-.5.37-.74l.39-.73.13-.24c.26-.48.54-1,.83-1.41l.33-.51.35-.51a31.11,31.11,0,0,1,1.92-2.46,27.41,27.41,0,0,0,3.15-4.84,18.91,18.91,0,0,0,1.86-4.93,15.71,15.71,0,0,0-.78-8.67A13.06,13.06,0,0,1,142.92,200.69Z"/><path class="cls-1" d="M119.05,179.91c.85.05,11.06.75,14.7,7.93,2,4,1.43,9,1.2,10.89a36.32,36.32,0,0,1-1.73,7.11c-.76,2.31-1.55,4.6-2.44,6.86.24-1.19.54-2.37.81-3.55l.89-3.52c.29-1.17.58-2.34.84-3.51.38-1.73.59-3.13.64-3.53a20.42,20.42,0,0,0-1.11-9.5C129.82,181.77,119.6,180,119.05,179.91Z"/><rect class="cls-2" x="82.05" y="232.18" width="4.86" height="8.23" rx="2.43"/><path class="cls-1" d="M86.73,221l-.37,12.39-4-.12.46-15.12c.17.11.33.23.49.35l.49.36-.41,13.44,2,.06.36-12.06.49.36Z"/><path class="cls-2" d="M85.75,220.32l-.36,12.06-2-.06.41-13.44Z"/><path class="cls-1" d="M84.48,240.91A2.93,2.93,0,0,1,81.55,238v-3.37a2.93,2.93,0,1,1,5.86,0V238A2.93,2.93,0,0,1,84.48,240.91Zm0-8.23a1.92,1.92,0,0,0-1.93,1.93V238a1.93,1.93,0,1,0,3.86,0v-3.37A1.93,1.93,0,0,0,84.48,232.68Z"/><rect class="cls-2" x="83.13" y="240.23" width="2.69" height="3.27" rx="1.34"/><path class="cls-1" d="M84.48,243.75a1.6,1.6,0,0,1-1.6-1.59v-.58a1.6,1.6,0,1,1,3.19,0v.58A1.59,1.59,0,0,1,84.48,243.75Zm0-3.27a1.1,1.1,0,0,0-1.1,1.1v.58a1.1,1.1,0,0,0,2.19,0v-.58A1.09,1.09,0,0,0,84.48,240.48Z"/><path class="cls-1" d="M141.66,228.73l-3,2.68-.34-.37a13.41,13.41,0,0,1-2.17-3.65A52.65,52.65,0,0,1,133,219l.35-.69c.11-.24.23-.47.35-.7a46.26,46.26,0,0,0,3.43,9.32,14.43,14.43,0,0,0,1.68,3l1.49-1.35a13.23,13.23,0,0,1-1.35-2.49c-1.57-3.48-3.35-7.38-3.64-11.37.14-.24.3-.48.46-.72s.31-.46.47-.68h0v.5c.08,4.09,1.95,8.21,3.6,11.85a10.1,10.1,0,0,0,1.5,2.63Z"/><path class="cls-2" d="M140.26,228.64,138.77,230a14.43,14.43,0,0,1-1.68-3,46.26,46.26,0,0,1-3.43-9.32c.24-.45.48-.9.73-1.34s.57-1,.88-1.53c.29,4,2.07,7.89,3.64,11.37A13.23,13.23,0,0,0,140.26,228.64Z"/><path class="cls-6" d="M78.33,199.1a48.76,48.76,0,0,0,5,4.54,40.52,40.52,0,0,0,5.57,3.75,34.38,34.38,0,0,0,12.61,4.13,32.21,32.21,0,0,0,6.63.38,16.54,16.54,0,0,0,3.22-.54,11.9,11.9,0,0,0,2.92-1.34,9.91,9.91,0,0,0,3.83-5.14,17,17,0,0,0,.8-6.63,16,16,0,0,1-.21,6.81,10.61,10.61,0,0,1-3.86,5.74,11.36,11.36,0,0,1-3.16,1.61,17.11,17.11,0,0,1-3.45.67,32.28,32.28,0,0,1-6.89-.32,33.72,33.72,0,0,1-6.71-1.57,32.24,32.24,0,0,1-6.21-3A37.75,37.75,0,0,1,78.33,199.1Z"/><path class="cls-11" d="M146.11,52.22a55,55,0,0,1-5.78,13.65,63.48,63.48,0,0,1-9,11.9,73.2,73.2,0,0,1-5.48,5.09,67.82,67.82,0,0,1-6,4.39,56.1,56.1,0,0,1-13.38,6.38,144.56,144.56,0,0,0,12-8.29,99.17,99.17,0,0,0,10.71-9.65c.86-.84,1.64-1.75,2.46-2.63L134,70.32c1.56-1.83,3-3.77,4.41-5.72A135,135,0,0,0,146.11,52.22Z"/><rect class="cls-2" x="138.03" y="228.06" width="4.86" height="8.23" rx="2.43" transform="translate(-46.7 35.69) rotate(-12.43)"/><path class="cls-1" d="M140.82,236.75a2.93,2.93,0,0,1-2.86-2.29l-.73-3.3a3,3,0,0,1,.4-2.21,2.93,2.93,0,0,1,5.33,1l.72,3.29a2.94,2.94,0,0,1-2.23,3.5h0A3.36,3.36,0,0,1,140.82,236.75Zm-.72-8.15a2,2,0,0,0-.42,0,1.93,1.93,0,0,0-1.47,2.3l.73,3.3a1.93,1.93,0,0,0,2.3,1.47h0a1.94,1.94,0,0,0,1.47-2.3l-.73-3.3A1.93,1.93,0,0,0,140.1,228.6Z"/><rect class="cls-2" x="139.46" y="236.29" width="2.69" height="3.27" rx="1.34"/><path class="cls-1" d="M140.8,239.82a1.6,1.6,0,0,1-1.59-1.6v-.58a1.6,1.6,0,1,1,3.19,0v.58A1.6,1.6,0,0,1,140.8,239.82Zm0-3.28a1.09,1.09,0,0,0-1.09,1.1v.58a1.1,1.1,0,1,0,2.19,0v-.58A1.1,1.1,0,0,0,140.8,236.54Z"/><path class="cls-11" d="M112.74,57.71A64.49,64.49,0,0,1,97.59,82.92C95.88,84.71,94,86.38,92.16,88a69.26,69.26,0,0,1-6,4.44,62,62,0,0,1-13.15,6.7,113.41,113.41,0,0,0,12.25-8,89.36,89.36,0,0,0,10.85-9.62,86.88,86.88,0,0,0,9.18-11.22A108.1,108.1,0,0,0,112.74,57.71Z"/><path class="cls-39" d="M95.1,278.89a17.16,17.16,0,0,0-4,4.25,18.52,18.52,0,0,0-2.23,13.71c.68,2.64,1.65,3.29,2.15,3.53a3.82,3.82,0,0,0,3,.34c.75-.21,1.62-.53,2.22,0Z"/><path class="cls-1" d="M69,268.39A25.44,25.44,0,0,0,61,263a20.7,20.7,0,0,0-4.54-1.32,22.52,22.52,0,0,0-4.71-.37,29.12,29.12,0,0,0-9.34,1.78,32.72,32.72,0,0,0-8.45,4.78,22,22,0,0,1,7.84-6.22,24.88,24.88,0,0,1,9.91-2.34,20.58,20.58,0,0,1,10,2.28A18.69,18.69,0,0,1,69,268.39Z"/><path class="cls-1" d="M52.16,242.58c2.24,1.7,4.39,3.51,6.5,5.35s4.18,3.74,6.23,5.66,4.15,4,5.44,6.62a10,10,0,0,1,1,4.25,6.73,6.73,0,0,1-1.26,4.07,8.66,8.66,0,0,0-.8-7.77,28.82,28.82,0,0,0-5.44-6.08c-2-1.94-4-3.89-6-5.9S54,244.73,52.16,242.58Z"/><path class="cls-1" d="M69.05,233.77a32.83,32.83,0,0,1,1.8,6.54,41.45,41.45,0,0,1,.6,6.77,37.7,37.7,0,0,1-2.26,13.33c.2-2.25.42-4.46.56-6.68s.23-4.43.2-6.64-.11-4.42-.26-6.64S69.28,236,69.05,233.77Z"/><path class="cls-1" d="M99.49,281.55c0,.19,0,.38,0,.56,0-.18,0-.36-.07-.53a7.42,7.42,0,0,0-1.93-4.19,4.2,4.2,0,0,0-2.14-1.1,22.83,22.83,0,0,0-2.61-.26,16.09,16.09,0,0,1-5.42-1.49,17,17,0,0,1-4.59-3.25,7.43,7.43,0,0,0-1.93-1.42,9.57,9.57,0,0,0-2.32-.76c-.82-.17-1.69-.28-2.56-.38s-1.73-.16-2.6-.19a39.82,39.82,0,0,0-5.23.25c-.87.1-1.74.23-2.6.4l-1.29.26-1.5.36.21,0c-.22.06-.45.11-.67.18a47,47,0,0,0-6,2,57.7,57.7,0,0,0-6.41,3.16,37.52,37.52,0,0,1,11.5-6.49l1.19-.39.21,0h-.12l0,0,.17-.06.34-.11.66-.2c.44-.13.89-.25,1.34-.35.79-.19,1.59-.35,2.39-.47l.32-.06.19,0,1-.14h.11c.38-.05.76-.08,1.14-.11l.32,0,.41,0c.77-.05,1.53-.06,2.3-.05s1.85.07,2.77.16a23,23,0,0,1,2.77.43,11.65,11.65,0,0,1,2.77.95,8.83,8.83,0,0,1,2.37,1.8,15.57,15.57,0,0,0,4,3.12,15.41,15.41,0,0,0,4.83,1.68,24.82,24.82,0,0,1,2.71.53,5,5,0,0,1,2.44,1.6A7.2,7.2,0,0,1,99.49,281.55Z"/><path class="cls-40" d="M96.7,279a2.53,2.53,0,0,0-1-.15,1.87,1.87,0,0,0-.53.05,1.67,1.67,0,0,0-1,1.11,5.27,5.27,0,0,0-.29,1,1.43,1.43,0,0,0,.06.94,1.28,1.28,0,0,0,.86.57,25.2,25.2,0,0,1,2.55.55c.53.18.82.23,1-.39A3.73,3.73,0,0,0,96.7,279Z"/><path class="cls-2" d="M135.84,294.05c-.43.42-1.32.14-1.64,0-2.39-.76-3.91-3.42-6-5.86a24.64,24.64,0,0,0-2.33-2.4,8.19,8.19,0,0,0-2.42-1.76,11.81,11.81,0,0,0,1.66,1.9c2.37,2.58,6.36,7.35,5.79,11.49,0,.42-.3,2.24-1.09,2.4-.63.12-1.32-.87-2-1.94-1.82-2.68-1.83-4.27-3.54-5.8a6.62,6.62,0,0,0-1.42-1,39.63,39.63,0,0,1,2.83,5.35c1.09,2.49,1.34,3.75.78,4.56a1.74,1.74,0,0,1-1,.69,2.45,2.45,0,0,1-2-.72,70.49,70.49,0,0,1-6-6c-2-1.82-2.77-2.37-2.84-2.3-.22.23,6.46,6.24,5.23,8.37a2,2,0,0,1-1.12.78A3.62,3.62,0,0,1,116,301a41.07,41.07,0,0,1-4-2.84c-.78-.67-1.68-1.47-2.67-2.4-.49-.46-1-.95-1.54-1.47l-.17.31c-1.67,3-4.17,5.11-6.61,5.23-1.55.08-2.84.14-3.92-.65-.52-.37-1.33-1.19-2.16-1a1.22,1.22,0,0,0-.38.18,4.11,4.11,0,0,1-3.09.29c-2.26-.9-1.63-7.3-1.49-8.61a13.66,13.66,0,0,1,.36-2.29,13.86,13.86,0,0,1,3.21-5.92,6.32,6.32,0,0,0,.62.18,9.68,9.68,0,0,0,4.86-.31c1.78-.53,3.45-1.37,5.18-2a32.72,32.72,0,0,1,12.22-2.32,14.71,14.71,0,0,1,3.4.39c4.72,1.06,7.83,4,9.72,5.81.43.41,1.24,1.33,2.82,3.12.07.08.15.16.22.25a14.07,14.07,0,0,1,3.41,5.56C136.09,293,136.2,293.71,135.84,294.05Z"/><path class="cls-3" d="M125.12,286c2.37,2.58,6.36,7.35,5.79,11.49,0,.42-.3,2.24-1.09,2.4-.63.12-1.32-.87-2-1.94-1.82-2.68-1.83-4.27-3.54-5.8a6.62,6.62,0,0,0-1.42-1,39.63,39.63,0,0,1,2.83,5.35c1.09,2.49,1.34,3.75.78,4.56a1.74,1.74,0,0,1-1,.69,2.45,2.45,0,0,1-2-.72,70.49,70.49,0,0,1-6-6c-2-1.82-2.77-2.37-2.84-2.3-.22.23,6.46,6.24,5.23,8.37a2,2,0,0,1-1.12.78A3.62,3.62,0,0,1,116,301a41.07,41.07,0,0,1-4-2.84c-.78-.67-1.68-1.47-2.67-2.4a.93.93,0,0,0,.49.06,1.47,1.47,0,0,0,.47-.23,16.13,16.13,0,0,0,3-2.61,4,4,0,0,1,.19-1.9c1.59,0,3.18,0,4.76,0a3.27,3.27,0,0,0,1.52-.31c1.08-.63,1.12-2.15,1-3.4A35.89,35.89,0,0,1,125.12,286Z"/><path class="cls-3" d="M135.84,294.05c-.43.42-1.32.14-1.64,0-2.39-.76-3.91-3.42-6-5.86a24.64,24.64,0,0,0-2.33-2.4,10,10,0,0,1,5.24.28,7.54,7.54,0,0,1,1.19.55c.07.08.15.16.22.25a14.07,14.07,0,0,1,3.41,5.56C136.09,293,136.2,293.71,135.84,294.05Z"/><path class="cls-41" d="M118.25,302.3a5,5,0,0,1-2.5-1,43.19,43.19,0,0,1-4-2.87c-.88-.76-1.78-1.57-2.68-2.42-.38-.36-.79-.73-1.19-1.13-1.79,3.15-4.4,5.18-6.86,5.31-1.52.07-3,.15-4.16-.73a1.8,1.8,0,0,0-1.06-.55A1.6,1.6,0,0,0,95,299l-.25-.7a2.46,2.46,0,0,1,1.11-.13,2.5,2.5,0,0,1,1.46.74c.94.68,2.13.61,3.64.54,2.22-.11,4.63-2,6.3-5,.06-.1.11-.21.16-.3l.23-.46.37.36q.8.78,1.53,1.47c.89.83,1.79,1.64,2.66,2.39a40.86,40.86,0,0,0,4,2.81c.94.6,1.72,1,2.5.82a1.62,1.62,0,0,0,.9-.61c.76-1.32-2.68-5.07-4.15-6.67-1.15-1.26-1.33-1.45-1-1.77s.39-.37,3.36,2.28a68.28,68.28,0,0,0,6,6,2.09,2.09,0,0,0,1.63.65,1.33,1.33,0,0,0,.74-.54c.46-.65.23-1.83-.81-4.2a39.44,39.44,0,0,0-2.8-5.3l-.7-1.11,1.18.57a7,7,0,0,1,1.5,1,8.31,8.31,0,0,1,2,3,18.76,18.76,0,0,0,1.6,2.88c.5.74,1.3,1.86,1.66,1.78s.64-.78.79-2.07c.41-2.93-1.46-6.59-5.69-11.19l-.82-.89c-1-1-1.14-1.22-.83-1.53a23.74,23.74,0,0,1,2.2,1.91c1.43,1.39,6.51,6.47,5.89,11.79-.11.93-.44,2.53-1.39,2.72s-1.64-.93-2.43-2.1a19.66,19.66,0,0,1-1.65-3,7.77,7.77,0,0,0-1.81-2.72,39,39,0,0,1,2,3.93c1,2.33,1.47,3.88.74,4.92a2.06,2.06,0,0,1-1.19.85,2.85,2.85,0,0,1-2.27-.79,54.43,54.43,0,0,1-4.68-4.6c1.37,1.79,2.24,3.46,1.63,4.52a2.35,2.35,0,0,1-1.34.95A2.27,2.27,0,0,1,118.25,302.3Z"/><path class="cls-41" d="M95.56,286.51a28.18,28.18,0,0,1,9-6.83l.14,0c-.13,0,0,0,0-.06l.2-.09.38-.17.78-.32c.53-.2,1-.4,1.58-.58,1.07-.35,2.16-.65,3.25-.9a29.06,29.06,0,0,1,3.34-.55,20.17,20.17,0,0,1,3.38-.08h0a20.18,20.18,0,0,1,3.29.66,17.84,17.84,0,0,1,3.09,1.29,23.35,23.35,0,0,1,5.27,4c.77.76,1.45,1.64,2.18,2.45s1.43,1.66,2.12,2.5a16.32,16.32,0,0,1,1.87,2.71,6.75,6.75,0,0,1,.69,3.2,7.1,7.1,0,0,0-.93-3.07,15.48,15.48,0,0,0-2-2.51c-.72-.81-1.47-1.6-2.21-2.39s-1.45-1.59-2.25-2.32a24.47,24.47,0,0,0-5.16-3.77,16.51,16.51,0,0,0-2.93-1.19,25.08,25.08,0,0,0-3.11-.59h0a21.23,21.23,0,0,0-3.29,0,30.19,30.19,0,0,0-3.24.49q-1.6.35-3.18.84c-.52.15-1,.32-1.57.5l-1.68.61.15,0A32.73,32.73,0,0,0,95.56,286.51Z"/><polygon class="cls-41" points="117.33 284.91 124.05 291.58 123.31 292.26 117.33 284.91"/><path class="cls-41" d="M112,289.34l5.85,5.93-.75.66a22.89,22.89,0,0,1-3.16-3.45A22.66,22.66,0,0,1,112,289.34Z"/><path class="cls-3" d="M107.51,294.52l.06.06c-1.67,3-4.17,5.11-6.61,5.23-1.55.08-2.84.14-3.92-.65-.52-.37-1.33-1.19-2.16-1a1.22,1.22,0,0,0-.38.18,4.11,4.11,0,0,1-3.09.29c-2.26-.9-1.63-7.3-1.49-8.61a13.66,13.66,0,0,1,.36-2.29,13.86,13.86,0,0,1,3.21-5.92,6.32,6.32,0,0,0,.62.18c-.08.61-.18,1.21-.27,1.82a2.83,2.83,0,0,0,.15,1.91c.27.47.79.75,1.09,1.2.62,1,0,2.24.22,3.36a3.18,3.18,0,0,0,1.25,1.93,7.14,7.14,0,0,0,2.12,1A17.44,17.44,0,0,0,106,294a1.69,1.69,0,0,1,1.07.1A2.45,2.45,0,0,1,107.51,294.52Z"/><path class="cls-39" d="M83.13,276.86a35.58,35.58,0,0,0-3.83,6.54,27,27,0,0,0-2,7.09,28.11,28.11,0,0,0-.11,7.39,38.68,38.68,0,0,0,1.68,7.4,19.72,19.72,0,0,1-3.22-7.13,22.75,22.75,0,0,1-.54-3.95,23.27,23.27,0,0,1,.21-4,21.23,21.23,0,0,1,2.63-7.51A19,19,0,0,1,83.13,276.86Z"/><path class="cls-1" d="M168.47,251.73a17,17,0,0,0-13,6.18,11.28,11.28,0,0,1,13-6.18Z"/><path class="cls-1" d="M178.3,258.14a27.34,27.34,0,0,0-3.51.42,26.53,26.53,0,0,0-3.42.8,25.4,25.4,0,0,0-6.29,2.93,25,25,0,0,0-5.26,4.53,28.3,28.3,0,0,0-3.91,5.83,20.16,20.16,0,0,1,1.37-3.3,23.54,23.54,0,0,1,1.95-3,20.92,20.92,0,0,1,5.31-4.88,21.79,21.79,0,0,1,3.2-1.7,22.2,22.2,0,0,1,3.43-1.13A21.2,21.2,0,0,1,178.3,258.14Z"/><path class="cls-34" d="M144,236.64a27.71,27.71,0,0,1,2.92,6.72,19.59,19.59,0,0,1,.71,7.5,13.86,13.86,0,0,1-2.82,7.19,15.45,15.45,0,0,1-6.1,4.31,42.65,42.65,0,0,0,4.14-5.62,17.52,17.52,0,0,0,1.8-6.21,33.05,33.05,0,0,0,0-6.74C144.43,241.47,144.07,239.1,144,236.64Z"/><path class="cls-34" d="M157.1,229.9a17.13,17.13,0,0,1,4.06,4.13,21.83,21.83,0,0,1,3.93,10.89,17,17,0,0,1-.48,5.78c-.32-1.91-.64-3.74-1.06-5.54a47,47,0,0,0-1.57-5.27,48.59,48.59,0,0,0-2.15-5.06C159,233.18,158.08,231.57,157.1,229.9Z"/><path class="cls-1" d="M108.47,189.81a19.66,19.66,0,0,0,1.26,3.36,14.7,14.7,0,0,0,2.33,3.32,13.09,13.09,0,0,1-4.55-7.63c-.05-.33-.08-.66-.1-1s.3-.58.49-.57a.22.22,0,0,1,.16.06c.13.12,0,.41.22,1.65C108.28,189,108.35,189.39,108.47,189.81Z"/><path class="cls-1" d="M119,255.29l-3.09.31,0,.49h0l-.22-.51a3.13,3.13,0,0,1,.11-.77l2.58-11.38a.5.5,0,0,0-.12-.44.48.48,0,0,0-.37-.17l-7.46.74a.44.44,0,0,0-.33.18.44.44,0,0,0-.11.36l.18,1.9a.51.51,0,0,0,.5.45l2.83-.27h.33s0,0,0,0a2.48,2.48,0,0,1-.11.76l-2.24,8.76a7.51,7.51,0,0,0-.23,2.26l0,.52a.5.5,0,0,0,.5.45l7.37-.73a.51.51,0,0,0,.45-.55l-.19-1.9A.5.5,0,0,0,119,255.29Z"/><path class="cls-1" d="M119.13,245.76a.47.47,0,0,0,.32.12l2.72-.27a.5.5,0,0,0,.44-.55l-.21-2.13a.5.5,0,0,0-.49-.45l-2.72.27a.52.52,0,0,0-.34.18.53.53,0,0,0-.11.37l.21,2.13A.48.48,0,0,0,119.13,245.76Z"/><path class="cls-1" d="M122.56,246.65a.54.54,0,0,0-.32-.11l-2.72.26a.5.5,0,0,0-.45.53l1.06,10.29a.44.44,0,0,0,.18.33.51.51,0,0,0,.31.11l2.72-.26a.48.48,0,0,0,.45-.53L122.74,247A.52.52,0,0,0,122.56,246.65Z"/><path class="cls-1" d="M131.5,249.28a4.16,4.16,0,0,0-1.12-2.52,3.44,3.44,0,0,0-2.6-.88,7.51,7.51,0,0,0-.8,0l-3.16.31a.48.48,0,0,0-.45.53l1,10.43a.52.52,0,0,0,.18.33.54.54,0,0,0,.32.11l2.72-.26a.51.51,0,0,0,.45-.54l-.84-8.27h.11a.26.26,0,0,1,.22.12,1.62,1.62,0,0,1,.25.86l.73,7.26a.51.51,0,0,0,.5.44l2.71-.26a.51.51,0,0,0,.45-.54Z"/></g></g></svg>