<svg class="animated" id="freepik_stories-brand-creation" xmlns="http://www.w3.org/2000/svg" viewBox="0 0 750 500" version="1.1" xmlns:xlink="http://www.w3.org/1999/xlink" xmlns:svgjs="http://svgjs.com/svgjs"><style>svg#freepik_stories-brand-creation:not(.animated) .animable {opacity: 0;}svg#freepik_stories-brand-creation.animated #els0ek8an257 {animation: 1s 1 forwards cubic-bezier(.36,-0.01,.5,1.38) slideRight;animation-delay: 0s;}svg#freepik_stories-brand-creation.animated #elnakpxl7n4ar {animation: 1s 1 forwards cubic-bezier(.36,-0.01,.5,1.38) slideRight;animation-delay: 0.1s;opacity: 0}svg#freepik_stories-brand-creation.animated #eltm8oiz3j22 {animation: 1s 1 forwards cubic-bezier(.36,-0.01,.5,1.38) slideRight;animation-delay: 0.2s;opacity: 0}svg#freepik_stories-brand-creation.animated #elbegb00oia7o {animation: 1s 1 forwards cubic-bezier(.36,-0.01,.5,1.38) slideRight;animation-delay: 0.30000000000000004s;opacity: 0}svg#freepik_stories-brand-creation.animated #elb5ufjraba1 {animation: 1s 1 forwards cubic-bezier(.36,-0.01,.5,1.38) slideRight;animation-delay: 0.4s;opacity: 0}svg#freepik_stories-brand-creation.animated #el6l7kkparevj {animation: 1s 1 forwards cubic-bezier(.36,-0.01,.5,1.38) slideRight;animation-delay: 0.5s;opacity: 0}svg#freepik_stories-brand-creation.animated #el2dh1tstch59 {animation: 1s 1 forwards cubic-bezier(.36,-0.01,.5,1.38) slideRight;animation-delay: 0.6000000000000001s;opacity: 0}svg#freepik_stories-brand-creation.animated #elqs6zhn41am {animation: 1s 1 forwards cubic-bezier(.36,-0.01,.5,1.38) slideRight;animation-delay: 0.7000000000000001s;opacity: 0}svg#freepik_stories-brand-creation.animated #eltk8bppvxw8 {animation: 1s 1 forwards cubic-bezier(.36,-0.01,.5,1.38) slideRight;animation-delay: 0.8s;opacity: 0}svg#freepik_stories-brand-creation.animated #ele85p1kfy0ye {animation: 1s 1 forwards cubic-bezier(.36,-0.01,.5,1.38) slideRight;animation-delay: 0.9s;opacity: 0}svg#freepik_stories-brand-creation.animated #freepik--background-complete--inject-2 {animation: 1s 1 forwards cubic-bezier(.36,-0.01,.5,1.38) slideRight;animation-delay: 0s;}svg#freepik_stories-brand-creation.animated #freepik--Shadow_3--inject-2 {animation: 1s 1 forwards cubic-bezier(.36,-0.01,.5,1.38) slideDown;animation-delay: 0s;}svg#freepik_stories-brand-creation.animated #freepik--Tool--inject-2 {animation: 1s 1 forwards cubic-bezier(.36,-0.01,.5,1.38) fadeIn,1.5s Infinite  linear heartbeat;animation-delay: 0s,1s;}svg#freepik_stories-brand-creation.animated #freepik--Device--inject-2 {animation: 1s 1 forwards cubic-bezier(.36,-0.01,.5,1.38) fadeIn;animation-delay: 0s;}svg#freepik_stories-brand-creation.animated #freepik--Palette--inject-2 {animation: 1s 1 forwards cubic-bezier(.36,-0.01,.5,1.38) fadeIn;animation-delay: 0s;}svg#freepik_stories-brand-creation.animated #freepik--Control--inject-2 {animation: 1s 1 forwards cubic-bezier(.36,-0.01,.5,1.38) lightSpeedRight,1.5s Infinite  linear floating;animation-delay: 0s,1s;}svg#freepik_stories-brand-creation.animated #freepik--Shadow_2--inject-2 {animation: 1s 1 forwards cubic-bezier(.36,-0.01,.5,1.38) zoomIn;animation-delay: 0s;}svg#freepik_stories-brand-creation.animated #freepik--Text--inject-2 {animation: 1s 1 forwards cubic-bezier(.36,-0.01,.5,1.38) lightSpeedLeft,1.5s Infinite  linear floating;animation-delay: 0s,1s;}svg#freepik_stories-brand-creation.animated #freepik--Colors--inject-2 {animation: 1s 1 forwards cubic-bezier(.36,-0.01,.5,1.38) lightSpeedLeft,1.5s Infinite  linear floating;animation-delay: 0s,1s;}svg#freepik_stories-brand-creation.animated #freepik--Character_2--inject-2 {animation: 1.6s 1 forwards cubic-bezier(.36,-0.01,.5,1.38) zoomOut,3s Infinite  linear wind;animation-delay: 0s,1.6s;}svg#freepik_stories-brand-creation.animated #freepik--shadow_1--inject-2 {animation: 1s 1 forwards cubic-bezier(.36,-0.01,.5,1.38) slideLeft;animation-delay: 0s;}svg#freepik_stories-brand-creation.animated #freepik--Character_1--inject-2 {animation: 1s 1 forwards cubic-bezier(.36,-0.01,.5,1.38) zoomOut,1.5s Infinite  linear wind;animation-delay: 0s,1s;}            @keyframes slideRight {                0% {                    opacity: 0;                    transform: translateX(30px);                }                100% {                    opacity: 1;                    transform: translateX(0);                }            }                    @keyframes slideDown {                0% {                    opacity: 0;                    transform: translateY(-30px);                }                100% {                    opacity: 1;                    transform: translateY(0);                }            }                    @keyframes fadeIn {                0% {                    opacity: 0;                }                100% {                    opacity: 1;                }            }                    @keyframes heartbeat {                0% {                    transform: scale(1);                }                10% {                    transform: scale(1.1);                }                30% {                    transform: scale(1);                }                40% {                    transform: scale(1);                }                50% {                    transform: scale(1.1);                }                60% {                    transform: scale(1);                }                100% {                    transform: scale(1);                }            }                    @keyframes lightSpeedRight {              from {                transform: translate3d(50%, 0, 0) skewX(-20deg);                opacity: 0;              }              60% {                transform: skewX(10deg);                opacity: 1;              }              80% {                transform: skewX(-2deg);              }              to {                opacity: 1;                transform: translate3d(0, 0, 0);              }            }                    @keyframes floating {                0% {                    opacity: 1;                    transform: translateY(0px);                }                50% {                    transform: translateY(-10px);                }                100% {                    opacity: 1;                    transform: translateY(0px);                }            }                    @keyframes zoomIn {                0% {                    opacity: 0;                    transform: scale(0.5);                }                100% {                    opacity: 1;                    transform: scale(1);                }            }                    @keyframes lightSpeedLeft {              from {                transform: translate3d(-50%, 0, 0) skewX(20deg);                opacity: 0;              }              60% {                transform: skewX(-10deg);                opacity: 1;              }              80% {                transform: skewX(2deg);              }              to {                opacity: 1;                transform: translate3d(0, 0, 0);              }            }                    @keyframes zoomOut {                0% {                    opacity: 0;                    transform: scale(1.5);                }                100% {                    opacity: 1;                    transform: scale(1);                }            }                    @keyframes wind {                0% {                    transform: rotate( 0deg );                }                25% {                    transform: rotate( 1deg );                }                75% {                    transform: rotate( -1deg );                }            }                    @keyframes slideLeft {                0% {                    opacity: 0;                    transform: translateX(-30px);                }                100% {                    opacity: 1;                    transform: translateX(0);                }            }        .animator-hidden { display: none; }</style><g id="freepik--background-complete--inject-2" class="animable animator-hidden" style="transform-origin: 375px 233.125px;"><g id="els0ek8an257" class="animable" style="transform-origin: 375px 232.142px;"><g id="el0spdtxqpiyde" class="animable" style="transform-origin: 375px 215.02px;"><g id="elypov5ddfb58" class="animable" style="transform-origin: 375px 184.426px;"><g id="eltenz3xanvq" class="animable" style="transform-origin: 479.147px 184.426px;"><path d="M673.734,321.925h-180.746c-3.232,0-5.862-2.63-5.862-5.862V52.789c0-3.232,2.63-5.862,5.862-5.862h180.746c3.232,0,5.862,2.629,5.862,5.862V316.063c0,3.233-2.63,5.862-5.862,5.862ZM492.988,47.177c-3.095,0-5.612,2.518-5.612,5.612V316.063c0,3.095,2.518,5.612,5.612,5.612h180.746c3.095,0,5.612-2.518,5.612-5.612V52.789c0-3.094-2.518-5.612-5.612-5.612h-180.746Z" style="fill: rgb(224, 224, 224); transform-origin: 583.361px 184.426px;" id="elim92urg60o" class="animable"></path><path d="M465.306,321.925h-180.747c-3.232,0-5.862-2.63-5.862-5.862V52.789c0-3.232,2.629-5.862,5.862-5.862h180.747c3.232,0,5.862,2.629,5.862,5.862V316.063c0,3.233-2.63,5.862-5.862,5.862ZM284.559,47.177c-3.094,0-5.612,2.518-5.612,5.612V316.063c0,3.095,2.518,5.612,5.612,5.612h180.747c3.095,0,5.612-2.518,5.612-5.612V52.789c0-3.094-2.518-5.612-5.612-5.612h-180.747Z" style="fill: rgb(224, 224, 224); transform-origin: 374.933px 184.426px;" id="elbii3oznvpm" class="animable"></path></g><path d="M257.012,321.925H76.266c-3.232,0-5.862-2.63-5.862-5.862V52.789c0-3.232,2.629-5.862,5.862-5.862h180.746c3.232,0,5.862,2.629,5.862,5.862V316.063c0,3.233-2.63,5.862-5.862,5.862ZM76.266,47.177c-3.094,0-5.612,2.518-5.612,5.612V316.063c0,3.095,2.518,5.612,5.612,5.612h180.746c3.095,0,5.612-2.518,5.612-5.612V52.789c0-3.094-2.517-5.612-5.612-5.612H76.266Z" style="fill: rgb(224, 224, 224); transform-origin: 166.639px 184.426px;" id="el6tknqon3ndv" class="animable"></path></g><rect y="382.994" width="750" height=".12" style="fill: rgb(224, 224, 224); transform-origin: 375px 383.054px;" id="eljgg3nb2m6x" class="animable"></rect></g><g id="el1m4jawyxhs1" class="animable" style="transform-origin: 375px 408.465px;"><rect x="653.626" y="412.37" width="55.729" height=".421" style="fill: rgb(235, 235, 235); transform-origin: 681.49px 412.581px;" id="elnm2seuv3qq" class="animable"></rect><rect x="495.044" y="416.936" width="14.627" height=".42" style="fill: rgb(235, 235, 235); transform-origin: 502.357px 417.146px;" id="elzjorthqn70h" class="animable"></rect><rect x="40.645" y="399.573" width="72.675" height=".421" style="fill: rgb(235, 235, 235); transform-origin: 76.9825px 399.784px;" id="elwydj3ivp9in" class="animable"></rect><rect x="128.299" y="399.573" width="10.655" height=".421" style="fill: rgb(235, 235, 235); transform-origin: 133.626px 399.784px;" id="elvgrsk8u335" class="animable"></rect><rect x="173.586" y="406.677" width="157.613" height=".421" style="fill: rgb(235, 235, 235); transform-origin: 252.393px 406.888px;" id="elo3rfr8rggwd" class="animable"></rect></g></g><path d="M476.485,82.819c-2.202,3.353-3.682,7.036-4.471,10.834l-6.05,.57v11.717l6.051,.57c.788,3.798,2.269,7.481,4.471,10.835l-3.865,4.667,8.285,8.285,4.668-3.864c3.354,2.202,7.036,3.683,10.835,4.471l.57,6.051h11.717l.57-6.05c3.799-.789,7.482-2.27,10.835-4.471l4.667,3.864,8.285-8.285-3.864-4.668c2.201-3.354,3.682-7.036,4.471-10.835l6.05-.57v-11.717l-6.049-.57c-.789-3.798-2.27-7.481-4.472-10.834l3.864-4.668-8.285-8.285-4.667,3.864c-3.354-2.202-7.037-3.683-10.835-4.472l-.57-6.05h-11.717l-.57,6.051c-3.798,.789-7.481,2.269-10.834,4.471l-4.668-3.865-8.285,8.286,3.865,4.668Zm37.568,6.047c6.194,6.194,6.194,16.238,0,22.432-6.195,6.195-16.239,6.194-22.432,0-6.195-6.194-6.194-16.237,0-22.432,6.194-6.194,16.237-6.194,22.432,0Z" style="fill: rgb(224, 224, 224); transform-origin: 502.837px 100.081px;" id="elnakpxl7n4ar" class="animable"></path><path d="M88.578,262.265c-2.617,3.985-4.377,8.363-5.315,12.878l-7.191,.677v13.927l7.192,.677c.936,4.514,2.697,8.892,5.314,12.878l-4.594,5.548,9.848,9.848,5.548-4.593c3.986,2.617,8.363,4.377,12.878,5.314l.677,7.192h13.927l.678-7.191c4.515-.938,8.893-2.698,12.879-5.315l5.548,4.593,9.848-9.848-4.593-5.548c2.616-3.986,4.377-8.363,5.314-12.878l7.19-.677v-13.927l-7.19-.678c-.937-4.514-2.698-8.892-5.315-12.877l4.593-5.548-9.848-9.848-5.548,4.593c-3.986-2.617-8.364-4.378-12.878-5.315l-.677-7.191h-13.927l-.677,7.192c-4.515,.938-8.892,2.697-12.877,5.314l-5.548-4.593-9.848,9.848,4.594,5.548Zm44.653,7.187c7.362,7.363,7.362,19.301,0,26.663-7.363,7.363-19.301,7.362-26.663,0-7.363-7.363-7.362-19.3,0-26.663,7.363-7.362,19.3-7.363,26.663,0Z" style="fill: rgb(224, 224, 224); transform-origin: 119.899px 282.783px;" id="eltm8oiz3j22" class="animable"></path><path d="M195.102,68.936c-2.202,3.353-3.682,7.036-4.471,10.835l-6.05,.57v11.717l6.051,.57c.788,3.798,2.269,7.481,4.471,10.835l-3.865,4.667,8.285,8.285,4.667-3.864c3.354,2.202,7.036,3.683,10.835,4.471l.57,6.051h11.717l.57-6.05c3.799-.789,7.482-2.27,10.835-4.471l4.667,3.864,8.285-8.285-3.864-4.668c2.201-3.354,3.682-7.036,4.471-10.835l6.05-.57v-11.717l-6.049-.57c-.789-3.798-2.27-7.481-4.472-10.834l3.864-4.668-8.285-8.285-4.667,3.864c-3.354-2.202-7.037-3.683-10.835-4.472l-.57-6.05h-11.717l-.57,6.051c-3.798,.789-7.481,2.269-10.834,4.471l-4.668-3.865-8.285,8.286,3.865,4.668Zm37.568,6.047c6.194,6.194,6.194,16.238,0,22.432-6.195,6.195-16.239,6.194-22.432,0-6.195-6.194-6.194-16.237,0-22.432,6.195-6.194,16.237-6.194,22.432,0Z" style="fill: rgb(224, 224, 224); transform-origin: 221.454px 86.1995px;" id="elbegb00oia7o" class="animable"></path><path d="M437.44,45.648c-1.046,1.592-1.749,3.342-2.124,5.146l-2.874,.271v5.565l2.874,.271c.374,1.804,1.078,3.553,2.124,5.146l-1.836,2.217,3.935,3.935,2.217-1.835c1.593,1.046,3.342,1.749,5.146,2.123l.271,2.874h5.565l.271-2.874c1.804-.375,3.554-1.078,5.146-2.124l2.217,1.835,3.935-3.935-1.835-2.217c1.045-1.593,1.749-3.342,2.123-5.146l2.873-.271v-5.565l-2.873-.271c-.375-1.804-1.078-3.553-2.124-5.146l1.835-2.217-3.935-3.935-2.217,1.835c-1.593-1.046-3.342-1.75-5.146-2.124l-.271-2.874h-5.565l-.271,2.874c-1.804,.375-3.553,1.078-5.146,2.124l-2.217-1.836-3.935,3.936,1.836,2.217Zm17.844,2.872c2.942,2.942,2.942,7.713,0,10.655-2.942,2.942-7.713,2.942-10.655,0-2.942-2.942-2.942-7.712,0-10.655,2.942-2.942,7.712-2.942,10.655,0Z" style="fill: rgb(224, 224, 224); transform-origin: 449.955px 53.8465px;" id="elb5ufjraba1" class="animable"></path><path d="M254.343,33.096c-1.046,1.593-1.749,3.342-2.124,5.146l-2.874,.271v5.565l2.874,.271c.374,1.804,1.078,3.553,2.124,5.146l-1.836,2.217,3.935,3.935,2.217-1.835c1.593,1.046,3.342,1.749,5.146,2.123l.271,2.874h5.565l.271-2.874c1.804-.375,3.554-1.078,5.147-2.124l2.217,1.835,3.935-3.935-1.835-2.217c1.045-1.593,1.749-3.342,2.123-5.146l2.874-.271v-5.565l-2.873-.271c-.375-1.804-1.078-3.553-2.124-5.146l1.835-2.217-3.935-3.935-2.217,1.835c-1.593-1.046-3.342-1.75-5.146-2.124l-.271-2.874h-5.565l-.271,2.874c-1.804,.375-3.553,1.078-5.146,2.124l-2.217-1.836-3.935,3.936,1.836,2.217Zm17.844,2.872c2.942,2.942,2.942,7.713,0,10.655-2.942,2.942-7.713,2.942-10.655,0-2.942-2.942-2.942-7.712,0-10.655,2.942-2.942,7.712-2.942,10.655,0Z" style="fill: rgb(224, 224, 224); transform-origin: 266.859px 41.2945px;" id="el6l7kkparevj" class="animable"></path><path d="M73.408,343.605c-1.046,1.593-1.749,3.342-2.124,5.146l-2.874,.271v5.565l2.874,.271c.374,1.804,1.078,3.553,2.124,5.146l-1.836,2.217,3.936,3.935,2.217-1.835c1.593,1.046,3.342,1.749,5.146,2.124l.271,2.874h5.565l.271-2.874c1.804-.375,3.554-1.078,5.146-2.124l2.217,1.835,3.936-3.935-1.835-2.217c1.045-1.593,1.749-3.342,2.123-5.146l2.874-.271v-5.565l-2.873-.271c-.375-1.804-1.078-3.553-2.124-5.146l1.835-2.217-3.935-3.935-2.217,1.835c-1.593-1.046-3.342-1.75-5.146-2.124l-.271-2.874h-5.566l-.271,2.874c-1.804,.375-3.553,1.078-5.146,2.124l-2.217-1.836-3.936,3.936,1.836,2.217Zm17.844,2.872c2.942,2.942,2.942,7.713,0,10.655-2.942,2.942-7.713,2.942-10.655,0-2.942-2.942-2.942-7.713,0-10.655,2.942-2.942,7.713-2.942,10.655,0Z" style="fill: rgb(224, 224, 224); transform-origin: 85.9245px 351.805px;" id="el2dh1tstch59" class="animable"></path><path d="M662.238,152.231c-1.046,1.592-1.749,3.342-2.124,5.146l-2.874,.271v5.565l2.874,.271c.374,1.804,1.078,3.553,2.124,5.146l-1.836,2.217,3.935,3.935,2.217-1.835c1.593,1.046,3.342,1.749,5.146,2.123l.271,2.874h5.565l.271-2.874c1.804-.375,3.554-1.078,5.146-2.124l2.217,1.835,3.935-3.935-1.835-2.217c1.045-1.593,1.749-3.342,2.123-5.146l2.873-.271v-5.565l-2.873-.271c-.375-1.804-1.078-3.553-2.124-5.146l1.835-2.217-3.935-3.935-2.217,1.835c-1.593-1.046-3.343-1.75-5.146-2.124l-.271-2.874h-5.566l-.271,2.874c-1.804,.375-3.553,1.078-5.146,2.124l-2.217-1.836-3.935,3.936,1.836,2.217Zm17.844,2.872c2.942,2.942,2.942,7.713,0,10.655-2.943,2.942-7.713,2.942-10.655,0-2.942-2.942-2.942-7.712,0-10.655,2.942-2.942,7.712-2.942,10.655,0Z" style="fill: rgb(224, 224, 224); transform-origin: 674.753px 160.43px;" id="elqs6zhn41am" class="animable"></path><path d="M64.465,138.023c-1.046,1.592-1.749,3.342-2.124,5.146l-2.874,.271v5.565l2.874,.271c.374,1.804,1.078,3.553,2.124,5.146l-1.836,2.217,3.935,3.935,2.217-1.835c1.593,1.046,3.342,1.749,5.146,2.124l.271,2.874h5.565l.271-2.874c1.804-.375,3.554-1.078,5.146-2.124l2.217,1.835,3.935-3.935-1.835-2.217c1.046-1.593,1.749-3.342,2.123-5.146l2.874-.271v-5.565l-2.873-.271c-.375-1.804-1.078-3.553-2.124-5.146l1.835-2.217-3.935-3.935-2.217,1.835c-1.593-1.046-3.342-1.75-5.146-2.124l-.271-2.874h-5.566l-.271,2.874c-1.804,.375-3.553,1.078-5.146,2.124l-2.217-1.836-3.935,3.936,1.836,2.217Zm17.844,2.872c2.942,2.942,2.942,7.713,0,10.655-2.943,2.942-7.713,2.942-10.655,0-2.942-2.942-2.942-7.713,0-10.655,2.942-2.942,7.713-2.942,10.655,0Z" style="fill: rgb(224, 224, 224); transform-origin: 76.9805px 146.222px;" id="eltk8bppvxw8" class="animable"></path><g id="ele85p1kfy0ye" class="animable" style="transform-origin: 659.656px 383.077px;"><g id="el0qz0rl17n3sd" class="animable" style="transform-origin: 657.993px 381.274px;"><path d="M657.017,417.719c-.015-.481-1.632-48.2-9.394-55.748-7.549-7.339-16.214-.273-16.578,.031l-.778-.933c.098-.083,9.877-8.065,18.204,.031,8.111,7.887,9.697,54.596,9.761,56.581l-1.214,.038Z" style="fill: rgb(224, 224, 224); transform-origin: 644.25px 387.597px;" id="el2si2zwnx0qz" class="animable"></path><path d="M657.684,427.098c-.056-.57-5.305-57.288,15.408-81.059l.916,.797c-20.369,23.378-15.169,79.579-15.115,80.143l-1.209,.119Z" style="fill: rgb(224, 224, 224); transform-origin: 665.529px 386.568px;" id="elupdqizubgts" class="animable"></path><path d="M656.918,421.098l-1.212-.081c.043-.643,4.054-64.479-11.14-78.454l.822-.895c15.619,14.367,11.704,76.779,11.53,79.429Z" style="fill: rgb(224, 224, 224); transform-origin: 651.022px 381.383px;" id="elewa9tu7uaob" class="animable"></path><path d="M658.896,421.062l-1.215-.009c.015-1.758,.501-43.119,12.25-49.851,2.612-1.498,5.169-1.748,7.602-.742,7.104,2.939,10.625,15.582,10.771,16.118l-1.172,.32c-.034-.126-3.51-12.607-10.065-15.316-2.066-.853-4.263-.628-6.532,.673-11.148,6.389-11.635,48.384-11.639,48.808Z" style="fill: rgb(224, 224, 224); transform-origin: 672.992px 395.459px;" id="els3pwy80bdr" class="animable"></path><path d="M654.32,421.092l-1.212-.069c.018-.326,1.772-32.685-6.961-44.086-2.116-2.762-4.413-4.079-6.839-3.909-5.722,.4-10.52,8.773-10.568,8.857l-1.058-.598c.208-.368,5.165-9.025,11.539-9.471,2.851-.203,5.509,1.274,7.89,4.382,9.007,11.758,7.286,43.546,7.208,44.892Z" style="fill: rgb(224, 224, 224); transform-origin: 641.091px 396.445px;" id="elw0dcihqn07" class="animable"></path><path d="M656.235,425.494c-.238-3.139-5.709-77.024,3.917-90.044l.976,.721c-9.36,12.66-3.74,88.466-3.683,89.23l-1.211,.093Z" style="fill: rgb(224, 224, 224); transform-origin: 657.8px 380.472px;" id="elj2o5gcta268" class="animable"></path></g><path d="M680.15,377.948s-5.775,2.129-4.058,7.155c1.717,5.026,19.978,13.298,19.978,13.298,0,0,7.648-7.01,.624-18.41-7.023-11.4-16.388-5.64-16.544-2.043Z" style="fill: rgb(235, 235, 235); transform-origin: 687.717px 385.832px;" id="eli1pmvpsh0b" class="animable"></path><path d="M655.045,368.38s6.149-.258,6.499,5.042c.349,5.3-13.322,19.962-13.322,19.962,0,0-9.756-3.527-7.661-16.752,2.096-13.225,12.956-11.512,14.484-8.252Z" style="fill: rgb(235, 235, 235); transform-origin: 650.908px 379.725px;" id="eln1n1mx8epf7" class="animable"></path><path d="M649.839,343.011s4.1-.44,3.77-2.938c-.33-2.497-15.938-8.925-25.146,1.468,0,0,5.896,10.129,14.42,10.261,8.524,.132,6.957-8.792,6.957-8.792Z" style="fill: rgb(235, 235, 235); transform-origin: 641.045px 343.806px;" id="elfq0wfn8mfw" class="animable"></path><path d="M657.479,336.947s-3.712,1.795-4.753-.499c-1.041-2.294,8.806-16.003,22.118-12.053,0,0,.353,11.714-6.811,16.335-7.164,4.621-10.554-3.782-10.554-3.782Z" style="fill: rgb(235, 235, 235); transform-origin: 663.749px 332.901px;" id="eley8vaswiqb" class="animable"></path><path d="M638.068,375.928s2.829-2.285-.224-3.4c-3.054-1.115-18.037-.798-18.193,14.044,0,0,17.451,2.9,19.611-2.753,2.16-5.654-1.193-7.891-1.193-7.891Z" style="fill: rgb(235, 235, 235); transform-origin: 629.819px 379.726px;" id="elsodf0cntb3h" class="animable"></path><path d="M673.653,342.639s-2.83-2.285,.224-3.4,18.037-.798,18.193,14.044c0,0-17.451,2.9-19.611-2.754-2.16-5.653,1.194-7.89,1.194-7.89Z" style="fill: rgb(235, 235, 235); transform-origin: 681.902px 346.437px;" id="elj8gceu3h27n" class="animable"></path><path d="M664.427,354.595s-.249-2.777,1.993-1.689c2.242,1.089,10.053,9.515,1.956,17.512,0,0-10.899-8.072-8.935-12.276,1.965-4.204,4.985-3.547,4.985-3.547Z" style="fill: rgb(235, 235, 235); transform-origin: 665.586px 361.536px;" id="el2w4shdqzxlu" class="animable"></path><path d="M635.538,358.553s1.692-2.217-.786-2.491c-2.477-.275-13.579,2.688-10.993,13.771,0,0,13.524-1.017,14.104-5.62,.58-4.604-2.325-5.659-2.325-5.659Z" style="fill: rgb(235, 235, 235); transform-origin: 630.655px 362.939px;" id="elfu7i2p3bprd" class="animable"></path><polygon points="670.265 442.47 642.985 442.47 635.729 409.002 676.832 409.002 670.265 442.47" style="fill: rgb(240, 240, 240); transform-origin: 656.28px 425.736px;" id="elinqxw08e0v" class="animable"></polygon><rect x="633.254" y="408.517" width="45.946" height="9.624" style="fill: rgb(230, 230, 230); transform-origin: 656.227px 413.329px;" id="eld80dj3zfsip" class="animable"></rect></g></g><g id="freepik--Shadow_3--inject-2" class="animable" style="transform-origin: 382.934px 450.672px;"><path d="M591.809,450.672c0,6.71-93.517,12.149-208.875,12.149s-208.875-5.439-208.875-12.149,93.516-12.149,208.875-12.149,208.875,5.439,208.875,12.149Z" style="fill: rgb(245, 245, 245); transform-origin: 382.934px 450.672px;" id="elgynnjhpoeps" class="animable"></path></g><g id="freepik--Tool--inject-2" class="animable" style="transform-origin: 125.407px 97.745px;"><g id="elg3fg8furopt" class="animable" style="transform-origin: 125.407px 97.745px;"><polygon points="108.579 121.007 94.734 98.134 111.574 72.406 138.833 76.443 165.423 120.701 159.53 129.386 108.579 121.007" style="fill: rgb(230, 230, 230); transform-origin: 130.079px 100.896px;" id="el5uz97zs2q6" class="animable"></polygon><polygon points="85.391 91.846 102.233 66.104 111.64 72.494 94.8 98.222 85.391 91.846" style="fill: #56D478; transform-origin: 98.5155px 82.163px;" id="elxipceyadswq" class="animable"></polygon><g id="elz0s4roypsq"><rect x="139.339" y="83.079" width="2.22" height="53.6" style="fill: rgb(55, 89, 102); transform-origin: 140.449px 109.879px; transform: rotate(-55.827deg);" class="animable" id="elon8qx1fuxmh"></rect></g><path d="M118.601,101.064c-2.318-1.577-2.919-4.734-1.342-7.052,1.577-2.318,4.734-2.919,7.052-1.342,2.318,1.577,2.919,4.734,1.342,7.052l-.005,.008c-1.579,2.312-4.731,2.909-7.046,1.334Z" style="fill: rgb(55, 89, 102); transform-origin: 121.456px 96.867px;" id="elene177jicdm" class="animable"></path></g></g><g id="freepik--Device--inject-2" class="animable" style="transform-origin: 375.984px 266.583px;"><g id="elcbw9lzrzqwj" class="animable" style="transform-origin: 375.984px 266.583px;"><path d="M205.397,138.95l3.329,5.549c.408,.707,1.171,1.133,1.987,1.11,1.712-.128,3.431-.102,5.138,.078,1.687,.355,1.887-6.659,1.887-6.659l-12.341-.078Z" style="fill: rgb(253, 170, 109); transform-origin: 211.567px 142.325px;" id="el16jg0xfw6l3" class="animable"></path><path d="M202.889,139.028c1.341-1.931,3.542-3.084,5.893-3.085h3.995l4.961,3.085h-14.849Z" style="fill: rgb(253, 170, 109); transform-origin: 210.314px 137.485px;" id="eluqza7i55gb" class="animable"></path><g id="el4qb5jbsqa5c" class="animable" style="transform-origin: 375.984px 224.834px;"><rect x="190.66" y="90.904" width="370.649" height="267.86" rx="19.724" ry="19.724" style="fill: rgb(55, 89, 102); transform-origin: 375.985px 224.834px;" id="el65q3nxp8wpm" class="animable"></rect><g id="elox0nqrlcxy"><rect x="190.66" y="90.904" width="370.649" height="267.86" rx="19.724" ry="19.724" style="fill: rgb(255, 255, 255); opacity: 0.3; transform-origin: 375.985px 224.834px;" class="animable" id="elgbvgzeurz"></rect></g></g><g id="elru51bwh4v8" class="animable" style="transform-origin: 375.984px 218.774px;"><rect x="205.497" y="105.598" width="340.824" height="234.706" rx="11.672" ry="11.672" style="fill: #56D478; transform-origin: 375.909px 222.951px;" id="elkv67l32phfj" class="animable"></rect><g id="elavu5s6tz38l"><path d="M217.32,105.596h317.479c6.442,0,11.673,5.23,11.673,11.673v211.362c0,6.442-5.23,11.672-11.672,11.672H217.32c-6.442,0-11.672-5.23-11.672-11.672V117.268c0-6.442,5.23-11.672,11.672-11.672Z" style="fill: rgb(255, 255, 255); opacity: 0.7; transform-origin: 376.06px 222.949px;" class="animable" id="el6yrhj4zuakx"></path></g><g id="el89ilnzvspik" class="animable" style="transform-origin: 375.91px 110.238px;"><path d="M212.785,105.598h323.249c5.678,0,10.288,4.61,10.288,10.288v7.345H205.497v-10.345c0-4.022,3.266-7.288,7.288-7.288Z" style="fill: #56D478; transform-origin: 375.91px 114.415px;" id="elf5v7j4p46sd" class="animable"></path><path d="M533.196,114.414c0,2.069-1.677,3.747-3.747,3.747s-3.746-1.677-3.746-3.747,1.677-3.747,3.746-3.747,3.747,1.677,3.747,3.747Z" style="fill: rgb(255, 255, 255); transform-origin: 529.449px 114.414px;" id="elawqomsivuq" class="animable"></path><path d="M522.548,114.414c0,2.069-1.677,3.747-3.746,3.747s-3.747-1.677-3.747-3.747,1.677-3.747,3.747-3.747,3.746,1.677,3.746,3.747Z" style="fill: rgb(255, 255, 255); transform-origin: 518.801px 114.414px;" id="elu8mjsvzkaf" class="animable"></path><circle cx="508.154" cy="114.414" r="3.747" style="fill: rgb(255, 255, 255); transform-origin: 508.154px 114.414px;" id="el0seu1z8i9kzp" class="animable"></circle><g id="elmmlz10zi51" class="animable" style="transform-origin: 286.878px 97.745px;"><path d="M294.468,98.245h-29.401c-.276,0-.5-.224-.5-.5s.224-.5,.5-.5h29.401c.276,0,.5,.224,.5,.5s-.224,.5-.5,.5Z" style="fill: #56D478; transform-origin: 279.767px 97.745px;" id="eligmtjl6ulx" class="animable"></path><path d="M308.689,98.245h-6.123c-.276,0-.5-.224-.5-.5s.224-.5,.5-.5h6.123c.276,0,.5,.224,.5,.5s-.224,.5-.5,.5Z" style="fill: #56D478; transform-origin: 305.628px 97.745px;" id="elo3l2hbel7pd" class="animable"></path></g></g></g><g id="els2q26vo1f2" class="animable" style="transform-origin: 385.766px 400.038px;"><g id="elu1rhl7rormh" class="animable" style="transform-origin: 385.766px 400.038px;"><path d="M339.975,357.822l-8.387,72.573h-20.713c-4.494,0-8.138,4.957-8.138,11.072v.795h166.058c0-7.266-4.36-13.13-9.7-13.041-8.041,.133-18.112,.218-17.809-.195,.503-.685-11.073-72.116-10.402-71.203,.671,.913-90.911,0-90.911,0Z" style="fill: rgb(55, 89, 102); transform-origin: 385.766px 400.038px;" id="elv14swnkd0v" class="animable"></path><g id="elw70qk4jvtn"><path d="M339.975,357.822l-8.387,72.573h-20.713c-4.494,0-8.138,4.957-8.138,11.072v.795h166.058c0-7.266-4.36-13.13-9.7-13.041-8.041,.133-18.112,.218-17.809-.195,.503-.685-11.073-72.116-10.402-71.203,.671,.913-90.911,0-90.911,0Z" style="fill: rgb(255, 255, 255); opacity: 0.3; transform-origin: 385.766px 400.038px;" class="animable" id="eloya316mafsn"></path></g></g><g id="el8onsfgqex8a"><polygon points="339.801 359.324 430.996 359.324 432.535 370.045 338.562 370.045 339.801 359.324" style="opacity: 0.3; transform-origin: 385.549px 364.685px;" class="animable" id="el9evjhvg38e4"></polygon></g></g><g id="elzwfjewnu38q" class="animable" style="transform-origin: 381.936px 232.142px;"><g id="elinix1jcnynd" class="animable" style="transform-origin: 381.415px 232.176px;"><path d="M299.005,242.575c0,8.081-6.822,12.785-19.606,12.785h-26.098v-46.367h24.773c12.784,0,18.746,5.1,18.746,12.122,0,4.305-2.186,7.882-6.425,10.002,5.432,1.987,8.611,5.961,8.611,11.459Zm-30.337-22.653v6.889h7.286c3.511,0,5.1-1.192,5.1-3.444s-1.589-3.444-5.1-3.444h-7.286Zm14.572,20.865c0-2.385-1.722-3.643-5.166-3.643h-9.406v7.286h9.406c3.444,0,5.166-1.259,5.166-3.643Z" style="fill: #56D478; transform-origin: 276.154px 232.176px;" id="elbuvcemkiptl" class="animable"></path><path d="M324.379,243.701h-4.239v11.659h-15.632v-46.367h22.323c12.916,0,21.13,6.756,21.13,17.487,0,6.69-3.18,11.724-8.744,14.572l9.737,14.308h-16.692l-7.882-11.659Zm1.457-22.653h-5.697v10.863h5.697c4.305,0,6.359-2.054,6.359-5.432s-2.054-5.432-6.359-5.432Z" style="fill: #56D478; transform-origin: 326.731px 232.176px;" id="el72cpz0nmgdn" class="animable"></path><path d="M385.455,247.278h-17.619l-3.113,8.082h-15.897l20.268-46.367h15.368l20.269,46.367h-16.162l-3.113-8.082Zm-4.306-11.261l-4.504-11.658-4.504,11.658h9.008Z" style="fill: #56D478; transform-origin: 376.779px 232.176px;" id="elrk7wonrr" class="animable"></path><path d="M452.957,208.992v46.367h-12.851l-17.619-21.064v21.064h-15.235v-46.367h12.85l17.619,21.064v-21.064h15.235Z" style="fill: #56D478; transform-origin: 430.105px 232.176px;" id="el66ek2cjt7td" class="animable"></path><path d="M460.512,208.992h22.853c15.5,0,26.164,8.81,26.164,23.183s-10.664,23.184-26.164,23.184h-22.853v-46.367Zm22.19,34.179c6.558,0,11.062-3.908,11.062-10.996s-4.504-10.996-11.062-10.996h-6.558v21.991h6.558Z" style="fill: #56D478; transform-origin: 485.02px 232.176px;" id="elghf6568iuv" class="animable"></path></g><path d="M359.197,246.718v.429c-.008,.207,.035,.399,.129,.578,.06,.186,.164,.347,.31,.483,.136,.146,.297,.25,.483,.31,.179,.094,.371,.137,.578,.129l.399-.054c.254-.071,.475-.2,.662-.386l.235-.304c.136-.234,.204-.486,.205-.757v-.429c.008-.207-.035-.399-.129-.578-.06-.186-.164-.347-.31-.483-.136-.146-.297-.25-.483-.31-.179-.094-.371-.137-.578-.129l-.399,.054c-.254,.071-.475,.2-.662,.386l-.235,.304c-.136,.234-.204,.486-.205,.757h0Z" style="fill: #56D478; transform-origin: 360.697px 246.932px;" id="elima653tmkcg" class="animable"></path><g id="eldib4d55pn39" class="animable" style="transform-origin: 381.936px 232.142px;"><path d="M515.027,267.966H249.299v-71.548h265.728v71.548Zm-264.728-1h263.728v-69.548H250.299v69.548Z" style="fill: rgb(55, 89, 102); transform-origin: 382.163px 232.192px;" id="ell4kdmoxgy4s" class="animable"></path><rect x="246.641" y="192.736" width="6.317" height="6.316" style="fill: rgb(55, 89, 102); transform-origin: 249.799px 195.894px;" id="elu5648yrcxgn" class="animable"></rect><rect x="246.186" y="265.232" width="6.317" height="6.317" style="fill: rgb(55, 89, 102); transform-origin: 249.345px 268.391px;" id="elgu2hjvf03ao" class="animable"></rect><rect x="380.665" y="193.76" width="6.317" height="6.316" style="fill: rgb(55, 89, 102); transform-origin: 383.824px 196.918px;" id="el8s3gyzhgewu" class="animable"></rect><rect x="379.776" y="264.308" width="6.316" height="6.316" style="fill: rgb(55, 89, 102); transform-origin: 382.934px 267.466px;" id="elrd1tdv1neqp" class="animable"></rect><rect x="511.369" y="193.76" width="6.316" height="6.316" style="fill: rgb(55, 89, 102); transform-origin: 514.527px 196.918px;" id="eljnu8rgymtb9" class="animable"></rect><rect x="511.369" y="264.308" width="6.316" height="6.316" style="fill: rgb(55, 89, 102); transform-origin: 514.527px 267.466px;" id="ela5khyprwqds" class="animable"></rect></g></g></g></g><g id="freepik--Palette--inject-2" class="animable" style="transform-origin: 625.937px 281.132px;"><g id="elblctkpb3u4c" class="animable" style="transform-origin: 625.937px 281.132px;"><g id="elb591dwwo8d" class="animable" style="transform-origin: 633.953px 303.708px;"><g id="elezm023pte6g"><rect x="600.897" y="208.157" width="66.111" height="191.102" style="fill: #56D478; transform-origin: 633.953px 303.708px; transform: rotate(44.354deg);" class="animable" id="elagwy3cf7nes"></rect></g><g id="elg5wvv8c3dso"><rect x="600.897" y="208.157" width="66.111" height="191.102" style="fill: rgb(255, 255, 255); opacity: 0.1; transform-origin: 633.953px 303.708px; transform: rotate(44.354deg);" class="animable" id="elo3t9fne6zs"></rect></g><g id="elhc0j0ml4ne9"><rect x="600.897" y="208.157" width="66.111" height="191.102" style="fill: rgb(255, 255, 255); opacity: 0.5; transform-origin: 633.953px 303.708px; transform: rotate(44.354deg);" class="animable" id="elzbdltvcpnv"></rect></g><g id="el0bfdpnv91ui" class="animable" style="transform-origin: 636.947px 300.645px;"><g id="elxrqpsici1ya" class="animable" style="transform-origin: 677.807px 258.853px;"><g id="el1xmv6qx1ye9"><rect x="651.183" y="232.229" width="53.248" height="53.248" style="fill: rgb(55, 89, 102); transform-origin: 677.807px 258.853px; transform: rotate(44.354deg);" class="animable" id="elto89ril4ur9"></rect></g><g id="ely4n2y9cn5pl"><rect x="651.183" y="232.229" width="53.248" height="53.248" style="fill: rgb(255, 255, 255); opacity: 0.6; transform-origin: 677.807px 258.853px; transform: rotate(44.354deg);" class="animable" id="el8qr43mpwm4d"></rect></g></g><g id="elfybt0t1vfh" class="animable" style="transform-origin: 636.947px 300.645px;"><g id="eld91focacfzb"><rect x="610.323" y="274.021" width="53.248" height="53.248" style="fill: rgb(55, 89, 102); transform-origin: 636.947px 300.645px; transform: rotate(44.354deg);" class="animable" id="elddqpwyb5mxj"></rect></g><g id="ela8jwlsakv8t"><rect x="610.323" y="274.021" width="53.248" height="53.248" style="fill: rgb(255, 255, 255); opacity: 0.4; transform-origin: 636.947px 300.645px; transform: rotate(44.354deg);" class="animable" id="elus6dlmncqjq"></rect></g></g><g id="elrjkx6ss1o" class="animable" style="transform-origin: 596.087px 342.437px;"><g id="ell2m5ihq5i3g"><rect x="569.463" y="315.813" width="53.248" height="53.248" style="fill: rgb(55, 89, 102); transform-origin: 596.087px 342.437px; transform: rotate(44.354deg);" class="animable" id="elk6rgqkg0t5j"></rect></g><g id="elws3lxo8bbaa"><rect x="569.463" y="315.813" width="53.248" height="53.248" style="fill: rgb(255, 255, 255); opacity: 0.2; transform-origin: 596.087px 342.437px; transform: rotate(44.354deg);" class="animable" id="el1l1fg7cvcqh"></rect></g></g></g></g><g id="ele697vhfx95r" class="animable" style="transform-origin: 599.801px 282.638px;"><g id="elmg0lbc2pu5"><rect x="566.745" y="176.135" width="66.111" height="213.005" style="fill: #56D478; transform-origin: 599.801px 282.637px; transform: rotate(22.218deg);" class="animable" id="elshj5wslbvcf"></rect></g><g id="el7fuxwejaf9i"><rect x="566.745" y="176.135" width="66.111" height="213.005" style="fill: rgb(255, 255, 255); opacity: 0.3; transform-origin: 599.801px 282.637px; transform: rotate(22.218deg);" class="animable" id="el948wibx09oh"></rect></g><g id="elxj9ocpi9l9r" class="animable" style="transform-origin: 627.673px 214.399px;"><g id="elq3ioecpzb3n"><rect x="601.049" y="187.775" width="53.248" height="53.248" style="fill: #56D478; transform-origin: 627.673px 214.399px; transform: rotate(22.218deg);" class="animable" id="el9dbrdynmju6"></rect></g><g id="elwuish3a2p1l"><rect x="601.049" y="187.775" width="53.248" height="53.248" style="fill: rgb(255, 255, 255); opacity: 0.6; transform-origin: 627.673px 214.399px; transform: rotate(22.218deg);" class="animable" id="el82g45yqrfci"></rect></g></g><g id="elvczkzi1tseb" class="animable" style="transform-origin: 605.572px 268.506px;"><g id="elehkhgey579r"><rect x="578.948" y="241.882" width="53.248" height="53.248" style="fill: #56D478; transform-origin: 605.572px 268.506px; transform: rotate(22.218deg);" class="animable" id="eldr9hreuv9f"></rect></g><g id="elaibzeqs8j5v"><rect x="578.948" y="241.882" width="53.248" height="53.248" style="fill: rgb(255, 255, 255); opacity: 0.4; transform-origin: 605.572px 268.506px; transform: rotate(22.218deg);" class="animable" id="elqxkyg2ca3hr"></rect></g></g><g id="elo3yvn1hvqr" class="animable" style="transform-origin: 583.471px 322.614px;"><g id="elie9sjeuu3t"><rect x="556.847" y="295.99" width="53.248" height="53.248" style="fill: #56D478; transform-origin: 583.471px 322.614px; transform: rotate(22.218deg);" class="animable" id="el15g3co1286v"></rect></g><g id="elj2qlk7vwbm"><rect x="556.847" y="295.99" width="53.248" height="53.248" style="fill: rgb(255, 255, 255); opacity: 0; transform-origin: 583.471px 322.614px; transform: rotate(22.218deg);" class="animable" id="elm3bos5i76r"></rect></g></g></g><g id="elv5sjbq2bxzr" class="animable" style="transform-origin: 560.542px 281.122px;"><rect x="527.486" y="167.126" width="66.111" height="227.992" style="fill: #56D478; transform-origin: 560.542px 281.122px;" id="elpz54p8y40tk" class="animable"></rect><g id="elxrgoldsohi"><rect x="527.486" y="167.126" width="66.111" height="227.992" style="fill: rgb(255, 255, 255); opacity: 0.5; transform-origin: 560.542px 281.122px;" class="animable" id="elphsne642b7"></rect></g></g><g id="elkpbhfbg4a2f" class="animable" style="transform-origin: 560.541px 201.669px;"><rect x="533.917" y="175.045" width="53.248" height="53.248" style="fill: #56D478; transform-origin: 560.541px 201.669px;" id="el6z93xexltjt" class="animable"></rect><g id="elyjfq193l21"><rect x="533.917" y="175.045" width="53.248" height="53.248" style="opacity: 0.6; transform-origin: 560.541px 201.669px;" class="animable" id="el93jyh6t5rpi"></rect></g></g><g id="eln28v2puzb6j" class="animable" style="transform-origin: 560.541px 260.117px;"><rect x="533.917" y="233.493" width="53.248" height="53.248" style="fill: #56D478; transform-origin: 560.541px 260.117px;" id="el0n5fwljcnt9" class="animable"></rect><g id="el53gvomtpqnk"><rect x="533.917" y="233.493" width="53.248" height="53.248" style="opacity: 0.4; transform-origin: 560.541px 260.117px;" class="animable" id="elafvnkzxs6vg"></rect></g></g><g id="eltxapi9cmys" class="animable" style="transform-origin: 560.541px 318.564px;"><rect x="533.917" y="291.94" width="53.248" height="53.248" style="fill: #56D478; transform-origin: 560.541px 318.564px;" id="el0lsqmox124ei" class="animable"></rect><g id="ele4gzqpscexv"><rect x="533.917" y="291.94" width="53.248" height="53.248" style="opacity: 0.2; transform-origin: 560.541px 318.564px;" class="animable" id="el2vdsxxonbmg"></rect></g></g><g id="elz8o0rn1m3rg"><circle cx="560.543" cy="370.561" r="8.901" style="fill: rgb(55, 89, 102); transform-origin: 560.543px 370.561px; transform: rotate(-77.286deg);" class="animable" id="el188341iuh75"></circle></g></g></g><g id="freepik--Control--inject-2" class="animable" style="transform-origin: 610.554px 98.9865px;"><g id="eloh159mnwbn" class="animable" style="transform-origin: 610.554px 98.9865px;"><path d="M578.671,62.975h63.766c2.279,0,4.129,1.85,4.129,4.129v63.766c0,2.279-1.85,4.129-4.129,4.129h-63.766c-2.279,0-4.13-1.85-4.13-4.13v-63.766c0-2.279,1.85-4.129,4.129-4.129Z" style="fill: #56D478; transform-origin: 610.554px 98.9865px;" id="elf0xur8jaaod" class="animable"></path><g id="eli907m93rafn"><path d="M578.671,62.975h63.766c2.279,0,4.129,1.85,4.129,4.129v63.766c0,2.279-1.85,4.129-4.129,4.129h-63.766c-2.279,0-4.13-1.85-4.13-4.13v-63.766c0-2.279,1.85-4.129,4.129-4.129Z" style="fill: rgb(255, 255, 255); opacity: 0.4; transform-origin: 610.554px 98.9865px;" class="animable" id="eltvrgfgs6qyr"></path></g><path d="M636.067,86.199h-51.693c-2.13,0-3.856-1.726-3.856-3.856h0c0-2.13,1.726-3.856,3.856-3.856h51.693c2.13,0,3.856,1.726,3.856,3.856h0c0,2.13-1.726,3.856-3.856,3.856Z" style="fill: rgb(55, 89, 102); transform-origin: 610.221px 82.343px;" id="el2qzfa5dwxyf" class="animable"></path><path d="M590.894,81.884c0,3.026-2.453,5.478-5.478,5.478s-5.478-2.453-5.478-5.478,2.453-5.478,5.478-5.478,5.478,2.453,5.478,5.478Z" style="fill: #56D478; transform-origin: 585.416px 81.884px;" id="elde8u2lbwl5t" class="animable"></path><path d="M636.067,102.848h-51.693c-2.13,0-3.856-1.726-3.856-3.856h0c0-2.13,1.726-3.856,3.856-3.856h51.693c2.13,0,3.856,1.726,3.856,3.856h0c0,2.13-1.726,3.856-3.856,3.856Z" style="fill: rgb(55, 89, 102); transform-origin: 610.221px 98.992px;" id="elng7mzpcaajj" class="animable"></path><path d="M631.415,98.533c0,3.026-2.453,5.478-5.478,5.478s-5.478-2.453-5.478-5.478,2.453-5.478,5.478-5.478,5.478,2.453,5.478,5.478Z" style="fill: #56D478; transform-origin: 625.937px 98.533px;" id="elrf10evu55ms" class="animable"></path><path d="M636.067,120.355h-51.693c-2.13,0-3.856-1.727-3.856-3.856h0c0-2.13,1.726-3.856,3.856-3.856h51.693c2.13,0,3.856,1.726,3.856,3.856h0c0,2.13-1.726,3.856-3.856,3.856Z" style="fill: rgb(55, 89, 102); transform-origin: 610.221px 116.499px;" id="el8o1izooux9b" class="animable"></path><path d="M609.257,116.039c0,3.026-2.453,5.478-5.478,5.478s-5.478-2.453-5.478-5.478,2.453-5.478,5.478-5.478,5.478,2.453,5.478,5.478Z" style="fill: #56D478; transform-origin: 603.779px 116.039px;" id="elwukomcbexvs" class="animable"></path></g></g><g id="freepik--Shadow_2--inject-2" class="animable" style="transform-origin: 404.598px 134.893px;"><g id="elm5pzid8nqb9"><rect x="357.228" y="90.55" width="94.741" height="88.686" rx="4.936" ry="4.936" style="opacity: 0.2; transform-origin: 404.599px 134.893px;" class="animable" id="el9sc6cc099l9"></rect></g></g><g id="freepik--Text--inject-2" class="animable" style="transform-origin: 397.685px 125.236px;"><g id="elvuc35d55jes" class="animable" style="transform-origin: 397.685px 125.236px;"><g id="el2jiqv45gzw4" class="animable" style="transform-origin: 397.685px 125.236px;"><g id="elhcxfl1ozzeh" class="animable" style="transform-origin: 397.685px 125.236px;"><rect x="350.314" y="77.945" width="94.741" height="94.583" rx="4.936" ry="4.936" style="fill: #56D478; transform-origin: 397.685px 125.236px;" id="eli2xmgz1p5j" class="animable"></rect><g id="elgid7bb2kqrm"><rect x="350.314" y="77.945" width="94.741" height="94.583" rx="4.936" ry="4.936" style="fill: rgb(255, 255, 255); opacity: 0.5; transform-origin: 397.685px 125.236px;" class="animable" id="el24et0lnmyns"></rect></g><path d="M354.941,77.945h85.569c2.509,0,4.546,2.037,4.546,4.546v7.202h-94.741v-7.12c0-2.554,2.073-4.627,4.627-4.627Z" style="fill: #56D478; transform-origin: 397.686px 83.819px;" id="elwfpvwil3szb" class="animable"></path></g><g id="elwnhoquop1xj" class="animable" style="transform-origin: 425.705px 83.9375px;"><path d="M435.265,83.986c0,1.374-1.114,2.488-2.488,2.488s-2.488-1.114-2.488-2.488,1.114-2.488,2.488-2.488,2.488,1.114,2.488,2.488Z" style="fill: rgb(255, 255, 255); transform-origin: 432.777px 83.986px;" id="el0wsm56s5x6pi" class="animable"></path><path d="M428.193,83.889c0,1.374-1.114,2.488-2.488,2.488s-2.488-1.114-2.488-2.488,1.114-2.488,2.488-2.488,2.488,1.114,2.488,2.488Z" style="fill: rgb(255, 255, 255); transform-origin: 425.705px 83.889px;" id="ela6hwul8xsoq" class="animable"></path><path d="M421.121,83.889c0,1.374-1.114,2.488-2.488,2.488s-2.488-1.114-2.488-2.488,1.114-2.488,2.488-2.488,2.488,1.114,2.488,2.488Z" style="fill: rgb(255, 255, 255); transform-origin: 418.633px 83.889px;" id="elr5pu9pmw26" class="animable"></path></g></g><path d="M422.059,104.184v13.838h-1.357c-.805-3.192-1.696-5.486-2.677-6.881-.98-1.395-2.325-2.507-4.034-3.337-.956-.452-2.627-.679-5.015-.679h-3.809v39.439c0,2.615,.144,4.248,.434,4.902,.289,.654,.854,1.225,1.697,1.715,.842,.49,1.991,.735,3.45,.735h1.696v1.395h-26.77v-1.395h1.697c1.482,0,2.677-.264,3.582-.792,.653-.351,1.168-.955,1.546-1.809,.276-.604,.414-2.187,.414-4.751v-39.439h-3.694c-3.444,0-5.945,.73-7.504,2.187-2.186,2.036-3.569,4.94-4.147,8.71h-1.433v-13.838h45.924Z" style="fill: rgb(55, 89, 102); transform-origin: 399.097px 129.747px;" id="el8eis56owxr4" class="animable"></path></g></g><g id="freepik--Colors--inject-2" class="animable animator-active" style="transform-origin: 296.266px 98.533px;"><g id="elj9jza0jcmil" class="animable" style="transform-origin: 296.266px 98.533px;"><g id="elvte1wv4ko89" class="animable" style="transform-origin: 296.266px 98.533px;"><g id="el9h4r2p0nnmv" class="animable" style="transform-origin: 296.266px 98.533px;"><rect x="261.128" y="63.453" width="70.277" height="70.16" rx="4.936" ry="4.936" style="fill: #56D478; transform-origin: 296.267px 98.533px;" id="elrw6zc7p8j0l" class="animable"></rect><g id="eltltrf1b709m"><rect x="261.128" y="63.453" width="70.277" height="70.16" rx="4.936" ry="4.936" style="fill: rgb(255, 255, 255); opacity: 0.5; transform-origin: 296.267px 98.533px;" class="animable" id="elbc4t78d359v"></rect></g><path d="M265.755,63.453h61.104c2.509,0,4.546,2.037,4.546,4.546v4.168h-70.277v-4.087c0-2.554,2.073-4.627,4.627-4.627Z" style="fill: #56D478; transform-origin: 296.266px 67.81px;" id="eldk8gcvs42rt" class="animable"></path></g><g id="elg6yh9zi7fxr" class="animable" style="transform-origin: 317.051px 67.898px;"><path d="M324.143,67.934c0,1.019-.826,1.846-1.846,1.846s-1.846-.826-1.846-1.846,.826-1.846,1.846-1.846,1.846,.826,1.846,1.846Z" style="fill: rgb(255, 255, 255); transform-origin: 322.297px 67.934px;" id="elrvva5ep88e" class="animable"></path><path d="M318.897,67.862c0,1.019-.826,1.846-1.846,1.846s-1.846-.826-1.846-1.846,.826-1.846,1.846-1.846,1.846,.826,1.846,1.846Z" style="fill: rgb(255, 255, 255); transform-origin: 317.051px 67.862px;" id="eldz5kucpk3wb" class="animable"></path><path d="M313.651,67.862c0,1.019-.826,1.846-1.846,1.846s-1.846-.826-1.846-1.846,.826-1.846,1.846-1.846,1.846,.826,1.846,1.846Z" style="fill: rgb(255, 255, 255); transform-origin: 311.805px 67.862px;" id="elc2g8fr2s58q" class="animable"></path></g></g><g id="elxg8ifrp7cmo" class="animable" style="transform-origin: 296.266px 101.674px;"><rect x="277.469" y="82.877" width="37.595" height="37.595" style="fill: rgb(255, 255, 255); transform-origin: 296.267px 101.674px;" id="elcmi2qglvnhj" class="animable"></rect><rect x="278.423" y="83.889" width="35.228" height="35.228" style="fill: #56D478; transform-origin: 296.037px 101.503px;" id="ellrsnbzpbt0r" class="animable"></rect><path d="M296.267,119.627s18.004-15.094,18.004-14.83v14.83h-18.004Z" style="fill: rgb(255, 255, 255); transform-origin: 305.269px 112.21px;" id="elvee9jylcei" class="animable"></path></g></g></g><g id="freepik--Character_2--inject-2" class="animable" style="transform-origin: 465.963px 360.973px;"><g id="elq8jrh1eii9l" class="animable" style="transform-origin: 465.963px 360.973px;"><g id="elaz5g1dcfudm" class="animable" style="transform-origin: 421.683px 341.603px;"><path d="M430.823,317.483s-1.856,2.712-2,7.033c-.067,2.006-1.441,26.798-1.441,26.798l-19.451-20.459-8.567,4.094s18.179,26.019,25.908,29.044c7.729,3.026,13.297,1.626,15.051-.7,1.754-2.326,3.678-33.879,3.678-33.879l-13.179-11.932Z" style="fill: rgb(55, 89, 102); transform-origin: 421.683px 341.603px;" id="el6uj5ikwue9m" class="animable"></path></g><path d="M393.144,333.423l-3.866-16.479-7.668,2.313c-1.69,.51-3.348-.883-3.137-2.636l5.001-41.633c.248-2.066,2.798-2.9,4.219-1.38l29.257,31.299c1.239,1.326,.656,3.491-1.081,4.015l-8.811,2.658,6.237,16.688c.614,1.642-.35,3.451-2.056,3.857l-14.581,3.467c-1.57,.373-3.144-.599-3.513-2.17Z" style="fill: rgb(55, 89, 102); transform-origin: 398.033px 304.25px;" id="ellklqrjqeoj" class="animable"></path><g id="elnfbzja8a5q" class="animable" style="transform-origin: 476.317px 416.344px;"><polygon points="448.212 455.512 438.872 457.486 428.891 441.078 438.231 439.105 448.212 455.512" style="fill: rgb(175, 111, 91); transform-origin: 438.551px 448.296px;" id="elo8gf0bs8yn" class="animable"></polygon><path d="M436.991,453.529h10.456c.351,.005,.653,.248,.734,.589l1.715,7.667c.14,.684-.298,1.353-.982,1.498h-.279c-3.379-.052-5.848-.258-10.095-.258-2.614,0-10.508,.269-14.114,.269s-4.133-3.565-2.604-3.895c6.623-1.447,11.624-3.451,13.742-5.352,.393-.347,.902-.531,1.426-.517Z" style="fill: rgb(55, 89, 102); transform-origin: 435.469px 458.411px;" id="elv9oced40h5o" class="animable"></path><path d="M434.14,455.037c-.581,.052-1.163-.102-1.643-.434-.325-.265-.489-.68-.434-1.095-.004-.242,.133-.464,.351-.568,.94-.496,3.73,1.209,4.04,1.405,.073,.041,.114,.123,.103,.207-.015,.083-.075,.15-.155,.176-.741,.185-1.499,.289-2.263,.31Zm-1.312-1.725c-.088-.025-.181-.025-.269,0-.052,0-.134,.072-.134,.238-.031,.275,.073,.548,.279,.734,.974,.452,2.086,.508,3.1,.155-.908-.567-1.919-.95-2.976-1.126Z" style="fill: #56D478; transform-origin: 434.306px 453.948px;" id="eldtbskjeivwu" class="animable"></path><path d="M436.351,454.737h-.093c-.889-.486-2.604-2.376-2.428-3.286,.056-.315,.331-.542,.651-.537,.313-.043,.629,.051,.868,.258,.992,.816,1.219,3.286,1.219,3.41-.001,.075-.04,.145-.103,.186-.04,0-.079-.011-.114-.031Zm-1.271-3.317c-.121-.105-.274-.167-.434-.176h-.103c-.289,0-.289,.145-.289,.207-.114,.589,.982,1.994,1.87,2.655-.065-.979-.425-1.916-1.033-2.686h-.01Z" style="fill: #56D478; transform-origin: 435.193px 452.836px;" id="el28ri717u7bt" class="animable"></path><path d="M473.909,413.377c-.506,0-1.033-.062-1.54-.103-10.57-.878-21.646-3.627-30.17-6.199-8.803-2.655-14.889-5.166-14.889-5.166,4.358,8.019,16.924,42.993,16.924,42.993l-17.846,4.257s-40.883-53.645-22.45-73.556c13.773-14.724,51.124,1.364,51.124,1.364l51.083,.372s3.74,37.95-32.237,36.039Z" style="fill: #56D478; transform-origin: 452.71px 409.277px;" id="el4am8arbi1lm" class="animable"></path><polygon points="542.587 438.02 543.393 446.585 523.617 449.158 522.811 440.582 542.587 438.02" style="fill: rgb(175, 111, 91); transform-origin: 533.102px 443.589px;" id="eljb639mli9ll" class="animable"></polygon><path d="M542.515,447.866l-1.033-10.415c-.028-.349,.185-.673,.517-.785l7.522-2.428c.67-.209,1.382,.166,1.591,.836h0c.032,.09,.049,.185,.052,.28,.269,3.368,.289,5.838,.692,10.074,.238,2.604,1.25,10.436,1.591,14.031,.341,3.596-3.172,4.391-3.637,2.955-2.066-6.468-4.515-11.252-6.613-13.184-.393-.351-.637-.839-.682-1.364Z" style="fill: rgb(55, 89, 102); transform-origin: 547.475px 448.635px;" id="elw035xhvj3u" class="animable"></path><path d="M544.261,450.532c.101,.577,.003,1.171-.279,1.684-.231,.343-.62,.545-1.033,.537-.24,.021-.472-.095-.599-.3-.579-.878,.868-3.813,1.033-4.133,.028-.076,.105-.123,.186-.114,.084,0,.159,.054,.186,.134,.249,.709,.419,1.444,.506,2.191Zm-1.632,1.498c.002,.092,.031,.182,.083,.258,0,.052,.083,.103,.248,.103,.277,.013,.541-.115,.703-.341,.359-1.011,.311-2.123-.134-3.1-.492,.96-.797,2.005-.899,3.079Z" style="fill: #56D478; transform-origin: 543.257px 450.48px;" id="els46dnvubo1" class="animable"></path><path d="M543.838,448.393v.103c-.455,.92-2.18,2.81-3.1,2.717-.316-.029-.565-.283-.589-.599-.074-.308-.01-.632,.176-.889,.713-1.064,3.162-1.529,3.275-1.529,.074,0,.144,.03,.196,.083,.025,.033,.039,.073,.041,.114Zm-3.368,2.005v.103c.021,.269,.176,.269,.238,.269,.558,.103,1.891-1.126,2.469-2.066-.969,.147-1.871,.587-2.583,1.261-.086,.128-.129,.28-.124,.434Z" style="fill: #56D478; transform-origin: 541.978px 449.706px;" id="el1vh6v6aeu66" class="animable"></path><path d="M468.856,382.897c-3.1,4.66-14.345,67.584,.275,75.513,13.897,9.847,61.471-7.01,61.471-7.01l-.971-14.248s-40.553,1.669-41.029,1.818c-.891,.279,15.498-38.477,16.532-47.797,1.033-9.32-36.277-8.276-36.277-8.276Z" style="fill: #56D478; transform-origin: 496.202px 422.18px;" id="el1hwicaua8t" class="animable"></path></g><path d="M410.561,318.382s-12.109-8.359-14.021-8.628c-1.911-.269-2.635,8.865-1.219,12.957,.816,2.377,5.683,2.283,10.735,3.182l4.505-7.512Z" style="fill: rgb(175, 111, 91); transform-origin: 402.57px 317.821px;" id="el6u4e08oeyee" class="animable"></path><g id="elpauzje608hn" class="animable" style="transform-origin: 468.474px 343.152px;"><path d="M506.125,377.338c-17.245,6.986-34.21,9.199-50.721,3.647,0,0-7.873-48.159-24.58-63.482,2.538-2.752,5.441-5.143,8.627-7.109,6.914-4.407,14.768-7.125,22.927-7.935,6.221-.593,12.496-.21,18.598,1.137,0,0,22.958,26.678,25.149,73.742Z" style="fill: rgb(55, 89, 102); transform-origin: 468.475px 343.152px;" id="el4b7gsliy52" class="animable"></path><g id="elh3k85f1kdtq"><path d="M430.823,317.483c7.336,6.737,12.977,19.817,16.997,32.361,1.736,5.445,3.172,10.797,4.298,15.498,2.211,9.072,3.286,15.643,3.286,15.643,16.357,5.039,33.271,3.747,50.721-3.647-.697-16.44-4.235-32.636-10.456-47.87-1.095-2.666-2.221-5.166-3.327-7.398-1.973-4.04-3.895-7.439-5.579-10.188-.754-1.209-1.457-2.294-2.066-3.244-1.15-1.745-2.391-3.428-3.72-5.042-6.102-1.346-12.378-1.73-18.598-1.137,3.1,3.709-.62,11.273-13.205,12.853-7.233,.909-10.105-1.953-9.723-4.918-3.185,1.959-6.088,4.344-8.627,7.088Z" style="fill: rgb(255, 255, 255); isolation: isolate; opacity: 0.2; transform-origin: 468.474px 343.098px;" class="animable" id="elguyygi1zgu"></path></g><g id="elbbqsusd2bqp"><path d="M477.205,331.752s8.958-3.647,15.137-9.681c-1.973-4.04-3.895-7.439-5.579-10.188-.754-1.209-1.457-2.294-2.066-3.244l-7.491,23.113Z" style="isolation: isolate; opacity: 0.2; transform-origin: 484.773px 320.196px;" class="animable" id="elnsw3njnd95"></path></g><g id="elnimu26c6ie"><path d="M447.83,349.864c1.736,5.445,3.172,10.797,4.298,15.498,8.555-3.451,16.366-18.846,16.366-18.846l-20.665,3.348Z" style="isolation: isolate; opacity: 0.2; transform-origin: 458.161px 355.939px;" class="animable" id="el50vds6ws5ve"></path></g></g><g id="ela0vamq18xk9" class="animable" style="transform-origin: 447.375px 331.729px;"><path d="M479.591,303.328c-7.873-1.333-22.421,38.881-29.178,39.697-6.757,.816-39.852-24.642-39.852-24.642l-4.505,7.512s28.93,30.997,42.941,34.097c14.011,3.1,40.296-37.196,39.686-44.904s-3.461-10.818-9.092-11.758Z" style="fill: rgb(55, 89, 102); transform-origin: 447.375px 331.729px;" id="elnwjrjo52jzd" class="animable"></path><g id="elwa2ctze0sfr"><path d="M479.591,303.328c-7.873-1.333-22.421,38.881-29.178,39.697-6.757,.816-39.852-24.642-39.852-24.642l-4.505,7.512s28.93,30.997,42.941,34.097c14.011,3.1,40.296-37.196,39.686-44.904s-3.461-10.818-9.092-11.758Z" style="fill: rgb(255, 255, 255); isolation: isolate; opacity: 0.15; transform-origin: 447.375px 331.729px;" class="animable" id="elbdnps36yyla"></path></g></g><g id="elpbdayvo4hpo" class="animable" style="transform-origin: 442.201px 285.917px;"><path d="M460.575,303.377c1.56,5.61-14.589,13.484-20.251,7.883,3.1-2.314,3.854-4.722,3.472-7.067-.278-1.432-.844-2.792-1.663-3.999-.431-.687-.9-1.349-1.405-1.984l6.871-14.227c1.364,6.261,4.588,20.396,12.977,19.394Z" style="fill: rgb(175, 111, 91); transform-origin: 450.502px 298.582px;" id="el8bggep58aq8" class="animable"></path><g id="elxtvwbbotd6d" class="animable" style="transform-origin: 441.583px 279.827px;"><path d="M424.067,271.813s-2.066,9.65,3.906,14.61c5.972,4.96,7.408-17.069,7.408-17.069l-11.314,2.459Z" style="fill: rgb(55, 89, 102); transform-origin: 429.551px 278.252px;" id="elm32l7q40b2k" class="animable"></path><path d="M449.882,278.874c.034,8.638,.232,13.508-3.949,18.204-6.289,7.065-17.223,3.994-19.915-4.463-2.423-7.612-2.072-20.459,6.376-24.427,8.323-3.908,17.454,2.047,17.488,10.685Z" style="fill: rgb(175, 111, 91); transform-origin: 437.305px 283.983px;" id="elm2i5xsbmjz" class="animable"></path><path d="M450.309,268.453c-1.532-4.651-13.747-3.822-16.995-1.155-.485,.399,6.984,3.411,6.535,3.287l3.482,.9c.517-.151,1.587,.371,2.227,1.917,0,0,.497,13.212,4.594,16.752,2.989-1.687,2.818-6.925,3.583-10.107,1.139-4.74,2.431-11.656-3.427-11.593Z" style="fill: rgb(55, 89, 102); transform-origin: 444.001px 277.642px;" id="eld2vu6ecwgz" class="animable"></path><path d="M438.392,281.292c.059,.88-.374,1.623-.966,1.66-.592,.037-1.121-.646-1.18-1.526-.059-.88,.373-1.623,.966-1.66,.593-.037,1.121,.646,1.18,1.526Z" style="fill: rgb(55, 89, 102); transform-origin: 437.319px 281.359px;" id="elpz2wq8oe20g" class="animable"></path><path d="M429.536,283.03c.059,.88-.373,1.623-.966,1.661-.593,.037-1.121-.646-1.18-1.526s.373-1.623,.966-1.66c.593-.037,1.121,.646,1.18,1.526Z" style="fill: rgb(55, 89, 102); transform-origin: 428.463px 283.098px;" id="el45xh5f9vsm" class="animable"></path><path d="M431.385,282.385s-2.571,4.579-3.369,6.426c1.333,1.016,3.469,.349,3.469,.349l-.099-6.775Z" style="fill: rgb(162, 78, 63); transform-origin: 429.751px 285.88px;" id="elfps66fwn7y" class="animable"></path><path d="M439.326,277.962c-.133,.064-.297,.059-.429-.027-1.571-1.027-3.025-.454-3.04-.448-.217,.088-.467-.01-.557-.219-.091-.209,.013-.45,.228-.539,.076-.031,1.898-.75,3.847,.525,.195,.127,.245,.383,.113,.571-.043,.061-.099,.107-.163,.138Z" style="fill: rgb(55, 89, 102); transform-origin: 437.414px 277.252px;" id="elpua1ki7atjl" class="animable"></path><g id="eltgpzw82fynn"><path d="M447.812,286.676h-.012c-.139-.007-.245-.124-.238-.262,.039-.793,.291-1.566,.73-2.238,.297-.454,.81-1.047,1.57-1.287,.749-.239,1.576-.026,2.009,.514,.086,.107,.068,.266-.039,.352-.107,.087-.264,.069-.352-.039-.301-.377-.918-.522-1.468-.35-.619,.196-1.05,.697-1.303,1.084-.391,.598-.614,1.285-.648,1.988-.007,.134-.117,.238-.25,.238Z" style="opacity: 0.2; transform-origin: 449.744px 284.734px;" class="animable" id="elhx31cimo1up"></path></g><path d="M424.366,279.649c-.08-.011-.157-.044-.222-.1-.175-.152-.191-.413-.036-.584,1.557-1.714,3.485-1.44,3.573-1.439,.231,.034,.391,.245,.356,.47-.035,.225-.248,.38-.478,.349-.08-.015-1.568-.207-2.818,1.169-.098,.108-.24,.154-.376,.135Z" style="fill: rgb(55, 89, 102); transform-origin: 426.022px 278.581px;" id="elgqjf5unm14n" class="animable"></path><g id="elfefussq1b9k"><path d="M425.272,289.832c.234,1.084,.531,2.153,.889,3.203,.155,.403,.31,.785,.496,1.157,1.307,2.756,3.622,4.905,6.468,6.003,4.33,1.778,9.794,.465,12.808-3.116,1.136-3.441,1.502-10.667-.864-14.944,0,0-2.25,6.335-3.066,6.572-.816,.238-1.467-2.886-5.693-.861-4.226,2.025-5.778,4.776-11.037,1.987Z" style="isolation: isolate; opacity: 0.3; transform-origin: 436.046px 291.559px;" class="animable" id="ely0q3sex73kg"></path></g><path d="M452.161,286.784c1.488-7.584,.155-15.695-1.808-17.927-1.963-2.232-11.82,3.523-11.82,3.523,2.304-.61,4.618,1.323,3.875,3.637-1.033,3.224,1.033,8.018,3.575,9.826,0,0,0-1.364,1.168-1.106,1.167,.258,2.082,7.28,.026,10.803-.01,0,3.487-1.184,4.985-8.757Z" style="fill: rgb(55, 89, 102); transform-origin: 445.665px 281.941px;" id="elm8ci6zi6uw" class="animable"></path><path d="M452.801,285.286c-.74,2.014-2.249,3.652-4.195,4.556-2.583,1.188-4.319-1.033-3.978-3.699,.331-2.377,2.066-5.92,4.825-5.951,2.759-.031,4.226,2.604,3.348,5.094Z" style="fill: rgb(175, 111, 91); transform-origin: 448.82px 285.181px;" id="elu43qht6lx7d" class="animable"></path><path d="M424.206,271.813s2.624,3.1,10.26,2.335c-1.762-.15-3.497-.521-5.166-1.105,0,0,10.239,1.415,15.126-.424,4.887-1.839,6.075-3.761,6.075-3.761,0,0-.837-5.166-12.151-4.515-11.314,.651-14.909,5.548-14.145,7.47Z" style="fill: rgb(55, 89, 102); transform-origin: 437.304px 269.278px;" id="elzldyzdva5n" class="animable"></path><path d="M450.931,290.69s.134-14.021-9.423-20.665c-7.419-5.166-15.013-3.368-17.141-.124,0,0-1.849-2.748,1.694-5.652,1.077-.762,2.261-1.36,3.513-1.777,0,0,11.923-7.801,23.713-1.106,11.789,6.695,3.027,12.213,3.027,12.213,0,0,.961,8.421-2.066,10.56,.021-.041-1.157,6.416-3.317,6.551Z" style="fill: rgb(55, 89, 102); transform-origin: 441.665px 274.671px;" id="el29vgq1yib0n" class="animable"></path><path d="M433.223,292.563c.902,.778,1.747,1.62,2.527,2.52,.178-.109,.362-.216,.534-.334,2.41-1.523,3.03-3.023,2.97-4.228-.039-.589-.216-1.16-.517-1.667-.163-.29-.365-.556-.6-.791-.796,1.572-2.926,3.162-4.104,3.964-.524,.322-.811,.536-.811,.536Z" style="fill: rgb(55, 89, 102); transform-origin: 436.24px 291.573px;" id="elemri38jj147" class="animable"></path><path d="M433.999,292.018l.767,.723c2.26-1.437,3.662-2.744,3.938-3.897-.162-.29-.365-.556-.6-.79-.799,1.586-2.926,3.162-4.104,3.965Z" style="fill: rgb(255, 255, 255); transform-origin: 436.351px 290.397px;" id="elp92c5y2acc" class="animable"></path><path d="M436.249,294.739c2.41-1.524,3.03-3.024,2.97-4.228-.905,.595-1.697,1.346-2.341,2.218-.414,.588-.634,1.291-.629,2.01Z" style="fill: rgb(245, 73, 72); transform-origin: 437.736px 292.625px;" id="elqhak4xkt81b" class="animable"></path><g id="el9t5q2w9ujqf"><path d="M450.931,290.69s.134-14.021-9.423-20.665c-7.419-5.166-15.013-3.368-17.141-.124,0,0-1.849-2.748,1.694-5.652,1.077-.762,2.261-1.36,3.513-1.777,0,0,11.923-7.801,23.713-1.106,11.789,6.695,3.027,12.213,3.027,12.213,0,0,.961,8.421-2.066,10.56,.021-.041-1.157,6.416-3.317,6.551Z" style="fill: rgb(255, 255, 255); opacity: 0.3; transform-origin: 441.665px 274.671px;" class="animable" id="elvrkwow7lsio"></path></g></g></g></g></g><g id="freepik--shadow_1--inject-2" class="animable" style="transform-origin: 221.413px 242.703px;"><g id="eluoai032563m"><path d="M202.225,156.373h38.376v166.683c0,3.299-2.678,5.977-5.977,5.977h-32.399V156.373h0Z" style="opacity: 0.2; transform-origin: 221.413px 242.703px;" class="animable" id="el90458b6c95"></path></g></g><g id="freepik--Character_1--inject-2" class="animable" style="transform-origin: 158.228px 303.166px;"><g id="ellhyjq2opnwg" class="animable" style="transform-origin: 158.228px 303.166px;"><g id="eli2r7s3an1ms" class="animable" style="transform-origin: 75.2285px 219.364px;"><path d="M86.55,227.782s3.93,.797,4.408,1.434,7.127,4.675,7.127,4.675l-4.472,8.812-3.338-2.558s-2.884,.708-4.871-.04c-1.986-.747-1.072-11.908-1.072-11.908l2.219-.416Z" style="fill: rgb(253, 170, 109); transform-origin: 91.1035px 235.242px;" id="el8i2em4s7v25" class="animable"></path><g id="eluybp46gf11j" class="animable" style="transform-origin: 74.6795px 218.943px;"><g id="elj095oaftnjl"><path d="M84.151,229.439s6.57,1.323,7.311,2.856c.741,1.533-1.688,1.45-1.688,1.45,0,0,2.666,.256,2.711,1.403,.053,1.376-2.49,1.278-2.49,1.278,0,0,2.168,.298,2.14,1.321-.03,1.061-2.909,1.154-2.909,1.154,0,0,1.487,.499,1.065,1.198-.422,.699-6.529,1.014-8.344-.103-1.816-1.118-1.425-8.778-.946-10.46,.564-1.981,1.981-2.698,3.671-2.425l-.52,2.33h0Z" style="opacity: 0.2; transform-origin: 86.543px 233.893px;" class="animable" id="elzl29fsbv5oe"></path></g><path d="M85.128,241.765l-1.702-.518c-.95-.304-1.545-1.244-1.414-2.232l1.861-13.624,4.642,1.431-.754,13.11c-.053,1.116-1.001,1.978-2.117,1.925-.175-.008-.349-.039-.516-.093Z" style="fill: rgb(55, 89, 102); transform-origin: 85.2545px 233.625px;" id="elelcws1w06gi" class="animable"></path><path d="M96.285,224.02c.249-.796,.488-1.58,.702-2.363-1.11-1.604-2.556-2.947-4.237-3.936-.527,1.51-1.051,3.092-1.56,4.721-.509,1.63-.959,3.232-1.364,4.784,1.947,.127,3.899-.168,5.721-.866,.251-.772,.501-1.545,.739-2.34Z" style="fill: rgb(55, 89, 102); transform-origin: 93.4065px 222.488px;" id="elx1f3tdy952r" class="animable"></path><path d="M93.211,223.077c.617-1.909,1.032-3.878,1.237-5.875l-15.226-4.7-3.506,11.379,15.238,4.711c.941-1.755,1.697-3.604,2.256-5.516Z" style="fill: #56D478; transform-origin: 85.082px 220.547px;" id="eli5alqyey6s" class="animable"></path><g id="elbev2ez69qa5"><path d="M93.211,223.077c.617-1.909,1.032-3.878,1.237-5.875l-15.226-4.7-3.506,11.379,15.238,4.711c.941-1.755,1.697-3.604,2.256-5.516Z" style="fill: rgb(255, 255, 255); isolation: isolate; opacity: 0.6; transform-origin: 85.082px 220.547px;" class="animable" id="elsbahtghnuyh"></path></g><path d="M83.127,212.681c-.686-.219-17.685-15.996-19.525-16.616-1.84-.619-5.876,6.192-8.656,15.207-2.78,9.015-3.402,16.813-1.405,17.436s24.791-2.943,25.489-2.737,2.394-2.532,3.524-6.206,1.442-6.838,.573-7.084Z" style="fill: #56D478; transform-origin: 67.9992px 212.404px;" id="ely7skrxa4jy" class="animable"></path><g id="el81qd8bx1mda"><path d="M83.127,212.681c-.686-.219-17.685-15.996-19.525-16.616-1.84-.619-5.876,6.192-8.656,15.207-2.78,9.015-3.402,16.813-1.405,17.436s24.791-2.943,25.489-2.737,2.394-2.532,3.524-6.206,1.442-6.838,.573-7.084Z" style="fill: rgb(255, 255, 255); isolation: isolate; opacity: 0.4; transform-origin: 67.9992px 212.404px;" class="animable" id="el2cf511b7q7m"></path></g><path d="M62.197,213.501c-2.78,9.015-6.66,15.818-8.656,15.207-1.996-.611-1.372-8.373,1.405-17.436,2.777-9.063,6.66-15.818,8.656-15.207,1.996,.611,1.376,8.433-1.405,17.436Z" style="fill: #56D478; transform-origin: 58.5721px 212.386px;" id="el1mahra47an1" class="animable"></path><path d="M57.418,212.005c-.187,.6-.361,1.224-.526,1.775,1.18,1.336,2.597,2.443,4.179,3.264,.402-1.13,.8-2.319,1.185-3.545,.385-1.225,.709-2.447,1.026-3.597-1.769-.21-3.562-.092-5.289,.35-.272,.581-.46,1.169-.575,1.753Z" style="fill: rgb(55, 89, 102); transform-origin: 60.087px 213.423px;" id="eliz3ffv0zlfg" class="animable"></path><g id="eljuvm5otuabn"><path d="M57.418,212.005c-.187,.6-.361,1.224-.526,1.775,1.18,1.336,2.597,2.443,4.179,3.264,.402-1.13,.8-2.319,1.185-3.545,.385-1.225,.709-2.447,1.026-3.597-1.769-.21-3.562-.092-5.289,.35-.272,.581-.46,1.169-.575,1.753Z" style="fill: rgb(255, 255, 255); isolation: isolate; opacity: 0.7; transform-origin: 60.087px 213.423px;" class="animable" id="ela1s6yaioxq4"></path></g></g><g id="elpxmf1k0f6" class="animable" style="transform-origin: 85.924px 233.776px;"><path d="M83.331,229.354s6.771,1.408,7.512,2.941c.741,1.533-1.688,1.45-1.688,1.45,0,0,2.666,.256,2.711,1.403,.053,1.376-2.49,1.278-2.49,1.278,0,0,2.168,.298,2.14,1.321-.03,1.061-2.909,1.154-2.909,1.154,0,0,1.487,.499,1.065,1.198-.423,.699-6.529,1.014-8.344-.103-1.816-1.118-1.425-8.778-.946-10.46,.564-1.981,1.6-2.943,3.291-2.669l-.34,2.49h0Z" style="fill: rgb(253, 170, 109); transform-origin: 85.924px 233.776px;" id="elqlpnf75bpfg" class="animable"></path><g id="elnfm82ffawsi"><path d="M89.151,233.873h-.011l-4.627-.669c-.062-.009-.106-.074-.097-.144,.009-.071,.068-.121,.128-.112l4.627,.668c.062,.009,.106,.074,.097,.144-.008,.067-.059,.115-.117,.113Z" style="opacity: 0.2; transform-origin: 86.842px 233.41px;" class="animable" id="elftzb6riu6ng"></path></g><g id="el0544hvxzmwr"><path d="M89.239,236.549h-.003l-4.495-.289c-.062-.004-.11-.065-.106-.136,.004-.071,.048-.114,.121-.122l4.495,.289c.063,.004,.11,.065,.106,.136-.004,.07-.057,.124-.118,.122Z" style="opacity: 0.2; transform-origin: 86.996px 236.276px;" class="animable" id="ellogb59eqchs"></path></g></g></g><g id="elk7q9koe7gjn" class="animable" style="transform-origin: 141.315px 443.246px;"><path d="M150.601,427.436s2.73,16.958,4.006,25.037c.422,2.641-9.711,1.199-10.676,.932l-6.015-27.224,12.685,1.254Z" style="fill: rgb(253, 170, 109); transform-origin: 146.268px 440.109px;" id="elksjqspjhs8" class="animable"></path><g id="eld73niqsvojs" class="animable" style="transform-origin: 141.315px 451.263px;"><path d="M136.417,447.879c-1.498,.211-2.963,.189-3.496-.422-.301-.328-.355-.813-.133-1.199,.147-.354,.437-.629,.799-.755,1.853-.744,6.215,1.032,6.404,1.11,.07,.029,.126,.085,.155,.155,.061,.147-.008,.316-.155,.377-1.166,.355-2.362,.6-3.574,.732Zm-2.109-1.987c-.18,.034-.358,.078-.533,.133-.212,.084-.383,.247-.477,.455-.166,.377-.078,.533,0,.621,.644,.688,3.596,.311,5.704-.266-1.494-.608-3.092-.921-4.706-.921l.011-.022Z" style="fill: #56D478; transform-origin: 136.41px 446.66px;" id="el9zpcp39jlii" class="animable"></path><path d="M139.869,447.135h-.122c-1.487-.444-4.55-2.586-4.55-3.918,.044-.322,.178-.744,.932-.921,.533-.155,1.106-.087,1.587,.189,1.643,1.032,2.397,4.106,2.397,4.239,.055,.084,.055,.193,0,.277l-.244,.133Zm-2.408-4.139c-.294-.206-.653-.297-1.01-.255h-.178c-.488,.122-.488,.322-.488,.388-.089,.788,2.131,2.519,3.673,3.196-.309-1.288-1.007-2.45-1.998-3.329h0Z" style="fill: #56D478; transform-origin: 137.676px 444.675px;" id="eltk7ixw8pd5k" class="animable"></path><path d="M139.691,445.87c-2.419,3.03-5.338,6.27-13.928,9.689-1.909,.755-.477,5.46,4.373,4.661,4.85-.799,19.488-3.818,26.147-5.749,.1-.011,1.687-1.42,1.354-2.331l-3.895-8.823c-.165-.454-.635-.722-1.11-.633l-11.154,2.075c-.716,.126-1.357,.523-1.787,1.11Z" style="fill: rgb(55, 89, 102); transform-origin: 141.315px 451.489px;" id="el6jtyo3jrlgx" class="animable"></path></g><g id="elko9h74k9d2h"><g style="opacity: 0.2; transform-origin: 144.93px 431.736px;" class="animable" id="el5sjkzjp9x4h"><polygon points="140.513 437.291 137.916 426.182 150.601 427.448 151.944 435.827 140.513 437.291" id="el7rbeldfsvi" class="animable" style="transform-origin: 144.93px 431.736px;"></polygon></g></g></g><g id="el57fqhe0sete" class="animable" style="transform-origin: 247.895px 416.173px;"><path d="M243.014,396.473s11.531,12.674,17.08,18.733c1.798,2.009-7.469,6.359-8.412,6.659l-19.976-19.455,11.309-5.938Z" style="fill: rgb(253, 170, 109); transform-origin: 246.015px 409.169px;" id="elenqmwogvlga" class="animable"></path><g id="elb89fiueto6m"><g style="opacity: 0.2; transform-origin: 240.212px 403.393px;" class="animable" id="elan7pqzd9ijs"><polygon points="239.973 410.279 231.705 402.41 243.003 396.506 248.719 402.777 239.973 410.279" id="el1bo041foil1" class="animable" style="transform-origin: 240.212px 403.393px;"></polygon></g></g><g id="el0288ww1jkl3j" class="animable" style="transform-origin: 249.635px 423.035px;"><path d="M242.359,421.432c-1.132,.999-2.364,1.787-3.141,1.565-.43-.108-.743-.479-.777-.921-.078-.389,.015-.793,.255-1.11,1.121-1.676,5.738-2.619,5.937-2.619,.115-.019,.231,.029,.3,.122,.062,.098,.062,.224,0,.322-.77,.962-1.632,1.847-2.575,2.641Zm-2.852-.577c-.137,.122-.263,.256-.377,.399-.135,.185-.187,.418-.144,.644,.078,.399,.233,.511,.355,.511,.91,.233,3.163-1.687,4.606-3.329-1.583,.308-3.091,.922-4.439,1.809v-.033Z" style="fill: #56D478; transform-origin: 241.697px 420.689px;" id="elg7h5kvf7u9l" class="animable"></path><path d="M244.868,418.835l-.111,.056c-1.509,.444-5.26,.322-5.948-.788-.228-.431-.116-.963,.266-1.265,.361-.423,.877-.684,1.432-.721,1.942-.056,4.228,2.131,4.328,2.22,.087,.049,.135,.145,.122,.244l-.089,.255Zm-4.317-2.12c-.361-.002-.71,.133-.977,.377l-.166,.078c-.322,.355-.189,.522-.189,.588,.377,.71,3.152,.943,4.816,.655-.968-.921-2.196-1.522-3.518-1.72l.033,.022Z" style="fill: #56D478; transform-origin: 241.825px 417.624px;" id="elcd3a148u4lk" class="animable"></path><path d="M244.87,418.138c-1.113,3.714-2.611,7.81-9.304,14.188-1.489,1.413,1.596,5.244,5.797,2.691,4.201-2.552,16.653-10.818,22.11-15.095,.088-.048,1.034-1.948,.386-2.668l-6.908-6.73c-.323-.359-.858-.432-1.266-.173l-9.572,6.09c-.618,.384-1.063,.992-1.243,1.697Z" style="fill: rgb(55, 89, 102); transform-origin: 249.635px 423.035px;" id="eladn2najfc86" class="animable"></path></g></g><g id="eln3xglmdfejf" class="animable" style="transform-origin: 183.642px 346.833px;"><path d="M162.165,270.022l18.754-10.098c2.519,3.707,4.517,6.78,5.56,11.141,1.343,5.571-1.584,15.222-.831,14.813-20.975,11.453-25.237,7.672-25.237,7.672l-6.048,3.918c-9.356,6.048-25.448,3.163-21.774-7.358,3.218-9.356,3.218-21.353,3.218-21.353,12.263,3.463,26.358,1.265,26.358,1.265Z" style="fill: rgb(55, 89, 102); transform-origin: 159.445px 280.258px;" id="elp3906j0bmwj" class="animable"></path><path d="M152.387,277.346c-8.013-.477-14.394-2.453-16.547,3.407-12.829,34.926-18.5,70.95-15.46,91.592,1.842,12.152,9.611,61.861,19.599,61.394,3.13-.144,13.029-1.864,13.029-1.864,1.004-1.279,1.364-2.949,.977-4.528-3.807-17.08-10.998-47.511-8.457-63.57,3.318-20.787,19.588-54.303,20.043-66.289,.444-11.642-11.731-20.054-13.185-20.143Z" style="fill: rgb(55, 89, 102); transform-origin: 142.579px 355.192px;" id="elidyoxe1n4jj" class="animable"></path><g id="el9fl1o5huegd"><path d="M155.384,330.906l7.092-21.885s-4.417-26.735-5.926-24.26c-11.575,18.989-1.165,46.146-1.165,46.146Z" style="isolation: isolate; opacity: 0.2; transform-origin: 156.781px 307.753px;" class="animable" id="elj2ux6hm4ly"></path></g><path d="M162.176,270.033c-6.925,3.984-9.4,10.621-7.769,16.647,7.713,28.511,23.894,54.88,37.267,78.885,5.993,10.743,41.329,47.844,45.946,42.028,1.953-2.453,9.877-8.712,9.877-8.712,2.586-8.268-18.678-12.23-63.259-119.248-4.484-10.754-20.809-10.332-22.063-9.6Z" style="fill: rgb(55, 89, 102); transform-origin: 200.816px 338.958px;" id="eltgb33ffl0m" class="animable"></path></g><g id="elnpvysqhv3m" class="animable" style="transform-origin: 159.685px 215.97px;"><path d="M162.476,193.035c.966-.71,25.67-1.243,39.953-1.243v-.144c.69-9.507,3.12-18.806,7.169-27.434l6.048-12.918c1.6-3.479,5.283-5.505,9.078-4.994,1.19,.166,2.35,.506,3.44,1.01l-2.752,.966c.022,1.027-.063,2.054-.255,3.063l-8.368,43.726c.266,1.609-.055,4.051-1.487,7.769-1.687,4.417-26.269,9.677-39.42,10.61-3.862,.266-6.714,.177-7.769-.411-2.331-1.298-5.127-5.327-6.659-9.511-1.487-4.184-1.742-8.523,1.021-10.488Z" style="fill: #56D478; transform-origin: 194.261px 179.906px;" id="el7qcxjpg11i7" class="animable"></path><path d="M163.674,192.979c.384-.026,.769-.033,1.153-.021,6.402,.205,11.426,5.56,11.221,11.962l10.858,60.107c-4.761,6.548-53.843,25.452-54.853,19.57,4.709-28.075-15.092-75.456-8.281-80.177,20.665-14.716,37.217-11.264,39.903-11.442Z" style="fill: #56D478; transform-origin: 154.618px 239.231px;" id="elozgdsob4brd" class="animable"></path><path d="M95.907,231.525l25.86,6.31s-5.942-27.766,1.417-33.119c7.359-5.353,17.766,47.591,17.766,47.591l-6.651,9.649s-43.093-17.777-43.093-16.929,4.701-13.501,4.701-13.501Z" style="fill: #56D478; transform-origin: 116.078px 233.146px;" id="else9qxz3eawo" class="animable"></path><g id="el3ev72m12unz"><polygon points="132.053 261.031 126.021 221.518 127.508 259.167 132.053 261.031" style="isolation: isolate; opacity: 0.2; transform-origin: 129.037px 241.275px;" class="animable" id="elgrbcmnn8p2p"></polygon></g><g id="elbgrgxiz978f"><path d="M163.591,204.493c1.52,4.184,4.317,8.213,6.659,9.511,1.11,.588,4.161,1.848,7.313-.697,1.287,9.555,4.76,26.349,4.76,26.349,0,0-15.114-16.119-18.732-35.163Z" style="isolation: isolate; opacity: 0.1; transform-origin: 172.957px 222.074px;" class="animable" id="eldc1c7xe0yid"></path></g></g><g id="els8r1y4gvvf" class="animable" style="transform-origin: 213.504px 236.507px;"><path d="M193.004,150.314h40.762c1.607,0,2.912,1.305,2.912,2.912v165.099c0,2.415-1.961,4.376-4.376,4.376h-38.526c-1.902,0-3.446-1.544-3.446-3.446V152.988c0-1.476,1.198-2.674,2.674-2.674Z" style="fill: #56D478; transform-origin: 213.504px 236.508px;" id="elve2pbfxqzp" class="animable"></path><g id="el66fb677u20v"><path d="M193.087,150.314h39.311c2.362,0,4.28,1.918,4.28,4.28v163.878c0,2.334-1.895,4.229-4.229,4.229h-38.59c-1.947,0-3.528-1.581-3.528-3.528V153.071c0-1.521,1.235-2.756,2.756-2.756Z" style="fill: rgb(255, 255, 255); opacity: 0.5; transform-origin: 213.505px 236.507px;" class="animable" id="elzgc6mkx0yx"></path></g><path d="M193.004,150.314h40.949c1.504,0,2.724,1.221,2.724,2.724v7.508h-46.347v-7.559c0-1.476,1.198-2.674,2.674-2.674Z" style="fill: #56D478; transform-origin: 213.504px 155.429px;" id="el4ibug3l3rrn" class="animable"></path><g id="elb3hwt6w3jku"><rect x="197.707" y="170.898" width="13.733" height="13.733" style="fill: rgb(255, 255, 255); opacity: 0.5; transform-origin: 204.573px 177.764px;" class="animable" id="elyuluczmgt3q"></rect></g><g id="el49r5fnlod8u"><rect x="216.929" y="170.898" width="13.733" height="13.733" style="fill: rgb(255, 255, 255); opacity: 0.5; transform-origin: 223.796px 177.764px;" class="animable" id="elez9rcdoem4w"></rect></g><g id="elu1tpmzt99i"><rect x="197.707" y="190.603" width="13.733" height="13.733" style="fill: rgb(255, 255, 255); opacity: 0.5; transform-origin: 204.573px 197.47px;" class="animable" id="elnjiu3e5s237"></rect></g><g id="el1zd19lks8jai"><rect x="216.929" y="190.603" width="13.733" height="13.733" style="fill: rgb(255, 255, 255); opacity: 0.5; transform-origin: 223.796px 197.47px;" class="animable" id="el249x1o4t4h2"></rect></g><g id="elznqfwfq79fb"><rect x="197.707" y="210.195" width="13.733" height="13.733" style="fill: rgb(255, 255, 255); opacity: 0.5; transform-origin: 204.573px 217.061px;" class="animable" id="eld061boq9aeg"></rect></g><g id="el8flr563mun6"><rect x="216.929" y="210.195" width="13.733" height="13.733" style="fill: rgb(255, 255, 255); opacity: 0.5; transform-origin: 223.796px 217.061px;" class="animable" id="eln768znjndch"></rect></g><g id="el1h9j0o3ctqb"><rect x="197.707" y="229.788" width="13.733" height="13.733" style="fill: rgb(255, 255, 255); opacity: 0.5; transform-origin: 204.573px 236.655px;" class="animable" id="elqlgk00w9i9"></rect></g><g id="el2ya6l3fiasj"><rect x="216.929" y="229.788" width="13.733" height="13.733" style="fill: rgb(255, 255, 255); opacity: 0.5; transform-origin: 223.796px 236.655px;" class="animable" id="eli5wj5d5tuf"></rect></g><g id="elx76y8j8j5g"><rect x="197.707" y="302.549" width="13.733" height="13.733" style="fill: rgb(255, 255, 255); opacity: 0.5; transform-origin: 204.573px 309.415px;" class="animable" id="elndn5z39g5bk"></rect></g><g id="ellxygzcxchjk"><rect x="216.929" y="302.549" width="13.733" height="13.733" style="fill: rgb(255, 255, 255); opacity: 0.5; transform-origin: 223.796px 309.415px;" class="animable" id="elkiyi3kiaowh"></rect></g><rect x="208.88" y="268.923" width="21.782" height="21.782" style="fill: rgb(255, 255, 255); transform-origin: 219.771px 279.814px;" id="eljswr2t23nib" class="animable"></rect><rect x="197.989" y="256.693" width="21.782" height="21.782" style="fill: #56D478; transform-origin: 208.88px 267.584px;" id="el7kpr9japwqw" class="animable"></rect></g><g id="elp8p09tqcqt" class="animable" style="transform-origin: 215.591px 151.949px;"><path d="M212.227,150.536s1.782,5.697,3.274,6.391c1.492,.695,1.378-1.651,1.378-1.651,0,0,.284,2.573,1.393,2.6,1.331,.033,1.2-2.425,1.2-2.425,0,0,.318,2.092,1.306,2.049,1.025-.044,1.074-2.827,1.074-2.827,0,0,.503,1.43,1.173,1.012,.67-.418,.89-6.324-.216-8.063-1.105-1.739-8.704-1.789-10.351-1.407-.527,.122-3.85,2.296-4.86,4.098l4.573,.053,.055,.169Z" style="fill: rgb(253, 170, 109); transform-origin: 215.591px 151.949px;" id="elva3uqcpqlp" class="animable"></path><g id="elexqh1164nam"><path d="M217.002,155.27v-.011l-.711-4.462c-.01-.06-.073-.101-.141-.092-.068,.009-.116,.068-.106,.125l.711,4.462c.01,.06,.073,.101,.14,.092,.064-.009,.11-.059,.107-.114Z" style="opacity: 0.2; transform-origin: 216.522px 153.045px;" class="animable" id="el8m2oupu5z6t"></path></g><g id="elg31vkl0fi0p"><path d="M219.59,155.318v-.003l-.342-4.34c-.005-.061-.064-.105-.132-.1-.069,.005-.11,.048-.116,.118l.341,4.34c.005,.061,.064,.105,.133,.101,.068-.005,.119-.056,.116-.116Z" style="opacity: 0.2; transform-origin: 219.295px 153.154px;" class="animable" id="elnyheis2lvsb"></path></g><g id="el7908crsxflh"><path d="M221.969,154.519l-.162-3.232c-.003-.061-.061-.107-.13-.103-.068,.003-.122,.055-.119,.116l.162,3.233c.003,.061,.061,.107,.13,.103,.068-.003,.122-.055,.119-.116Z" style="opacity: 0.2; transform-origin: 221.763px 152.91px;" class="animable" id="eltoaf7ai3lss"></path></g></g><g id="elhsw2nouthbc"><path d="M145.296,189.139l-.263-.957-9.103,2.001c3.13,2.741,8.157,2.064,10.066,.777l-.699-1.82Z" style="isolation: isolate; opacity: 0.3; transform-origin: 140.963px 190.132px;" class="animable" id="eldfxq0injo6i"></path></g><g id="eluby796qyqu" class="animable" style="transform-origin: 135.641px 179.832px;"><path d="M131.878,191.781s12.718-.444,18.867-2.819c6.814-2.63,2.375-12.696,2.375-12.696,1.81-.649,3.336-1.909,4.317-3.562,1.387-2.442,.3-5.682-1.831-7.558-2.131-1.876-6.093-2.408-8.79-3.185,1.853-.455,2.697-2.874,1.975-4.65-.882-1.712-2.488-2.935-4.373-3.329-1.873-.379-3.767-.645-5.671-.799-2.641-.4-5.161-1.287-7.769-1.753-2.614-.618-5.362-.304-7.769,.888-1.809,1.146-3.208,2.836-3.995,4.828-.69,1.395-.923,2.971-.666,4.506,.305,1.559,1.576,2.745,3.152,2.941,0,0,4.595,23.694,10.177,27.19Z" style="fill: rgb(55, 89, 102); transform-origin: 138.251px 171.452px;" id="ellksghsvz5kk" class="animable"></path><path d="M118.527,162.659c3.873-1.609,8.601,4.461,10.532,6.958,3.554,4.34,6.538,9.118,8.878,14.217,.877,2.086,1.465,4.75-.089,6.392-1.102,.922-2.492,1.428-3.929,1.432-2.54,.264-5.093,.379-7.647,.344-2.419-.033-4.983-.244-6.936-1.676-1.953-1.432-2.885-4.484-1.321-6.326-1.92,.433-3.807-1.132-4.439-2.963-.466-1.892-.466-3.868,0-5.76,.522-3.396,1.077-11.009,4.95-12.618Z" style="fill: rgb(55, 89, 102); transform-origin: 126.02px 177.2px;" id="elipvs6y43r1" class="animable"></path><path d="M146.017,190.97c.551,1.263,1.33,2.415,2.297,3.396,1.173,1.068,1.581,2.74,1.032,4.228-.766,1.92-2.475,4.728-6.248,8.357-.64,.629-1.424,1.093-2.283,1.353-2.934,.887-6.031-.772-6.917-3.706-.14-.445-.211-.909-.211-1.376,.023-1.594,.785-3.087,2.064-4.04,3.396-2.575,1.609-6.626-.311-9.888l8.057-9.444c.248,3.146,.848,6.254,1.787,9.267h0l.733,1.853Z" style="fill: rgb(253, 170, 109); transform-origin: 141.637px 194.196px;" id="elm0sly8vom2" class="animable"></path><path d="M125.608,177.93c-1.276-4.051-2.353-8.212-4.317-12.008-.282,.976-.45,1.982-.499,2.997-.087,1.933,.265,3.861,1.032,5.638,.566,1.343,1.065,2.564,1.554,3.673,1.853,4.339,3.274,7.081,5.849,9.2h0l.81,.411c-1.956-3.068-3.448-6.407-4.428-9.911Z" style="fill: rgb(55, 89, 102); transform-origin: 125.408px 176.881px;" id="elmcps6kadr9h" class="animable"></path><path d="M144.752,164.402c-.244-.366-.488-.744-.755-1.11-2.675-3.651-6.148-6.326-10.443-6.515-5.132-.282-9.877,2.722-11.819,7.48-.183,.411-.339,.834-.466,1.265-.28,.976-.448,1.982-.499,2.997-.087,1.933,.265,3.861,1.032,5.638,.566,1.343,1.065,2.564,1.554,3.673,1.853,4.339,3.274,7.081,5.849,9.2h0c.749,.611,1.551,1.153,2.397,1.62,.266,.144,.544,.3,.843,.433,.713,.357,1.455,.65,2.22,.877,2.042,.64,4.217,.728,6.304,.255h.067c5.554-1.277,9.238-6.554,8.523-12.208-.577-4.835-2.218-9.482-4.805-13.606Z" style="fill: rgb(253, 170, 109); transform-origin: 135.202px 173.637px;" id="elgq8zm73sozv" class="animable"></path><g id="el6une3r5zdq4" class="animable" style="transform-origin: 133.729px 173.72px;"><path d="M122.652,172.996c2.891,8.186,4.351,12.861,9.896,15.891,8.341,4.557,17.649-2.048,17.335-10.962-.282-8.023-4.962-20.061-14.298-20.957-9.198-.882-15.824,7.842-12.933,16.028Z" style="fill: rgb(253, 170, 109); transform-origin: 135.929px 173.637px;" id="el7h6ccp10xgr" class="animable"></path><g id="el05mjtsw1djch"><path d="M127.308,177.753c.621-.189,1.243,.222,1.887,.288,14.638,1.443,19.231-1.224,20.451-2.778,.177,.843,.149,1.862,.238,2.661,.008,5.89-3.227,11.036-8.781,12.313h-.067c-2.087,.469-4.261,.381-6.304-.255-.764-.226-1.507-.52-2.22-.877-.3-.133-.577-.289-.843-.433-.846-.467-1.648-1.009-2.397-1.62h0c-1.084-.897-2.027-1.952-2.797-3.13-.208-1.041-.357-2.094-.444-3.152-.067-1.199,.155-2.708,1.276-3.019Z" style="isolation: isolate; opacity: 0.2; transform-origin: 137.952px 182.898px;" class="animable" id="elp455gkb3ing"></path></g><path d="M126.829,165.545c-.631-.972-1.684-1.589-2.841-1.665-.799,0-2.597,.067-3.019,0s-.899-.089-1.11,.233c-2.816,4.338-3.054,9.863-.621,14.428,2.439,3.831,5.898,6.905,9.988,8.878-2.586-2.12-3.995-4.861-5.86-9.2,.723-.198,1.47-.299,2.22-.3,.633-.011,2.408,2.353,2.675,1.776,.821-1.765-3.241-7.802-1.432-14.15Z" style="fill: rgb(55, 89, 102); transform-origin: 123.396px 175.629px;" id="el14ljl9uw3u3" class="animable"></path><path d="M121.467,180.885c1.295,1.954,3.403,3.124,5.339,3.471,2.912,.523,3.095-2.462,2.108-5.02-.889-2.302-2.415-4.983-5.252-4.347-2.794,.627-3.675,3.66-2.195,5.895Z" style="fill: rgb(253, 170, 109); transform-origin: 125.105px 179.655px;" id="elp4dl3mm3ftp" class="animable"></path><path d="M134.576,171.397c.242,.853,.903,1.41,1.476,1.244,.573-.165,.842-.991,.6-1.843-.242-.853-.903-1.41-1.476-1.244-.573,.165-.842,.991-.6,1.844Z" style="fill: rgb(55, 89, 102); transform-origin: 135.614px 171.098px;" id="el1xpp1ngdu41" class="animable"></path><path d="M143.545,170.045c.242,.853,.903,1.41,1.476,1.244,.573-.165,.842-.991,.6-1.844s-.903-1.41-1.476-1.244c-.573,.166-.842,.991-.6,1.843Z" style="fill: rgb(55, 89, 102); transform-origin: 144.583px 169.745px;" id="el3ggl24e6i08" class="animable"></path><path d="M141.577,170.06s3.982,3.463,5.363,4.941c-.918,1.412-3.164,1.504-3.164,1.504l-2.198-6.444Z" style="fill: rgb(255, 126, 60); transform-origin: 144.258px 173.282px;" id="el7gc89jgxy4v" class="animable"></path><path d="M130.678,169.398c.147,.016,.301-.044,.396-.171,1.14-1.503,2.709-1.453,2.725-1.453,.235,.01,.438-.167,.453-.396,.015-.229-.164-.422-.398-.433-.083-.004-2.049-.067-3.463,1.798-.141,.186-.103,.445,.086,.579,.061,.043,.13,.068,.201,.075Z" style="fill: rgb(55, 89, 102); transform-origin: 132.279px 168.172px;" id="elu2dzjvikf3l" class="animable"></path><g id="elwt0vy0c9sk"><path d="M127.4,179.691c-.098,0-.191-.058-.231-.154-.271-.655-.716-1.23-1.288-1.663-.369-.28-.96-.619-1.6-.585-.579,.021-1.114,.37-1.272,.828-.045,.131-.187,.201-.318,.155-.13-.045-.2-.187-.155-.318,.226-.656,.936-1.135,1.726-1.165,.801-.017,1.486,.357,1.921,.687,.642,.487,1.142,1.134,1.447,1.87,.053,.127-.008,.274-.135,.327-.031,.013-.063,.019-.096,.019Z" style="opacity: 0.2; transform-origin: 125.086px 178.24px;" class="animable" id="elax2twe0ur2u"></path></g><path d="M147.293,165.097c.072-.037,.134-.095,.176-.17,.114-.203,.041-.456-.163-.565-2.053-1.095-3.785-.183-3.868-.152-.207,.111-.287,.364-.178,.566,.109,.201,.363,.276,.57,.168,.071-.041,1.414-.727,3.062,.153,.129,.069,.279,.064,.402,0Z" style="fill: rgb(55, 89, 102); transform-origin: 145.367px 164.486px;" id="elc54cu3273ln" class="animable"></path><path d="M143.87,179.436c-.591,1.041-1.105,2.124-1.539,3.239-.205-.043-.416-.082-.619-.135-2.796-.626-3.89-1.836-4.241-2.996-.162-.57-.188-1.171-.075-1.753,.056-.329,.157-.65,.301-.951,1.285,1.219,3.839,2.003,5.225,2.363,.605,.128,.948,.233,.948,.233Z" style="fill: rgb(55, 89, 102); transform-origin: 140.598px 179.757px;" id="ellp0v2o12qhj" class="animable"></path><path d="M142.951,179.183l-.481,.944c-2.625-.595-4.394-1.358-5.045-2.356,.056-.329,.157-.65,.301-.951,1.293,1.23,3.838,2.003,5.225,2.363Z" style="fill: rgb(255, 255, 255); transform-origin: 140.188px 178.473px;" id="eliseve10sx6a" class="animable"></path><path d="M141.742,182.52c-2.796-.626-3.89-1.836-4.241-2.996,1.058,.257,2.062,.699,2.966,1.307,.591,.416,1.037,1.007,1.276,1.689Z" style="fill: rgb(245, 73, 72); transform-origin: 139.622px 181.022px;" id="el3fdqctfgbf2" class="animable"></path></g><path d="M123.388,158.076c-1.842,.91-3.451,3.052-2.619,4.939,.688,1.576,2.641,2.075,4.328,2.386,3.385,.677,6.859,1.243,10.255,.677,.977-.167,2.086-.544,2.419-1.487,.213-.758-.014-1.571-.588-2.109-.57-.521-1.233-.931-1.953-1.21,1.92,1.024,4.026,1.65,6.193,1.842,.755,.153,1.538-.024,2.153-.488,.548-.66,.589-1.604,.1-2.308-.488-.676-1.141-1.215-1.898-1.565-5.644-3.239-12.522-3.493-18.389-.677Z" style="fill: rgb(55, 89, 102); transform-origin: 132.28px 161.22px;" id="el0wnmnmnz923c" class="animable"></path></g></g></g><defs>     <filter id="active" height="200%">         <feMorphology in="SourceAlpha" result="DILATED" operator="dilate" radius="2"></feMorphology>                <feFlood flood-color="#32DFEC" flood-opacity="1" result="PINK"></feFlood>        <feComposite in="PINK" in2="DILATED" operator="in" result="OUTLINE"></feComposite>        <feMerge>            <feMergeNode in="OUTLINE"></feMergeNode>            <feMergeNode in="SourceGraphic"></feMergeNode>        </feMerge>    </filter>    <filter id="hover" height="200%">        <feMorphology in="SourceAlpha" result="DILATED" operator="dilate" radius="2"></feMorphology>                <feFlood flood-color="#ff0000" flood-opacity="0.5" result="PINK"></feFlood>        <feComposite in="PINK" in2="DILATED" operator="in" result="OUTLINE"></feComposite>        <feMerge>            <feMergeNode in="OUTLINE"></feMergeNode>            <feMergeNode in="SourceGraphic"></feMergeNode>        </feMerge>            <feColorMatrix type="matrix" values="0   0   0   0   0                0   1   0   0   0                0   0   0   0   0                0   0   0   1   0 "></feColorMatrix>    </filter></defs></svg>