<svg id="Layer_1" data-name="Layer 1" xmlns="http://www.w3.org/2000/svg" viewBox="0 0 2494.49 2494.49"><defs><style>.cls-1{fill:#1abcfe;}.cls-2{fill:#0acf83;}.cls-3{fill:#ff7262;}.cls-4{fill:#f24e1e;}.cls-5{fill:#a259ff;}</style></defs><title>figma</title><path class="cls-1" d="M1247.24,1247.24c0-195.68,158.64-354.33,354.33-354.33s354.34,158.65,354.34,354.33-158.65,354.33-354.34,354.33S1247.24,1442.94,1247.24,1247.24Z"/><path class="cls-2" d="M538.58,1955.91c0-195.69,158.64-354.34,354.33-354.34h354.33v354.34c0,195.69-158.63,354.33-354.33,354.33S538.58,2151.6,538.58,1955.91Z"/><path class="cls-3" d="M1247.24,184.26V892.91h354.33c195.7,0,354.34-158.63,354.34-354.33s-158.64-354.32-354.34-354.32Z"/><path class="cls-4" d="M538.58,538.58c0,195.7,158.64,354.33,354.33,354.33h354.33V184.25H892.91c-195.69,0-354.33,158.64-354.33,354.33Z"/><path class="cls-5" d="M538.58,1247.24c0,195.7,158.64,354.33,354.33,354.33h354.33V892.91H892.91c-195.69,0-354.33,158.65-354.33,354.33Z"/></svg>